<?xml version="1.0" encoding="UTF-8"?>
<svg id="Capa_1" data-name="Capa 1" xmlns="http://www.w3.org/2000/svg" xmlns:xlink="http://www.w3.org/1999/xlink" viewBox="0 0 668.39 544">
  <defs>
    <style>
      .cls-1 {
        opacity: .28;
      }

      .cls-1, .cls-2, .cls-3, .cls-4, .cls-5 {
        isolation: isolate;
      }

      .cls-1, .cls-6 {
        fill: #c4632c;
      }

      .cls-7 {
        fill: #e0eeea;
      }

      .cls-8 {
        fill: #f6e1db;
      }

      .cls-9 {
        fill: #fff;
      }

      .cls-10 {
        fill: #2e738a;
      }

      .cls-2 {
        opacity: .36;
      }

      .cls-2, .cls-11 {
        fill: #d34f3b;
      }

      .cls-12 {
        opacity: .24;
      }

      .cls-13 {
        opacity: .82;
      }

      .cls-14 {
        clip-path: url(#clippath-2);
      }

      .cls-15, .cls-3 {
        fill: #783026;
      }

      .cls-16, .cls-4 {
        fill: #341212;
      }

      .cls-17 {
        fill: #f5f0cd;
      }

      .cls-18, .cls-5 {
        fill: #e0a068;
      }

      .cls-19 {
        clip-path: url(#clippath-1);
      }

      .cls-3 {
        opacity: .3;
      }

      .cls-20 {
        clip-path: url(#clippath);
      }

      .cls-21 {
        fill: none;
      }

      .cls-4 {
        opacity: .56;
      }

      .cls-5 {
        opacity: .25;
      }

      .cls-22 {
        fill: #ed9acf;
      }
    </style>
    <clipPath id="clippath">
      <rect class="cls-21" width="668.39" height="544"/>
    </clipPath>
    <clipPath id="clippath-1">
      <rect class="cls-21" x="10.49" y="5.75" width="657.9" height="446.2"/>
    </clipPath>
    <clipPath id="clippath-2">
      <path class="cls-21" d="M506.81,35.29c-5.87-.51-11.73-1.03-17.6-1.54-5.16,52.63-16.43,104.65-33.51,154.7-1.24,3.63-4.47,6.36-8.3,6.64-6.66,.49-8.99-6.3-10.19-11.9-7.67-35.58-15.35-71.17-23.02-106.75-5.29,1.4-10.57,2.8-15.86,4.19,2.09,8.41,18.01,71.32,31,129.32,7,31.24,10.26,63.2,9.69,95.2l-2.25,125.57h28.79c-.9-67.56-1.79-135.32,5.38-202.51,6.95-65.08,21.42-129.09,35.86-192.93h0Z"/>
    </clipPath>
  </defs>
  <g class="cls-20">
    <g>
      <g id="BACKGROUND">
        <ellipse class="cls-8" cx="337.1" cy="465.18" rx="299.03" ry="15.48"/>
      </g>
      <g id="OBJECTS">
        <g class="cls-19">
          <g>
            <g>
              <path class="cls-10" d="M711.17,8.74c-1.79-12.06-16.59-22.05-26.6-15.08,7.45-17.33,3.1-39.06-10.45-52.18-13.55-13.12-35.4-16.78-52.49-8.78-8.94-21.28-23.02-41.12-42.93-52.8s-46.19-13.9-65.91-1.92c-19.73,11.99-29.78,39.48-19.01,59.9-11.39-15.52-29.88-24.76-48.83-28.21-18.95-3.44-38.46-1.61-57.46,1.53-9.53,1.58-19.26,3.57-27.41,8.77-8.15,5.19-14.48,14.27-13.8,23.91,.27,3.82,1.96,7.5,4.46,10.43-22.54-6.35-47.26-4.8-70.64-.91-25.09,4.18-53.05,13.52-62.99,36.93-7.81,18.38-.96,41.11,14.03,54.3,14.99,13.2,36.61,17.39,56.24,13.68-20.5,12.89-22.94,44.62-8.66,64.18s40.39,27.64,64.56,26.05c19.72-1.29,38.52-8.05,56.69-16.06-2.13,18.23,4.35,37.58,17.91,50.08,18.01,16.6,47.05,19.77,68.22,7.46s32.76-39.13,27.24-62.98c7.9,15.65,27.85,24.03,44.56,18.73s28.18-23.65,25.61-40.99c11.64,13.7,34.83,12.81,48.53,1.17,13.7-11.65,18.88-30.9,17.97-48.85,6.97,6.53,18.1,6.96,26.89,3.22,8.79-3.73,15.64-10.9,21.59-18.38,7.6-9.54,14.46-21.13,12.67-33.19h0Z"/>
              <path class="cls-10" d="M698.51,41.93c-5.95,7.47-12.8,14.64-21.59,18.37-4.34,1.84-9.27,2.67-13.97,2.24-4.81-.42-9.4-2.16-12.92-5.46,.91,17.95-4.27,37.2-17.96,48.85-13.7,11.65-36.9,12.54-48.53-1.17,2.57,17.35-8.91,35.69-25.61,40.99-16.72,5.3-36.66-3.08-44.57-18.73,5.53,23.86-6.07,50.67-27.23,62.99-21.17,12.31-50.22,9.14-68.22-7.46-13.56-12.49-20.04-31.84-17.92-50.08-18.17,8.01-36.98,14.77-56.69,16.06-5.23,.34-10.55,.23-15.83-.35-19.08-2.1-37.54-10.38-48.72-25.7-14.29-19.55-11.85-51.29,8.65-64.18-19.62,3.71-41.24-.48-56.23-13.68-15-13.2-21.84-35.92-14.03-54.3,9.95-23.42,37.9-32.77,62.99-36.93,23.38-3.9,48.09-5.44,70.64,.91-2.51-2.93-4.2-6.61-4.47-10.44-.68-9.63,5.66-18.71,13.81-23.91,8.15-5.18,17.87-7.19,27.41-8.77,19-3.14,38.51-4.97,57.45-1.53,18.96,3.44,37.43,12.69,48.83,28.21-10.76-20.42-.71-47.92,19.01-59.9,19.73-11.98,46-9.76,65.92,1.93,19.9,11.67,33.99,31.52,42.92,52.8,17.09-8.01,38.94-4.34,52.49,8.78s17.91,34.84,10.45,52.18c10-6.97,24.8,3.02,26.6,15.08,1.8,12.06-5.08,23.65-12.66,33.2h-.02Z"/>
              <g class="cls-13">
                <path class="cls-10" d="M650.02,57.08c.91,17.95-4.27,37.2-17.96,48.85-13.7,11.65-36.9,12.54-48.53-1.17,2.57,17.35-8.91,35.69-25.61,40.99-16.72,5.3-36.66-3.08-44.57-18.73,5.53,23.86-6.07,50.67-27.23,62.99-21.17,12.31-50.22,9.14-68.22-7.46-13.56-12.49-20.04-31.84-17.92-50.08-18.17,8.01-36.98,14.77-56.69,16.06-5.23,.34-10.55,.23-15.83-.35-4.9-1.9-9.47-4.59-13.44-8.09-11.71-10.31-17.07-28.06-10.96-42.43,7.77-18.29,29.61-25.6,49.22-28.85,18.27-3.05,37.59-4.25,55.2,.71-1.96-2.29-3.28-5.16-3.49-8.15-.53-7.54,4.42-14.63,10.79-18.69,6.36-4.05,13.97-5.61,21.42-6.85,14.85-2.45,30.09-3.88,44.89-1.19,14.81,2.7,37.6-15.4,53.01-24.76,15.42-9.37,35.95-7.63,51.51,1.49,15.56,9.13,26.56,24.63,33.55,41.26,13.34-6.26,30.42-3.41,41.01,6.85,.99,.96,1.91,1.97,2.78,3.05-4.81-.42-9.4-2.16-12.92-5.46h-.01Z"/>
              </g>
              <g>
                <path class="cls-15" d="M409.91,127.17c-.19-.76-.38-1.53-.57-2.29-2.88-9.91,.57,2.29,.57,2.29Z"/>
                <g>
                  <path class="cls-15" d="M506.81,35.29c-5.87-.51-11.73-1.03-17.6-1.54-5.16,52.63-16.43,104.65-33.51,154.7-1.24,3.63-4.47,6.36-8.3,6.64-6.66,.49-8.99-6.3-10.19-11.9-7.67-35.58-15.35-71.17-23.02-106.75-5.29,1.4-10.57,2.8-15.86,4.19,2.09,8.41,18.01,71.32,31,129.32,7,31.24,10.26,63.2,9.69,95.2l-2.25,125.57h28.79c-.9-67.56-1.79-135.32,5.38-202.51,6.95-65.08,21.42-129.09,35.86-192.93h0Z"/>
                  <g class="cls-14">
                    <g class="cls-12">
                      <path class="cls-15" d="M503.48,24c-4.11,11.56-8.26,23.1-12.33,34.67-3.91,11.11-7.67,22.28-10.69,33.67-3.03,11.43-5.25,23.07-6.16,34.87-.94,12.14-.71,24.32-1.17,36.47-.23,6.07-.62,12.15-1.45,18.18-.58,4.19-1.54,8.44-3.42,12.25-1.73,3.51-4.36,6.76-8.14,8.14-4.52,1.65-9.29,.31-13.18-2.26-8.61-5.68-12.43-16.33-14.68-25.93-1.21-5.17-2.04-10.42-2.97-15.64-1.04-5.87-2.18-11.72-3.4-17.56-2.43-11.61-5.21-23.15-8.34-34.6-3.14-11.5-6.63-22.9-10.46-34.19-.94-2.77-1.9-5.53-2.88-8.28-.44-1.25-2.44-.71-2,.55,4.07,11.45,7.8,23.02,11.16,34.69,3.35,11.62,6.33,23.34,8.96,35.15,1.32,5.93,2.55,11.88,3.68,17.85,1.06,5.59,1.97,11.21,3.03,16.8,1.92,10.04,4.69,20.8,11.75,28.57,3.22,3.55,7.54,6.52,12.32,7.39,4.45,.81,8.9-.41,12.3-3.39,3.18-2.78,5.13-6.75,6.41-10.71,1.53-4.72,2.1-9.69,2.57-14.61,1.17-12.29,.98-24.65,1.35-36.98,.19-6.17,.53-12.35,1.24-18.49,.7-5.99,1.75-11.93,3.04-17.82,2.58-11.77,6.15-23.31,10.02-34.71,3.95-11.64,8.16-23.2,12.28-34.78l3.12-8.77c.45-1.26-1.55-1.8-2-.55l.04,.02Z"/>
                      <path class="cls-15" d="M449.05,307.5c-.49-16.51-1.68-33-3.55-49.42-1.86-16.27-4.38-32.46-7.58-48.51-.41-2.03-.82-4.07-1.25-6.1-.27-1.3-2.27-.75-2,.55,3.38,16.08,6.09,32.29,8.11,48.6,2.01,16.24,3.34,32.56,3.99,48.9,.65,16.35,.63,32.72-.07,49.07s-2.07,32.66-4.12,48.89c-2.05,16.22-4.78,32.35-8.18,48.34-.43,2.03-.88,4.06-1.33,6.08-.29,1.3,1.7,1.85,2,.55,3.59-16.04,6.51-32.24,8.74-48.52,2.23-16.3,3.8-32.69,4.67-49.12,.87-16.42,1.06-32.87,.57-49.3h0Z"/>
                      <path class="cls-15" d="M460.03,224.41c-.49-.13-1.19,.17-1.27,.72-2.29,14.82-3.49,29.8-3.52,44.8,0,4.23,.08,8.47,.25,12.7,.05,1.33,2.12,1.33,2.07,0-.6-14.85-.09-29.73,1.54-44.5,.46-4.16,1.01-8.3,1.65-12.44,.09-.55-.14-1.11-.72-1.27h0Z"/>
                      <path class="cls-15" d="M461.91,404.01c-1.25-19.28-2.17-38.58-2.77-57.9-.34-10.94-.58-21.88-.71-32.82-.02-1.33-2.09-1.33-2.07,0,.24,19.42,.8,38.83,1.69,58.23,.88,19.3,2.09,38.59,3.62,57.85,.86,10.91,1.83,21.81,2.91,32.7,.13,1.31,2.2,1.33,2.07,0-1.9-19.33-3.48-38.69-4.73-58.06h0Z"/>
                      <path class="cls-15" d="M413.03,116.73c-.8-3.26-1.68-6.5-2.63-9.72-.38-1.27-2.37-.73-2,.55,3.31,11.19,5.72,22.66,7.15,34.25,.41,3.29,.73,6.59,.99,9.89,.1,1.32,2.17,1.33,2.07,0-.91-11.78-2.77-23.49-5.58-34.97h0Z"/>
                    </g>
                  </g>
                </g>
              </g>
              <path class="cls-10" d="M316.1,138.05c-2.26-.6-4.4-1.46-6.41-2.56-2.85-5.05-5.23-10.35-7.09-15.85-3.84-11.4-4.8-25.68,4-33.9,11.52-10.76,29.8-3.79,45.07,.14,23.87,6.14,50.06,2.73,71.58-9.31,19.19-10.74,34.87-28.05,55.85-34.62,19.76-6.2,41.26-1.86,60.93,4.67,19.66,6.54,38.81,15.26,59.34,18.01,20.53,2.74,43.52-1.69,56.94-17.47,9.62-11.3,12.97-27.1,10.94-41.8-2.03-14.71-9.02-28.38-18.01-40.19-9.54-12.55-21.68-23.46-36.23-29.54-14.54-6.08-31.66-6.92-45.93-.22-9.48,4.45-17.51,11.99-27.59,14.77-13.87,3.79-28.25-2.12-42.07-6.05-40.55-11.5-85.81-5.25-121.72,16.81-8.16,5-16.11,11.08-20.43,19.61-4.32,8.53-4.05,20.01,2.87,26.61-14.29-6.46-31.81,.37-42.27,12.06-10.46,11.68-15.4,27.17-19.72,42.26-4.06,14.21-7.87,28.98-5.79,43.61,1.74,12.31,8.65,24.59,19.32,30.42"/>
            </g>
            <path class="cls-10" d="M699.17,413.27c-10.25-9.69-27.63-10.62-38.86-2.08,9.38-7.96,7.33-24.45-2.11-32.34-9.44-7.89-23.45-8.23-35.01-4.02-11.56,4.2-21.25,12.25-30.68,20.15,13.11-12.73,10.72-37.57-4.59-47.55-15.31-9.99-39-2.17-45.37,14.96,2.34-13.77-2.07-29.51-13.84-37.04-11.76-7.53-30.65-2.75-34.47,10.69-.69-11.23-1.48-22.84-6.66-32.82s-16.02-17.96-27.13-16.16c-7.85,1.27-14.23,7-19.21,13.2-13.84,17.19-20.44,40.03-17.91,61.96-2.54-6.84-5.43-13.75-10.4-19.09s-12.45-8.89-19.59-7.36c-11.86,2.55-16.9,17.03-16.33,29.15s4.53,24.37,1.72,36.17c1.02-10.95-14.36-17.92-23.69-12.11-9.34,5.81-11.65,19.02-8.21,29.47,3.44,10.44,11.26,25.57,18.85,33.52h337.77c7.89-11.7,5.97-28.99-4.28-38.68v-.02Z"/>
            <path class="cls-10" d="M374.15,420.63c-8.3-7.84-22.37-8.6-31.46-1.68,7.59-6.45,5.93-19.8-1.71-26.18-7.64-6.39-18.99-6.66-28.35-3.26-9.36,3.4-17.21,9.92-24.84,16.32,10.62-10.31,8.68-30.42-3.72-38.51-12.39-8.09-31.58-1.76-36.74,12.11,1.89-11.15-1.68-23.9-11.21-29.99-9.53-6.1-24.82-2.22-27.91,8.65-.56-9.09-1.2-18.49-5.39-26.58-4.2-8.09-12.97-14.54-21.97-13.09-6.36,1.03-11.52,5.67-15.56,10.69-11.21,13.92-16.55,32.42-14.5,50.17-2.06-5.54-4.4-11.13-8.42-15.46s-10.08-7.2-15.86-5.96c-9.61,2.06-13.69,13.79-13.23,23.6,.46,9.82,3.67,19.73,1.39,29.29,.82-8.87-11.63-14.51-19.19-9.8s-9.43,15.4-6.65,23.86c2.78,8.46,9.12,20.7,15.26,27.14H377.61c6.39-9.47,4.84-23.47-3.47-31.32h.01Z"/>
            <rect class="cls-15" x="-54" y="450.9" width="722.39" height="2.08"/>
          </g>
        </g>
        <g>
          <path class="cls-15" d="M264.34,392.83c5.6,5.04,11.42,10.2,18.55,12.63,5.77,1.96,12,1.98,17.94,3.32,11.55,2.59,21.82,10.38,27.44,20.79-6.16-6.37-12.88-12.94-21.5-15.01-6.03-1.45-12.39-.52-18.49-1.64-6.13-1.13-11.76-4.3-16.48-8.38s-8.59-9.04-12.13-14.18l4.67,2.48h0Z"/>
          <path class="cls-11" d="M207.85,400.62c-.47,0-10.72,23.17,5.04,36.73l-11.53,12.18c-1.29,1.37-1.02,3.58,.57,4.58h0c1.01,.64,2.3,.62,3.28-.05l23.6-16.08,10.09-17.34-9.3-24.28-21.75,4.26h0Z"/>
          <path class="cls-11" d="M207.85,400.62c-.47,0-10.72,23.17,5.04,36.73l-11.53,12.18c-1.29,1.37-1.02,3.58,.57,4.58h0c1.01,.64,2.3,.62,3.28-.05l23.6-16.08,10.09-17.34-9.3-24.28-21.75,4.26h0Z"/>
          <path class="cls-11" d="M41.36,407.01c5.13-1.08,10.41,.7,15.19,2.85,4.78,2.15,9.5,4.73,14.7,5.36,5.2,.64,11.16-1.23,13.5-5.92l16.94,10.86c-1.22,4.56-2.74,9.16-5.63,12.9-2.88,3.74-7.37,6.53-12.09,6.27-7.92-.42-12.83-8.43-18.95-13.47-4.93-4.06-11.25-6.38-17.64-6.48-2.42-.04-4.88,.23-7.24-.29-2.36-.52-4.71-2.06-5.29-4.41-.9-3.64,2.84-6.89,6.51-7.66h0Z"/>
          <path class="cls-11" d="M91.87,436.97c-3-2.77-5.83-5.72-8.43-8.84-3.12-3.73-6.33-8.15-8.12-12.93,3.94-.5,7.68-2.42,9.42-5.91l16.94,10.86c-1.22,4.56-2.74,9.16-5.63,12.9-1.16,1.51-2.6,2.85-4.19,3.91h0Z"/>
          <path class="cls-11" d="M264.83,427.78c-4.93,6.95-12.9,11.73-21.3,12.78-2.41,.29-4.86,.28-7.29-.07,.57,.34,1.05,.77,1.44,1.27,2.04,2.57,1.66,6.9-.45,9.64-2.51,3.29-6.59,4.87-10.45,6.29-3.35,1.24-6.69,2.47-10.04,3.71-1.34,.5-2.76,1-4.16,.76-.04,0-.07,0-.11-.02-1.43-.3-2.72-1.77-2.28-3.15,.32-1.03,1.4-1.6,2.37-2.06,4.91-2.33,9.83-4.67,14.73-6.99-4.83-6.67-7.13-15.13-6.37-23.32,.61-6.42,3.1-12.62,7.02-17.75-13.3-3.49-27.48-3.4-40.83-.06-.03,0-.06,0-.09,.02-12.83,3.21-24.88,9.41-34.66,18.32-6.94,6.31-13.23,14.1-22.2,16.84-1.45,.44-2.93,.74-4.42,.89-6.65,.68-13.55-1.36-19.34-4.86-20.41-12.32-26.74-38.92-43.03-56.35-2.5-2.67-5.22-5.11-8.13-7.32-.86-.66-1.74-1.3-2.64-1.92-.07-.05-.15-.1-.22-.15-5.91-4.08-12.45-7.3-19.22-9.73-3.44-1.23-7.16-2.46-10.44-4.17-1.43-.74-2.78-1.57-3.99-2.53-1.92-1.53-3.47-3.39-4.41-5.73,2.73,1.52,5.51,3.06,8.41,4.19,1.89,.74,3.82,1.31,5.83,1.59,1.11,.16,2.25,.21,3.39,.15h0c2.13-.12,4.24-.62,6.11-1.55,.33-.16,.64-.33,.95-.52,.59-.36,1.15-.76,1.66-1.22,.63-.55,1.19-1.18,1.68-1.88-1.49,.55-3.04,.94-4.62,1.15-.2,.03-.4,.06-.6,.08-.12,.02-.25,.03-.37,.04-3.22,.34-6.52,0-9.62-.98-2.13-.67-4.16-1.64-6-2.89-6.1-4.18-10.02-11.39-10.17-18.8-.02-.81,.04-1.65,.17-2.47,.33-2.19,1.19-4.32,2.75-5.62,.5-.44,1.09-.78,1.75-1.01,1.85-.63,3.58-.25,5.27,.61,2.72,1.39,5.28,4.01,7.96,5.64,5.8,3.56,13.13,2.47,19.92,2.64,11.9,.33,23.62,5.08,32.36,13.14,7.42,6.82,12.96,16.04,22.03,20.43,6.74,3.27,14.42,3.35,22,2.91,1.68-.1,3.35-.23,5.01-.35,16.07-1.17,43.44-1.47,65.51-1.41,18.13,.04,32.68,.32,34.47,.54,6.27,.74,12.41,2.54,17.98,5.51,.2,.11,.4,.22,.6,.33,9.42,5.18,17.09,13.76,20.42,23.96,.76,2.33,1.28,4.75,1.56,7.19,.97,8.48-.97,17.31-5.91,24.26h.01Z"/>
          <path class="cls-2" d="M259.69,428.9c-3.91,5.51-9.73,9.66-16.16,11.66-1.91,.59-3.87,1-5.85,1.2-2.18,.21-4.39,.17-6.58-.15,3.56,2.13,3.5,7.64,.99,10.91-2.51,3.29-6.59,4.87-10.45,6.29-3.02,1.12-6.04,2.23-9.06,3.35-.04,0-.07,0-.11-.02-1.43-.3-2.72-1.77-2.28-3.15,.32-1.03,1.4-1.6,2.37-2.06,4.91-2.33,9.83-4.67,14.73-6.99-4.83-6.67-7.13-15.13-6.37-23.32,.61-6.42,3.1-12.62,7.02-17.75-13.3-3.49-27.48-3.4-40.83-.06-.03,0-.06,0-.09,.02-14.72,2.73-28.72,9.35-39.8,19.44-6.75,6.14-12.89,13.68-21.48,16.61-6.65,.68-13.55-1.36-19.34-4.86-20.41-12.32-26.74-38.92-43.03-56.35-2.5-2.67-5.22-5.11-8.13-7.32-.86-.66-1.74-1.3-2.64-1.92-.07-.05-.15-.1-.22-.15-5.91-4.08-12.45-7.3-19.22-9.73-3.44-1.23-7.16-2.46-10.44-4.17-1.43-.74-2.78-1.57-3.99-2.53,1.52,.54,3.08,.95,4.69,1.17,2.84,.4,5.89,.11,8.53-.97h0c2.13-.12,4.24-.62,6.11-1.55,.33-.16,.64-.33,.95-.52,.59-.36,1.15-.76,1.66-1.22,.63-.55,1.19-1.18,1.68-1.88-1.49,.55-3.04,.94-4.62,1.15-.2,.03-.4,.06-.6,.08,.03-.03,.05-.07,.08-.11-.15,.05-.3,.11-.45,.15-3.22,.34-6.52,0-9.62-.98-2.13-.67-4.16-1.64-6-2.89-6.1-4.18-10.02-11.39-10.17-18.8-.02-.81,.04-1.65,.17-2.47,.33-2.19,1.19-4.32,2.75-5.62,.63,.15,1.26,.4,1.88,.72,2.72,1.39,5.28,4.01,7.96,5.64,5.8,3.56,13.13,2.47,19.92,2.64,11.9,.33,23.62,5.08,32.36,13.14,7.42,6.82,12.96,16.04,22.03,20.43,6.74,3.27,14.42,3.35,22,2.91,1.68-.1,3.35-.23,5.01-.35,16.07-1.17,43.44-1.47,65.51-1.41,18.13,.04,32.68,.32,34.47,.54,6.27,.74,12.41,2.54,17.98,5.51,.2,.11,.4,.22,.6,.33,9.42,5.18,17.09,13.76,20.42,23.96,.76,2.33,1.28,4.75,1.56,7.19,.97,8.48-.97,17.31-5.91,24.26h0Z"/>
          <path class="cls-11" d="M55.24,376.35l-2.86-2.07c-.02-.19-.05-.39-.09-.58-.63-3.06-3.09-4.19-5.63-5.49-4.63-2.38-7.74-6.64-8.59-11.71,.33-.16,.64-.33,.95-.52,.59-.36,1.15-.76,1.66-1.22,.14,.19,.22,.43,.25,.7,.29,2.8,1.57,5.48,3.53,7.5,2.06,2.13,4.84,2.89,7.18,4.59,3.08,2.22,4.03,5.51,3.6,8.8h0Z"/>
          <g>
            <path class="cls-15" d="M210.99,371.56c-.72-1.88-2.28-3.3-4.27-3.71-2.11-.44-4.18,.13-6.29,.24-2.1,.11-3.43-.75-4.72-2.1-22.07-.06-49.44,.24-65.51,1.41-1.66,.12-3.33,.25-5.01,.35-.27,.69-.49,1.41-.65,2.15-.94,4.37,.75,8.7,4.11,11.58,3.63,3.1,8.38,4.16,13.06,4.09,5.35-.09,10.52-1.6,15.81-2.15,2.7-.28,5.4-.28,8.1-.1,.5,.17,1,.34,1.49,.51,4.56,1.6,9,3.3,13.81,3.99,8.83,1.26,18.37,0,25.62-5.53,3.29-2.5,6.09-6.46,4.45-10.73h0Z"/>
            <path class="cls-15" d="M109.86,408.71c-1.3-1.44-3.19-1.93-4.85-2.8-4.28-2.25-5.53-7.46-7.69-11.4-2.01-3.68-5.38-7.15-9.89-6.99-4.5,.15-6.88,3.91-7.29,8.03s.89,8.39,2.91,11.95c2.37,4.2,5.94,8,10.03,10.57,.32,.2,.66,.39,1.01,.57,2.18,1.82,4.84,2.97,7.82,2.68,3.95-.38,7.76-2.86,9.02-6.75,.65-2.01,.38-4.26-1.07-5.86h0Z"/>
            <path class="cls-15" d="M269.18,396.33c-3.33-10.2-11-18.78-20.42-23.96-2.96,2.03-4.65,5.89-3.31,9.38,.32,.85,.76,1.61,1.28,2.27-.76,.67-1.37,1.54-1.74,2.63-1.35,3.93,1.92,7.25,5.31,8.58,1.89,.73,3.9,1.02,5.83,1.63,2.11,.67,3.48,1.77,4.66,3.62,1.02,1.6,2.07,3.25,3.8,4.16,1.77,.92,3.83,.68,5.42-.49,.26-.19,.5-.4,.73-.63-.28-2.44-.8-4.86-1.56-7.19Z"/>
          </g>
          <g>
            <path class="cls-22" d="M52.63,375.74c-.49,6.59-8.19,9.22-13.53,6.5-2.58-1.32-4.21-3.61-4.96-6.36-.4-1.49-.61-3.13-1.79-4.24-.95-.9-2.23-1.43-3.36-2.06-3.55-1.98-5.71-5.4-6.27-9.2-.2-1.32-.2-2.7,.01-4.07,1.89,.74,3.82,1.31,5.83,1.59,.54,.07,1.08,.12,1.63,.15,.75,.04,1.51,.02,2.26-.05,2.34-.18,4.63-.84,6.57-2.02,.86,2.17,.69,4.85,1.86,6.92,1.67,2.96,4.68,3.84,7.4,5.52,2.25,1.38,4.02,3.43,4.32,6.01,.05,.42,.06,.86,.03,1.31h0Z"/>
            <path class="cls-22" d="M43.6,377.66c.12,1.45-2.13,1.43-2.25,0-.37-4.44-4.36-7.39-7.13-10.44-2.28-2.51-4.25-5.75-4.03-9.17,.75,.04,1.51,.02,2.26-.05-.38,3.74,2.64,6.95,5.12,9.46,2.85,2.89,5.68,5.98,6.03,10.2Z"/>
          </g>
          <path class="cls-16" d="M23.28,326.18c-.88,3.48-6.41,7.63-11.17,6.43-4.76-1.2-6.96-7.3-6.08-10.78,.88-3.48,5.45-5.33,10.21-4.13,4.76,1.2,7.92,4.99,7.04,8.48Z"/>
          <path class="cls-4" d="M20.62,324.7c-.66,2.6-4.8,5.71-8.36,4.81-3.56-.9-5.2-5.46-4.55-8.06,.66-2.6,4.08-3.99,7.64-3.09,3.56,.9,5.92,3.74,5.27,6.34Z"/>
          <path class="cls-9" d="M17.12,321.56c-.21,.84-2.12,1.7-3.92,1.25-1.8-.45-2.8-2.04-2.59-2.88,.21-.84,1.84-1.16,3.64-.7,1.8,.45,3.08,1.5,2.87,2.34h0Z"/>
          <path class="cls-16" d="M51.39,341.22c0-.18-.02-.37-.04-.55-.09-.85-.33-1.75-.99-2.29-.69-.57-1.72-.6-2.52-.22s-1.4,1.12-1.74,1.94c-.68,1.6-.89,3.99-.02,5.55,.49,.88,1.48,1.55,2.48,1.4,.57-.09,1.07-.42,1.45-.85s.63-.96,.83-1.5c.41-1.11,.6-2.3,.55-3.48h0Z"/>
          <path class="cls-11" d="M37.2,356.51c-.07,0-.15,.02-.22,.02h-.02l.24-.02Z"/>
          <path class="cls-11" d="M130.78,424.88c3.9,3.8,6.42,8.83,8.01,14.03,1.58,5.21,2.29,10.63,2.98,16.03,1.08-2.98,3.53-5.43,6.51-6.5,1.77-.64,4.21-.54,5.01,1.17,.78,1.68-.61,3.54-1.95,4.82-2.11,2-4.35,3.86-6.72,5.54-2.24,1.59-4.78,3.09-7.52,2.98-2.3-.09-4.4-1.31-6.28-2.64-7.27-5.16-12.79-12.48-17.04-20.31-2.32-4.28-4.32-8.8-5.13-13.6s-.36-9.93,1.99-14.19c1.02-1.86,2.41-3.55,4.21-4.67s4.03-1.63,6.09-1.13,3.76,1.93,5.32,3.37c4.27,3.92,8.24,8.29,10.82,13.47,2.59,5.18,3.69,11.28,2.11,16.85"/>
          <path class="cls-2" d="M130.78,424.88c3.9,3.8,6.42,8.83,8.01,14.03,1.58,5.21,2.29,10.63,2.98,16.03,1.08-2.98,3.53-5.43,6.51-6.5,1.77-.64,4.21-.54,5.01,1.17,.78,1.68-.61,3.54-1.95,4.82-2.11,2-4.35,3.86-6.72,5.54-2.24,1.59-4.78,3.09-7.52,2.98-2.3-.09-4.4-1.31-6.28-2.64-7.27-5.16-12.79-12.48-17.04-20.31-2.32-4.28-4.32-8.8-5.13-13.6s-.36-9.93,1.99-14.19c1.02-1.86,2.41-3.55,4.21-4.67s4.03-1.63,6.09-1.13,3.76,1.93,5.32,3.37c4.27,3.92,8.24,8.29,10.82,13.47,2.59,5.18,3.69,11.28,2.11,16.85"/>
          <path class="cls-11" d="M68.87,340.96c1.11-1.67,2.9-2.8,4.84-3.29,2.51-.95,5.38-1,8.1-.72,6.94,.7,13.61,3.15,19.84,6.27,3.83,1.92,7.56,4.12,10.7,7.03,1.24,1.15,2.41,2.45,2.95,4.05,.55,1.6,.34,3.55-.89,4.71-1.15,1.09-2.85,1.26-4.43,1.37-3.85,.28-7.71,.57-11.56,.85-5.9,.43-11.93,.85-17.64-.69s-11.13-5.45-12.85-11.11c-.85-2.81-.69-6.03,.94-8.47h0Z"/>
          <path class="cls-11" d="M68.87,340.96c1.11-1.67,2.9-2.8,4.84-3.29,2.51-.95,5.38-1,8.1-.72,6.94,.7,13.61,3.15,19.84,6.27,3.83,1.92,7.56,4.12,10.7,7.03,1.24,1.15,2.41,2.45,2.95,4.05,.55,1.6,.34,3.55-.89,4.71-1.15,1.09-2.85,1.26-4.43,1.37-3.85,.28-7.71,.57-11.56,.85-5.9,.43-11.93,.85-17.64-.69s-11.13-5.45-12.85-11.11c-.85-2.81-.69-6.03,.94-8.47h0Z"/>
        </g>
        <g>
          <path class="cls-6" d="M464.35,181.18c32.66,48.57,32.02,93.8-6.67,135.23l4.35,4.61s77.58-56.8,2.32-139.84h0Z"/>
          <path class="cls-6" d="M426.16,458.94h26.27c3.02,0,5.42-2.47,5.24-5.41l-5.06-84.27c-19.47-1.73-24.99-15.26-25.88-39.86-.31-8.59-14.5-15.44-22.8-18.36-7.8-2.75-13.87,.12-18.46,7.78-5.04,8.41-6.6,18.46-4.5,27.98,2.86,12.98,12.77,30.25,44.62,34.6,4.76,.65,8.65,4.02,9.94,8.53l12.09,62.55s-17.2-5.84-23.95,.8c-2.12,2.09-.52,5.65,2.49,5.65h0Z"/>
          <path class="cls-6" d="M416.34,362.09c.25-.23,.6-.17,.79,.1,2.47,3.6,5.76,6.59,9.34,9.06,7.04,4.87,15.29,8.01,23.65,9.72,1.07,.22,2.15,.42,3.24,.59l-.74-12.3c-19.47-1.73-23.39-17.99-24.28-42.59-.31-8.59-16.1-12.7-24.4-15.62-7.8-2.75-13.87,.12-18.46,7.78-5.04,8.41-6.6,18.46-4.5,27.98,1.87,8.51,6.78,18.87,18.92,26.22,5.93-2.94,11.61-6.4,16.45-10.94h-.01Z"/>
          <path class="cls-6" d="M462.04,321.03c-1.51,1.17-3.02,2.32-4.52,3.46-25.52,19.35-48.81,34.24-69.61,44.09-11.44,5.41-22.12,9.29-31.99,11.53h0c-2.66,.62-5.27,1.1-7.81,1.46-9.89,1.44-18.89,1.03-26.9-1.31-5.06-1.47-9.66-3.94-13.66-7.14,0,0-.02,0-.02-.02-6.64-5.33-11.58-12.75-14.05-21.17-.25-.86-.49-1.73-.73-2.64-2.72-10.1-4.86-22.97-6.5-37.96-1.11-10.09-1.98-21.14-2.66-32.97-.05-.97-.12-1.95-.16-2.94-1.12-20.77-1.63-43.8-1.61-68.06,0-3.02,.9-5.92,2.5-8.35,1.67-2.56,4.12-4.6,7.09-5.74,9.58-3.66,19.08-5.2,28.49-4.44,17.77,1.42,31.65,15.97,32.47,33.77l1.86,39.9c.41,16.57,4.82,28.12,12.08,35.79,14.15,14.96,60.36,6.24,69.21,6.08,17.44-.31,27.55,2.38,26.53,16.66h-.01Z"/>
          <path class="cls-1" d="M457.52,324.49c-25.52,19.35-48.81,34.24-69.61,44.09-11.44,5.41-22.12,9.29-31.99,11.53h0c-2.66,.62-5.27,1.1-7.81,1.46-9.89,1.44-18.89,1.03-26.9-1.31-5.06-1.47-9.66-3.94-13.66-7.14,0,0-.02,0-.02-.02-6.64-5.33-11.58-12.75-14.05-21.17-.25-.86-.49-1.73-.73-2.64-2.72-10.1-4.86-22.97-6.5-37.96-1.11-10.09-1.98-21.14-2.66-32.97-.04-.72-.09-1.45-.12-2.18-.02-.25-.03-.51-.04-.76-.5-9.21-.87-18.87-1.14-28.88-.1-3.92-.19-7.89-.25-11.91,0-.36-.02-.72-.02-1.09-.14-8.53-.21-17.27-.2-26.18,0-3.02,.9-5.92,2.5-8.35,.79-.49,1.63-.91,2.52-1.25,9.58-3.66,19.08-5.2,28.49-4.44,17.77,1.42,31.65,15.97,32.47,33.77l1.85,39.9c.42,16.57,4.83,28.12,12.09,35.79,14.15,14.96,60.36,6.24,69.21,6.08,17.01-.3,27.05,2.25,26.58,15.63h0Z"/>
          <path class="cls-6" d="M406.78,353.4c-3.26,.28-6.54,.39-9.8,.26-3.24-.13-6.49-.43-9.58-1.47-6.11-2.06-10.77-6.51-14.61-11.55-2.02-2.65-3.8-5.45-5.62-8.23-1.68-2.57-3.45-5.15-5.81-7.16-2.48-2.12-5.49-3.23-8.72-3.52-3.05-.27-6.16-.1-9.14,.63-5.53,1.36-10.58,4.81-12.71,10.24-2.1,5.34-1.1,11.38-.33,16.9,.84,6.02,1.89,12.11,1.64,18.21-.21,5.06-1.5,10.21-5.12,13.86,6.49,1.11,13.54,1.1,21.12,0,2.54-.36,5.15-.85,7.81-1.46h.01c9.87-2.24,20.54-6.13,31.99-11.54,9.69-4.59,19.92-10.28,30.67-17-3.89,.86-7.83,1.47-11.8,1.82h0Z"/>
          <g>
            <path class="cls-15" d="M354.97,181.61c-1.04,11.45-9.9,20.99-9.9,20.99l-5.06-5.37c-3.76,7.22-8.25,11.69-12.08,14.42-4.18,2.98-10.13,.83-11.4-4.15-.43-1.69-.76-3.33-1.01-4.93-.06-.39-.11-.77-.15-1.15-1.88-14.57,3.54-25.29,7.91-31.32,2.55-3.51,7.11-4.91,11.21-3.49l11.79,4.06,2.04,.7c.27,.09,.53,.2,.79,.31,3.84,1.7,6.24,5.68,5.86,9.93h0Z"/>
            <path class="cls-3" d="M349.11,171.68c-1.33,4.12-10.18,22.16-10.39,22.78-3.63,6.54-7.84,10.68-11.47,13.26-4.18,2.98-10.13,.83-11.39-4.15-.07-.29-.14-.57-.2-.85-.11-.44-.21-.87-.29-1.3-1.88-14.57,3.54-25.29,7.91-31.32,2.55-3.51,7.11-4.91,11.21-3.49l11.79,4.06,2.04,.7c.27,.09,.53,.2,.79,.31h0Z"/>
            <path class="cls-3" d="M346.28,170.67c-2.77,6.49-9.12,19.45-9.31,19.97-3.63,6.55-7.83,10.68-11.46,13.27-3.22,2.29-7.48,1.54-9.85-1.19-.05-.05-.09-.1-.14-.15-.06-.39-.11-.77-.15-1.15-1.88-14.57,3.54-25.29,7.91-31.32,2.55-3.51,7.11-4.91,11.21-3.49l11.79,4.06Z"/>
          </g>
          <path class="cls-16" d="M346.64,199.86c-.13-1.39-.24-2.78-.44-4.16-.17-1.18-.34-2.48-.88-3.56-.19-.38-.34-.6-.64-.77,.02,0-.06-.02-.12-.02-.13,0,0-.02-.14,.02-.17,.04-.32,.13-.49,.26-.81,.61-1.39,1.6-1.88,2.47-.64,1.14-1.15,2.35-1.61,3.58l4.63,4.92s.67-.72,1.65-1.99c-.02-.25-.06-.49-.08-.74h0Z"/>
          <g>
            <path class="cls-15" d="M299.03,190.8l-.55,.18-4.2,1.36-2.88,.93c-3.12-9.83-7.26-12.09-7.26-12.09-2.1,10.68-7.6,17.54-11.6,21.27-3.13,2.93-8.17,2.39-10.67-1.09-1.33-1.85-2.47-4.07-3.43-6.29-1.02-2.33-1.83-4.68-2.43-6.62-.19-.6-.33-1.21-.42-1.82-.01,0-.01-.02-.01-.03-.54-3.6,.49-7.31,2.96-10.04,3.79-4.2,9.74-8.14,14.67-11.01,5.88-3.43,13.48-1.6,16.98,4.24,5.34,8.91,8.84,21.01,8.84,21.01h0Z"/>
            <path class="cls-3" d="M299.03,190.8l-.55,.18-4.2,1.36c-3.96-8.73-11.38-17.36-11.38-17.36-2.1,10.68-8.1,20.17-12.1,23.91-3.14,2.92-8.17,2.39-10.67-1.1-.6-.84-1.17-1.76-1.69-2.72-1.02-2.33-1.83-4.68-2.43-6.62-.19-.6-.33-1.21-.42-1.82-.01,0-.01-.02-.01-.03-.54-3.6,.49-7.31,2.96-10.04,3.79-4.2,9.74-8.14,14.67-11.01,5.88-3.43,13.48-1.6,16.98,4.24,5.34,8.91,8.84,21.01,8.84,21.01h0Z"/>
            <path class="cls-3" d="M299.03,190.8l-.55,.18c-4.66-9.34-16.41-20.23-16.41-20.23-2.1,10.68-8.1,20.17-12.1,23.91-3.13,2.92-8.17,2.39-10.67-1.1-1.46-2.03-2.7-4.5-3.71-6.93-.01,0-.01-.02-.01-.03-.54-3.6,.49-7.31,2.96-10.04,3.79-4.2,9.74-8.14,14.67-11.01,5.88-3.43,13.48-1.6,16.98,4.24,5.34,8.91,8.84,21.01,8.84,21.01h0Z"/>
          </g>
          <path class="cls-6" d="M294.23,232.22c-.8,0-27.03,5.48-42.8,8.79-7.76,1.63-12.69,9.43-10.61,17.08,3.71,13.6,17.16,29.37,63.33,11.96,21.79-8.22,13.86-40.88-9.24-37.91-.23,.03-.45,.06-.68,.09h0Z"/>
          <path class="cls-1" d="M304.15,270.04c-7.79,2.94-14.65,4.93-20.69,6.14-29.74,6.01-39.55-6.79-42.63-18.1-1.72-6.31,1.33-12.73,6.82-15.7,1.16-.62,2.42-1.09,3.78-1.38,9.02-1.89,21.45-4.49,30.6-6.37,6.85-1.4,11.86-2.41,12.21-2.41,.22-.03,.45-.06,.68-.09,5.27-.68,9.75,.5,13.26,2.82,11.9,7.84,12.79,28.75-4.03,35.09Z"/>
          <path class="cls-17" d="M308.57,236.5c-.06-.54-.2-1.05-.39-1.55-.28-.76-.69-1.48-1.09-2.19-.79-1.37-1.49-2.73-1.73-4.32-.48-3.24,.56-6.45,1.25-9.59,.62-2.87,1.05-6.11-.36-8.83-1.08-2.08-3.24-3.92-5.71-3.73-2.43,.18-4.15,2.21-4.92,4.38-1.02,2.91-.27,6.05,.26,8.99,.49,2.76,.85,5.88-.56,8.45-1.36,2.48-4.1,3.45-6.7,4.05-2.19,.51-4.4,.94-6.61,1.38,0,.37,.01,.73,.02,1.09-9.15,1.88-21.58,4.48-30.6,6.37-1.36,.29-2.62,.76-3.78,1.38-1.27,1.56-1.85,3.66-.9,5.57,1.25,2.52,4.15,3.46,6.78,3.57,1.64,.06,3.29-.11,4.92-.27,1.66-.17,3.31-.38,4.96-.64,6.36-.98,12.63-2.52,18.87-4.07,.35-.09,.7-.17,1.05-.26,6.76-1.67,13.52-3.34,20.28-5.01,1.32-.32,2.91-.52,3.96-1.48,.89-.83,1.14-2.12,1-3.29h0Z"/>
          <g>
            <path class="cls-16" d="M333.7,242.68s.08,.02,.12,.01h-.12Z"/>
            <path class="cls-16" d="M335.65,241.67c-.18,.81-1.06,1.19-1.81,1.03-.5-.11-.51-.11-.03-.01h-.04c-.08-.01-.1-.01-.08,0-.03-.01-.07-.01-.08-.01h-.41c-.09,.04-.18,.05-.27,.08l-.23,.08c2.29,4.16,.56,9.22-3.17,11.89-4.09,2.96-8.69,2.24-13.41,2.48-5.68,.26-8.09,5.21-10.84,9.42-4.77,7.27-12.89,12.1-21.69,11.74-.05-.98-.12-1.96-.16-2.95,5.03,.23,9.95-1.38,13.95-4.43,2.14-1.62,3.9-3.62,5.36-5.85,1.51-2.29,2.83-4.72,4.68-6.75,1.68-1.85,3.81-3.32,6.27-3.83,2.85-.6,5.74-.05,8.6-.3,2.54-.22,5.24-1.17,6.95-3.15,1.43-1.68,2.01-4.04,1.25-6.09-.05,.08-.1,.14-.14,.22-.34,.63-.63,1.28-.91,1.92-.34,.76-1.37,.86-2.01,.53-.33-.17-.59-.55-.68-.89-.12-.4-.01-.76,.14-1.12,.68-1.51,1.41-3.06,2.63-4.21,1.38-1.29,3.23-1.99,5.11-1.59,.81,.17,1.2,1.07,1.03,1.8h0Z"/>
          </g>
          <path class="cls-6" d="M351.66,312.54c-5.02,.4-9.48,2.43-13.41,6-8.7,7.91-9.69,21.27-2.7,30.73,9.14,12.36,22.34,31.41,25.29,42.1,5.67,22.07-5.27,42.2-19.03,61.99,0,0-20.18-3.17-20.18,10.67h22.78c4.07,0,7.82-2.21,9.79-5.77,8.87-16.03,34.28-60.62,48.17-71.22,0,0-23.26-21.23-26.41-53.48-1.21-12.36-11.9-22.01-24.28-21.02h-.02Z"/>
          <path class="cls-1" d="M360.84,391.37c.56,2.17,.95,4.33,1.2,6.47,1.26-2.4,1.85-5.18,2.06-7.86,.05-.63,1.02-.65,1,0-.13,4.41,.7,8.8-.1,13.16,4.93-3.39,9.13-7.63,13.34-11.85,.28-.28,.91-.09,.85,.35-.49,4.11-1.8,8.61-.7,12.72,1.47-2.53,2.79-5.16,4.65-7.44,1.82-2.23,4.1-3.72,6.75-4.8,2.3-.94,4.71-1.58,7.07-2.36,1.38-.45,2.75-.97,4.05-1.64,.45-.39,.89-.75,1.32-1.08,0,0-23.26-21.23-26.41-53.48-1.21-12.36-11.9-22.01-24.28-21.02-5.02,.4-9.48,2.43-13.41,6-8.7,7.91-9.69,21.27-2.7,30.72,9.14,12.36,22.34,31.41,25.29,42.1h.02Z"/>
          <path class="cls-6" d="M348.1,381.57c-14.31,15.08-35.69,52.65-43.67,67.06-1.97,3.57-5.72,5.77-9.79,5.77h-22.77c0-13.84,20.18-10.68,20.18-10.68,13.76-19.79,24.7-39.91,19.03-61.98-.69-2.49-1.93-5.44-3.55-8.64,4,3.21,8.6,5.67,13.66,7.14,8.02,2.35,17.01,2.75,26.9,1.32h.01Z"/>
          <path class="cls-6" d="M471.64,458.94h26.27c3.02,0,5.42-2.54,5.24-5.56l-5.06-86.55c-19.47-1.78-33.72-14.67-34.61-39.93-.31-8.83-5.77-16.86-14.07-19.86-7.8-2.82-13.87,.12-18.46,7.99-5.04,8.64-6.6,18.96-4.5,28.74,2.86,13.34,12.77,31.07,44.62,35.54,4.76,.67,8.65,4.13,9.94,8.76l12.09,64.24s-17.2-6-23.95,.82c-2.12,2.15-.52,5.81,2.49,5.81h0Z"/>
          <path class="cls-1" d="M480.45,386.51c.46-2.41,.66-4.86,.55-7.37-.03-.58,.83-.66,.98-.13,1.21,4.21,3.3,8.77,7.4,10.77-1.14-4.47-.38-9.14,.26-13.65,.06-.43,.74-.48,.91-.12,1.74,3.53,2.28,7.32,2.09,11.16,.98-2.26,1.79-4.58,2.36-6.98,.81-3.39,1.15-6.87,1.25-10.35,.01-.49,.68-.69,.93-.25,.36,.62,.75,1.24,1.17,1.84l-.27-4.6c-19.47-1.78-33.72-14.67-34.61-39.93-.31-8.83-5.77-16.86-14.07-19.86-7.8-2.82-13.87,.12-18.46,7.99-5.04,8.64-6.6,18.96-4.5,28.74,2.86,13.34,12.77,31.07,44.62,35.54,4.2,.59,7.73,3.37,9.38,7.2h.01Z"/>
          <path class="cls-16" d="M266.55,243.29c0,6.33-7.67,15.8-16.33,15.8s-15.03-9.48-15.03-15.8,7.02-11.46,15.68-11.46,15.68,5.13,15.68,11.46Z"/>
          <path class="cls-16" d="M261.85,242.42c0,4.97-6.02,12.4-12.82,12.4s-11.79-7.44-11.79-12.4,5.51-8.99,12.3-8.99,12.3,4.03,12.3,8.99h.01Z"/>
          <path class="cls-9" d="M254.08,236.4c.05,1.23-2.76,3.21-6.02,3.35-3.26,.14-5.74-1.6-5.79-2.84s2.55-2.35,5.81-2.49c3.26-.14,5.95,.75,6,1.98h0Z"/>
          <g>
            <path class="cls-16" d="M295.18,223.38c0-.19-.02-.39-.04-.58-.09-.9-.35-1.85-1.05-2.43-.73-.6-1.82-.64-2.67-.24-.85,.4-1.48,1.19-1.85,2.06-.72,1.7-.94,4.23-.02,5.89,.52,.94,1.57,1.64,2.63,1.48,.6-.09,1.14-.45,1.54-.91s.67-1.02,.88-1.59c.43-1.18,.63-2.44,.58-3.69h0Z"/>
            <path class="cls-16" d="M317.42,223.38c0-.19-.02-.39-.04-.58-.09-.9-.35-1.85-1.05-2.43-.73-.6-1.82-.64-2.67-.24-.85,.4-1.48,1.19-1.85,2.06-.72,1.7-.94,4.23-.02,5.89,.52,.94,1.57,1.64,2.63,1.48,.6-.09,1.14-.45,1.54-.91s.67-1.02,.88-1.59c.43-1.18,.63-2.44,.58-3.69h0Z"/>
          </g>
        </g>
        <g>
          <path class="cls-7" d="M584.94,464.15v-13.19c28.73-67.59,12.93-130.13-7.89-204.56-.86-3.09-1.73-6.2-2.61-9.34,168.67,144.17,10.5,227.09,10.5,227.09Z"/>
          <path class="cls-7" d="M584.94,459.34v-8.38c28.73-67.59,12.93-130.13-7.89-204.56,129.64,118.61,37.03,193.85,7.89,212.94Z"/>
          <path class="cls-16" d="M584.94,464.16s11-5.77,24.11-16.91c-1.71-5.43-4.2-10.62-6.92-15.59-2.19-4-4.55-7.9-6.9-11.8-2.46,10.29-5.83,20.64-10.28,31.11v13.19h0Z"/>
          <g>
            <g>
              <path class="cls-7" d="M522.3,145.2l-3.02-4.13-14.1-19.27s7.6-21.8,25.97-60.7c1.05-2.22,2.13-4.5,3.25-6.83,0,0,23.23,51.35-12.1,90.94h0Z"/>
              <path class="cls-22" d="M519.27,141.07l-14.1-19.27s7.6-21.8,25.97-60.7c4.7,15.07,11.79,50.24-11.87,79.97Z"/>
            </g>
            <g>
              <path class="cls-7" d="M504.16,139.1l-4.74-1.93-22.11-9.02s-4.96-22.54-9.71-65.31c-.27-2.44-.55-4.95-.81-7.52,0,0,46.7,31.55,37.37,83.78h0Z"/>
              <path class="cls-22" d="M499.42,137.16l-22.11-9.02s-4.96-22.54-9.71-65.31c11.9,10.37,36.37,36.6,31.81,74.33h.01Z"/>
            </g>
          </g>
          <path class="cls-7" d="M535.2,398.22c-1.59-4.4-4.54-8.26-8.59-10.62-25.39-14.82-57,42.75,12.22,68.54,0,0-45.82-21.27-50.16,2.13-.57,3.07,1.89,5.88,5.01,5.88h57.22c3.98,0,6.75-3.95,5.4-7.69l-21.11-58.24h0Z"/>
          <path class="cls-7" d="M535.2,398.22c-1.59-4.4-4.54-8.26-8.59-10.62-25.39-14.82-57,42.75,12.22,68.54,0,0-45.82-21.27-50.16,2.13-.57,3.07,1.89,5.88,5.01,5.88h57.22c3.98,0,6.75-3.95,5.4-7.69l-21.11-58.24h0Z"/>
          <path class="cls-7" d="M449.9,361.45l17.43,93.29s-17.32-1.67-23.67,4.81c-1.69,1.72-.5,4.62,1.91,4.62h25.7c2.84,0,5.14-2.3,5.14-5.14v-103.22l-26.51,5.65h0Z"/>
          <path class="cls-7" d="M468.86,402.59c2.48,1.82,5.02,3.56,7.55,5.31v-52.11l-26.51,5.65,5.4,28.91c3.88,4.71,8.65,8.64,13.56,12.24Z"/>
          <path class="cls-7" d="M576.19,464.15h-43.36c-27.45-42.1-64.37-67.96-87-97.92-12.98-17.17-15.97-39.89-8.08-59.91l19.46-49.47c-2.66,.76-5.28,1.66-7.84,2.7-.49,.2-.97,.4-1.45,.61,.21-.63,.44-1.26,.68-1.88,2.33-6.11,5.9-11.75,10.42-16.49-3.16,1.91-6.16,4.09-8.96,6.5,2.45-7.11,6.02-13.83,10.54-19.84,1.72-2.29,3.62-4.52,6.04-6.06-3.14,.53-6.19,1.53-9.03,2.97,.17-.34,.35-.68,.53-1.01,.15-.28,.31-.55,.48-.81,4.31-7.13,11.94-11.77,18.44-17.16l.16-.41c-18.05,1.48-33.61,.77-46.26-2.09-6.45-1.44-12.14-3.45-17.01-6-10.91-5.72-17.72-14.17-19.76-25.26-1.55-8.43,3.56-16.06,10.98-18.77,.37,.02,.74,.06,1.11,.11,13.01,1.76,28.77,1.99,37.03,1.96,1.4,0,2.73-.36,3.9-1.01h3.27c3.35,0,6.35-2.06,7.59-5.18,3.19-8.15,10.08-23.76,18.07-30.32,3.49-2.87,7.34-4.78,11.3-5.84,16.18-4.32,34.28,5.62,38.02,23.67l64.24,310.32c1.77,8.56-4.77,16.58-13.51,16.58h0Z"/>
          <path class="cls-7" d="M582.53,448.56l-64.24-310.32c-3.19-15.41-16.85-24.91-30.85-24.66-3.96,1.06-7.81,2.97-11.3,5.84-7.99,6.56-14.88,22.17-18.07,30.32-1.24,3.12-4.24,5.18-7.59,5.18h-.21c-1.67,0-3.31,.32-4.93,.74-.65,.17-1.34,.26-2.04,.26-8.26,.03-24.02-.2-37.03-1.96-.37-.05-.74-.09-1.11-.11-7.42,2.71-12.53,10.34-10.98,18.77,2.04,11.09,8.85,19.54,19.76,25.26,4.87,2.55,10.56,4.56,17.01,6,12.65,2.86,28.21,3.57,46.26,2.09l-.02,.04c3.14-.72,6.13-2,9.06-3.33,1.84-.84,3.71-1.6,5.55-2.44,1.82-.83,3.63-1.68,5.54-2.29,2.67-.85,5.9-1.26,8.49,.08,2.06,1.06,2.87,3.22,2.27,5.43-.86,3.17-3.61,5.71-6.06,7.73-2.76,2.26-5.83,4.1-9.06,5.61-6.52,3.05-13.47,4.59-20.52,5.86-2.58,.46-5.19,.9-7.82,1.23-1.52,1.34-2.84,2.93-4.06,4.55-4.52,6.01-8.09,12.73-10.54,19.84,2.8-2.41,5.8-4.59,8.96-6.5-4.52,4.74-8.09,10.38-10.42,16.49-.24,.62-.47,1.25-.68,1.88,.48-.21,.96-.41,1.45-.61,2.56-1.04,5.18-1.94,7.84-2.7l-19.46,49.47c-7.89,20.02-4.9,42.74,8.08,59.91,22.63,29.96,59.55,55.82,87,97.92h41.32c5.98-2.38,9.78-8.82,8.38-15.59h.02Z"/>
          <path class="cls-16" d="M589.01,454.16c-1.02-1.53-2.13-3.01-3.17-4.53-1.27-1.85-2.55-3.69-3.84-5.53-5.16-7.37-10.41-14.67-15.59-22.03-2.41-3.42-4.87-6.83-7.16-10.33-1.47-2.24-2.72-4.62-3.94-7-2.17-4.23-4.27-8.94-8.02-12.02-4.26-3.49-10.02-3.2-15.01-1.65-4.61,1.43-8.77,4.2-11.17,8.47-2.2,3.92-2.72,8.53-2.39,12.96,.37,4.9,1.78,9.74,3.72,14.24,1.86,4.31,4.24,8.45,7.19,12.11,.27,.34,.1,.82-.35,.85-2.22,.15-4.43,.38-6.62,.78-2.02,.37-4.09,.88-6.04,1.67,5.62,6.85,11.07,14.14,16.19,21.99h43.37c6.23,0,11.33-4.1,13.11-9.55-.1-.15-.19-.3-.29-.44h.01Z"/>
          <g>
            <path class="cls-16" d="M430.51,166.72c-1.65,0-1.65,2.56,0,2.56s1.65-2.56,0-2.56Z"/>
            <path class="cls-16" d="M432.88,163.32c-1.65,0-1.65,2.56,0,2.56s1.65-2.56,0-2.56Z"/>
            <path class="cls-16" d="M435.33,167.2c-1.65,0-1.65,2.56,0,2.56s1.65-2.56,0-2.56Z"/>
          </g>
          <path class="cls-16" d="M500.38,170.89c-1.91-.54-3.88-.42-5.63,.23,4.71,5.62,3.83,14.22-2.27,18.62-6.43,4.65-14.44,1.29-21.6,1.44-7.94,.16-14.41,5.77-21.44,8.72-6.57,2.77-13.65,4.08-20.73,3.98-5.59-1.26-10.54-2.99-14.76-5.21,5.09,1.68,10.45,2.5,15.82,2.46,6.86-.05,13.76-1.49,20-4.39,6.26-2.91,12-7.37,19.04-8.19,3.51-.42,7.01,.18,10.5,.59,3.4,.41,7.11,.71,10.28-.87,6.01-3.03,7.12-10.94,2.7-15.74-1.18,.95-2.14,2.22-2.7,3.75-.26,.7-.94,1.17-1.7,.96-.68-.18-1.23-1-.97-1.7,.96-2.62,2.76-4.89,5.2-6.28,2.71-1.54,6.01-1.9,9-1.05,1.73,.49,.99,3.17-.73,2.67h-.01Z"/>
          <g>
            <path class="cls-16" d="M472.04,149.98c0-.21-.02-.42-.04-.63-.1-.98-.38-2.02-1.15-2.64-.79-.65-1.98-.7-2.91-.26s-1.61,1.3-2.01,2.25c-.78,1.85-1.02,4.6-.02,6.41,.57,1.02,1.71,1.79,2.87,1.61,.65-.1,1.24-.49,1.68-.99,.43-.5,.73-1.11,.96-1.73,.47-1.28,.69-2.66,.63-4.02h-.01Z"/>
            <path class="cls-16" d="M496.27,149.98c0-.21-.02-.42-.05-.63-.1-.98-.38-2.02-1.15-2.64-.79-.65-1.98-.7-2.91-.26s-1.61,1.3-2.01,2.25c-.78,1.85-1.02,4.6-.02,6.41,.57,1.02,1.71,1.79,2.87,1.61,.65-.1,1.24-.49,1.68-.99,.43-.5,.73-1.11,.96-1.73,.47-1.28,.69-2.66,.63-4.02h0Z"/>
          </g>
          <path class="cls-7" d="M550.72,353.44c-.07,.04-.17,.08-.27,.14-15.57,7.88-27.81,21.06-34.61,37.13l-25.89,61.19c7.03,0,12.42,2.67,16.18,5.52,2.85,2.16,1.26,6.73-2.32,6.73h-22.06c-3.33,0-5.85-3.02-5.25-6.3l26.64-145.4,43.72,37.66,3.86,3.33h0Z"/>
          <path class="cls-7" d="M503.14,312.45l43.72,37.66c-14.71,8.37-27.94,25.28-34.42,40.6l-25.89,61.19c7.03,0,12.42,2.67,16.18,5.52,2.85,2.16,1.26,6.73-2.32,6.73h-18.66c-3.33,0-5.85-3.02-5.25-6.3l26.64-145.4h0Z"/>
          <g>
            <path class="cls-7" d="M584.94,464.15h-57.22c-3.12,0-5.58-2.8-5.01-5.88,1.42-7.66,7.28-10.53,14.53-10.93,5.62-.31,12.07,.87,17.92,2.45,3.95,1.08,7.63,2.33,10.6,3.45-51.42-23.17-36.31-65.54-15.51-67.93,3.4-.4,6.96,.28,10.4,2.29,4.04,2.36,6.99,6.22,8.58,10.62l21.11,58.24c1.35,3.74-1.42,7.69-5.4,7.69h0Z"/>
            <path class="cls-7" d="M581.25,464.15h-53.53c-3.12,0-5.58-2.8-5.01-5.88,1.42-7.66,7.28-10.53,14.53-10.93,10.31-1.17,25.55,4.78,28.52,5.9-51.42-23.17-36.31-65.54-15.51-67.93,2.24,.26,4.49,1,6.71,2.29,4.04,2.36,6.99,6.22,8.58,10.62l21.11,58.24c1.36,3.74-1.42,7.69-5.4,7.69Z"/>
          </g>
          <path class="cls-16" d="M425.34,159.89c0,6.89-8.36,17.21-17.79,17.21s-16.37-10.32-16.37-17.21,7.65-12.48,17.08-12.48,17.08,5.59,17.08,12.48h0Z"/>
        </g>
        <g>
          <g>
            <path class="cls-18" d="M450.27,415.3c-.11-.41,7.43,7.28,1.25,15.59-.97,1.3-2.93,1.28-3.87-.04h0c-.57-.81-.59-1.88-.03-2.7,1.52-2.23,4.13-7.15,2.65-12.84h0Z"/>
            <path class="cls-18" d="M451.2,428.63c-.66-.89-1.47-1.79-2.42-2.43-.4,.77-.81,1.43-1.16,1.95-.56,.82-.54,1.89,.03,2.7,.93,1.32,2.9,1.35,3.87,.04,.22-.3,.42-.6,.61-.9-.29-.47-.6-.93-.93-1.36h0Z"/>
          </g>
          <g>
            <path class="cls-18" d="M371.72,406.45l25.85-7.83c2.01-8.04,16.45-28.14,16.45-28.14-39.53,4.47-42.3,35.97-42.3,35.97h0Z"/>
            <path class="cls-18" d="M414.03,370.48s-.73,1.01-1.88,2.67c-3.97,5.73-13.02,19.23-14.58,25.47l-20.21,6.12-5.64,1.71s2.77-31.5,42.31-35.97Z"/>
            <path class="cls-5" d="M412.15,373.15c-3.97,5.73-13.02,19.23-14.58,25.47l-20.21,6.12c1.8-7.53,8.81-25.97,34.79-31.59h0Z"/>
            <g>
              <path class="cls-18" d="M420.61,413.88l-1.84-2.1-12.6-14.39s8.63-22.14,17.98-28.17c.32,.79,.63,1.57,.92,2.33,8.87,22.88,8.3,37.77-4.45,42.33h-.01Z"/>
              <path class="cls-22" d="M420.61,413.88l-1.84-2.1c-2.46-19.39-.77-33.33,6.29-40.23,8.87,22.88,8.3,37.77-4.45,42.33Z"/>
            </g>
          </g>
          <path class="cls-18" d="M400.86,443.56c-3.56,1.31-5.12,5.49-3.28,8.81,1.47,2.66,3.31,6.72,4.24,8.81,.39,.88,.57,1.83,.52,2.79l-.47,9.57s-4.7-3.16-7.17,1.11c-.56,.96,.17,2.17,1.28,2.17h7.49c.79,0,1.46-.57,1.59-1.35,.65-4.01,2.71-15.71,5.25-18.5,0,0-.77-3.63-1.14-8.09-.33-4.09-4.47-6.73-8.31-5.32h0Z"/>
          <path class="cls-18" d="M455.06,466.11l-.47,9.43c-.04,.71-.63,1.27-1.34,1.27h-10.19c-1.04,0-1.62-1.23-.94-2.02,4.55-5.35,9.51,.48,9.33-.06-.15-.45-.07-5.36-.03-7.7v-.07c0-.76-.33-1.47-.9-1.98-.49-.44-1.12-.66-1.77-.67-.86-.01-1.68-.06-2.46-.15-12.43-1.28-14.2-10.77-14.2-10.77-11.17,8.59-21.78,13.42-30.59,6.25-3.2-2.61-5.19-6.39-5.99-10.44-1.35-6.86-3.96-13.47-5.39-16.8-.61-1.42-1.01-2.24-1.01-2.24l23.53-3.48c3.12,5.97,7.41,6.86,12.87,2.69,3.63-2.77,8.01-4.5,12.58-4.39,2.65,.07,5.1,.66,7.31,1.74,8.24,4.02,11.01,14.29,6.65,22.35-3.66,6.76-2.98,9.98-2.98,9.98l5.18,5.01c.55,.54,.85,1.28,.81,2.05h0Z"/>
          <path class="cls-5" d="M450.27,451.59c-2.34,4.29-2.95,7.17-3.08,8.72-.1,1.27-.33,2.52-.83,3.69-.02,.05-.04,.11-.07,.16-12.43-1.28-14.2-10.77-14.2-10.77-11.17,8.59-21.78,13.42-30.59,6.25-3.2-2.61-5.19-6.39-5.99-10.44-1.35-6.86-3.96-13.47-5.39-16.8l20.66-3.06c3.19,6.09,7.6,6.9,13.22,2.43,2.48-1.97,5.36-3.42,8.49-3.89,4.1-.61,7.84-.07,11.05,1.5,8.17,3.98,11.08,14.24,6.73,22.21h0Z"/>
          <path class="cls-18" d="M394.47,442.16c.88-1.12,2.35-1.78,3.64-2.3,2.19-.89,4.62-1.26,6.66-2.5,2-1.21,3.5-3.77,3.08-6.17-.28-1.62-1.58-2.68-3-3.36l-15.76,2.33s2.77,5.74,4.89,12.94c.09-.32,.23-.63,.48-.94h0Z"/>
          <path class="cls-18" d="M437.06,441.21c-3.6,3.03-5.57,7.82-5.14,12.51,.08,.86,1.43,.86,1.35,0-.4-4.37,1.39-8.73,4.75-11.56,.66-.56-.29-1.51-.95-.95h0Z"/>
          <path class="cls-18" d="M411.53,443.56c-3.56,1.31-5.12,5.49-3.28,8.81,1.47,2.66,3.31,6.72,4.24,8.81,.39,.88,.57,1.83,.52,2.79l-.47,9.57s-4.7-3.16-7.17,1.11c-.56,.96,.17,2.17,1.28,2.17h7.49c.79,0,1.46-.57,1.59-1.35,.65-4.01,2.71-15.71,5.25-18.5,0,0-.77-3.63-1.14-8.09-.33-4.09-4.47-6.73-8.31-5.32h0Z"/>
          <path class="cls-18" d="M422.96,412.57c-.87,19.26-22.04,20.9-22.04,20.9-4,.81-7.95,1.54-11.73,1.95-2.84,.31-5.58,.45-8.16,.31-2.69-.13-5.22-.57-7.51-1.41-4.2-1.55-7.62-4.46-9.85-9.42-1.07-2.37,.71-5.06,3.31-5.06h5.25c-1.08-2.26-1.68-4.71-1.68-7.27,0-10.84,10.66-19.74,24.2-20.53,.66-.05,1.33-.07,2-.07,14.48,0,26.72,9.24,26.21,20.6h0Z"/>
          <path class="cls-5" d="M418.9,412.57c-.87,19.26-22.04,20.9-22.04,20.9-4,.81-7.95,1.54-11.73,1.95-1.4,.15-2.76,.26-4.1,.31-2.69-.13-5.22-.57-7.51-1.41-4.2-1.55-7.62-4.46-9.85-9.42-1.07-2.37,.71-5.06,3.31-5.06h5.25c-1.08-2.26-1.68-4.71-1.68-7.27,0-10.84,10.66-19.74,24.2-20.53,13.56,.82,24.64,9.71,24.15,20.53h0Z"/>
          <g>
            <path class="cls-9" d="M407.06,426.15c-.12-.08-.28-.07-.42-.06-.18,0-.37,.03-.55,.05-.82,.12-1.61,.41-2.32,.86-.06,.04-.1,.14-.05,.21,.04,.06,.1,.11,.15,.17v.06c.33,.6,.77,1.15,1.29,1.61,.12,.11,.25,.21,.38,.31,.14,.11,.29,.23,.46,.28,.34,.1,.55-.15,.68-.42,.33-.68,.52-1.42,.56-2.17,.01-.27,.09-.72-.18-.89h0Z"/>
            <path class="cls-9" d="M403.99,427.12c-.12-.08-.28-.07-.42-.06-.18,0-.37,.03-.55,.05-.82,.12-1.61,.41-2.32,.86-.06,.04-.1,.14-.05,.21,.04,.06,.1,.11,.15,.17v.06c.33,.6,.77,1.15,1.29,1.61,.12,.11,.25,.21,.38,.31,.14,.11,.29,.23,.46,.28,.34,.1,.55-.15,.68-.42,.33-.68,.52-1.42,.56-2.17,.01-.27,.09-.72-.18-.89h0Z"/>
            <path class="cls-9" d="M401.42,428.69c-.12-.08-.28-.07-.42-.06-.18,0-.37,.03-.55,.05-.82,.12-1.61,.41-2.32,.86-.06,.04-.1,.14-.05,.21,.04,.06,.1,.11,.15,.17v.06c.33,.6,.77,1.15,1.29,1.61,.12,.11,.25,.21,.38,.31,.14,.11,.29,.23,.46,.28,.34,.1,.55-.15,.68-.42,.33-.68,.52-1.42,.56-2.17,.01-.27,.09-.72-.18-.89h0Z"/>
          </g>
          <path class="cls-16" d="M373.17,422.04c0,2.49-3.02,6.22-6.43,6.22s-5.91-3.73-5.91-6.22,2.76-4.51,6.17-4.51,6.17,2.02,6.17,4.51h0Z"/>
          <g>
            <path class="cls-18" d="M375.36,426.14c-.87,0-.87,1.35,0,1.35s.87-1.35,0-1.35Z"/>
            <path class="cls-18" d="M376.68,422.87c-.03-.11-.09-.21-.17-.3-.05-.04-.09-.07-.14-.11-.1-.06-.22-.09-.34-.09h-.02c-.09,0-.18,.02-.26,.06-.08,.03-.16,.07-.22,.14-.07,.06-.11,.13-.14,.22-.04,.08-.06,.17-.06,.26l.02,.18c.03,.11,.09,.21,.17,.3,.05,.04,.09,.07,.14,.11,.1,.06,.22,.09,.34,.09h.02c.09,0,.18-.02,.26-.06,.08-.03,.16-.07,.22-.14,.07-.06,.11-.13,.14-.22,.04-.08,.06-.17,.06-.26,0-.06-.02-.12-.02-.18Z"/>
            <path class="cls-18" d="M378.24,426.29c-.87,0-.87,1.35,0,1.35s.87-1.35,0-1.35Z"/>
          </g>
          <g>
            <path class="cls-16" d="M384.75,413.78c0-.13-.01-.27-.03-.4-.06-.62-.24-1.28-.72-1.67-.5-.41-1.25-.44-1.84-.16s-1.02,.82-1.27,1.42c-.49,1.17-.65,2.91-.01,4.05,.36,.65,1.08,1.13,1.81,1.02,.41-.06,.78-.31,1.06-.62,.27-.32,.46-.7,.6-1.09,.3-.81,.43-1.68,.4-2.54h0Z"/>
            <path class="cls-16" d="M400.06,413.78c0-.13-.01-.27-.03-.4-.06-.62-.24-1.28-.72-1.67-.5-.41-1.25-.44-1.84-.16s-1.02,.82-1.27,1.42c-.49,1.17-.65,2.91-.01,4.05,.36,.65,1.08,1.13,1.81,1.02,.41-.06,.78-.31,1.06-.62,.27-.32,.46-.7,.6-1.09,.3-.81,.43-1.68,.4-2.54h0Z"/>
          </g>
          <path class="cls-16" d="M413.18,419.66c-.18,.3-.62,.44-.92,.24-.54-.35-1.12-.5-1.7-.5,.85,2.98-.68,6.04-3.51,7.3-1.71,.77-3.62,.97-5.3,1.8-1.7,.85-3.07,2.2-4.58,3.32-2.44,1.81-5.14,2.95-7.98,3.6-5.8,.64-11.18,.55-15.67-1.1,.13-.1,.3-.14,.49-.11,7.35,1.06,15.48,1.28,21.87-3.11,1.4-.97,2.64-2.16,4.06-3.09,1.33-.88,2.77-1.35,4.29-1.78,1.5-.42,3.12-.86,4.16-2.12,1.02-1.24,1.28-2.88,.85-4.4-.35,.18-.67,.41-.95,.72-.24,.28-.7,.25-.95,0-.27-.26-.24-.68,0-.95,1.41-1.57,3.82-1.89,5.6-.74,.3,.19,.43,.59,.24,.92h0Z"/>
        </g>
      </g>
    </g>
  </g>
</svg>