<?xml version="1.0" encoding="UTF-8"?>
<svg id="Layer_2" data-name="Layer 2" xmlns="http://www.w3.org/2000/svg" viewBox="0 0 643.26 743.31">
  <defs>
    <style>
      .cls-1 {
        fill: #30211f;
      }

      .cls-2 {
        fill: #eacea4;
      }

      .cls-3, .cls-4 {
        fill: #fff;
      }

      .cls-5 {
        fill: #b2937f;
      }

      .cls-6 {
        fill: #e0ba99;
      }

      .cls-4 {
        opacity: .17;
      }

      .cls-7 {
        fill: #ffe0b6;
      }

      .cls-8 {
        fill: #e9f1f4;
      }

      .cls-9 {
        fill: #ceaa8e;
      }

      .cls-10 {
        fill: #593e39;
      }

      .cls-11 {
        fill: #e29088;
      }

      .cls-12 {
        fill: #ffa599;
      }

      .cls-13 {
        fill: #7295a0;
      }
    </style>
  </defs>
  <ellipse class="cls-13" cx="380.03" cy="707.16" rx="239.01" ry="36.15"/>
  <path class="cls-6" d="M205.55,628.28c-20.25-3.09-39.34-15.52-48.5-33.85-8.67-17.35-7.98-37.67-8-57.06-.02-17.18-.79-34.61-5.91-51.01-5.12-16.4-15.07-31.87-29.91-40.54-12.19-7.12-35.14-13.05-49.23-13.84-11.47-.64-72.65,5.49-62.96,39.52,6.94,24.38,40.51,16.75,43.86,15.77,17.98-5.22,37.55,6.09,47.48,21.97,9.93,15.88,12.26,35.24,13.48,53.93,1.21,18.69,1.63,37.85,8.43,55.3,4.85,12.45,12.78,23.52,21.87,33.31,8.28,8.92,17.79,17.03,29.1,21.53,9.98,3.97,20.88,4.95,31.6,5.6,16.96,1.02,34.16,1.28,50.72-2.52,16.56-3.8,32.57-12.04,43-25.45,5.63-7.24,9.56-16.19,9.1-25.35-.46-9.16-5.99-18.34-14.63-21.42-14.46-5.16-25.77-8.07-33.42,.44-18.2,20.22-30.17,26.07-46.06,23.65Z"/>
  <g>
    <path class="cls-2" d="M192.8,624.96c-11.19-4.06-21.35-11-28.77-20.15-9.61,14.45-21.62,27.31-35.43,37.83,2.47,3.17,5.08,6.23,7.81,9.16,4.36,4.7,9.06,9.16,14.19,13,18-7.67,32.41-22.46,42.2-39.84Z"/>
    <path class="cls-2" d="M76.19,433.49c-4.33-.78-8.4-1.3-11.93-1.49-3.89-.22-13.52,.35-24.16,2.52,6.36,16.85-2.09,35.89-4.2,54.36,4.72-.46,8.28-1.31,9.26-1.59,4.08-1.18,8.25-1.51,12.36-1.13,7.5-15.96,13.49-32.63,17.83-49.72,.25-.98,.51-1.98,.83-2.95Z"/>
    <path class="cls-2" d="M119.39,592.43c11.13-3.35,22.27-6.71,33.4-10.06-2.95-10.95-3.41-22.64-3.47-34.26-1.25,.73-2.52,1.42-3.79,2.08-8.87,4.62-18.2,8.37-27.81,11.17-3.83,1.12-7.77,2.12-11.49,3.55,.62,9.89,1.08,19.9,2.44,29.69,3.65-.32,7.38-1.18,10.72-2.18Z"/>
    <path class="cls-2" d="M148.59,515.19c-.76-9.78-2.26-19.47-5.18-28.82-4.5-14.42-12.73-28.11-24.74-37.1,3.4,12.81-3.7,26.24-12.68,36.04-5.66,6.18-12.17,11.63-18.07,17.57,1.74,2.02,3.33,4.15,4.73,6.38,4.36,6.97,7.25,14.61,9.23,22.57,11.46-3.83,22.74-8.18,33.88-12.85,4.01-1.68,8.52-3.33,12.83-3.79Z"/>
    <path class="cls-2" d="M247.84,676.41c11.07-2.54,21.89-7.08,30.97-13.8-5.27-21.04-13.18-41.74-23.8-60.69-1.1,.73-2.14,1.63-3.12,2.72-10.23,11.36-18.49,18.19-26.58,21.56,4.47,17.24,8.29,34.64,11.46,52.17,3.72-.48,7.41-1.11,11.08-1.95Z"/>
  </g>
  <path class="cls-9" d="M621.38,447.08c13.08,4.57,21.23,18.65,21.84,32.5,.37,8.47-1.61,16.85-3.69,25.07-11.15,44.12-25.35,87.47-42.45,129.63-7.53,18.57-16.28,37.76-32.3,49.78-8.77,6.58-19.42,10.64-30.35,11.55-7.3,.61-15.23-.37-20.75-5.19-8.2-7.17-8.19-19.77-6.91-30.59,6.53-55.25,28.85-107.7,57.9-155.15,4.58-7.49,9.34-14.95,12.89-22.99,3.14-7.12,3.67-14.61,6.19-21.78,4.77-13.53,25.37-17.12,37.64-12.84Z"/>
  <path class="cls-9" d="M565.07,722.45c6.44,2.94,14.78,5.6,19.94,.75,1.32-1.3-1.91-3.71-3.8-4.44,5.26,2.02,10.43,2.41,15.08-.76,2.8-1.83,.1-5.34-2.17-7.04,3.42,2.51,7.74,.64,8.11-3.16,.37-3.8-2.49-7.1-5.37-9.61-19.31-16.76-46.55-20.05-69.86-30.55-6.43-2.9-12.63-6.38-19.33-8.57-10.03-3.28-21.03-3.52-31.2-.69-2.22,.62-4.47,1.42-6.22,2.93-16.04,13.88,25.84,28.12,32.91,31.62,20.48,10.17,41.13,20.01,61.92,29.52Z"/>
  <path class="cls-2" d="M251.74,449.01c-10.53,39.85-2.4,63.72,.53,104.84,2.93,41.11,20.3,83.09,54.16,106.58,16.21,11.25,35.24,17.7,54.29,22.85,40.66,10.98,76.64,18.03,118.27,11.61,99.3-15.31,123.12-137.26,122.94-186.65-.17-49.39-7.26-98.45-12-147.6-2.65-27.49-4.68-55.52-14.8-81.22-19.5-49.55-70.5-84.98-123.74-85.97-38.14-.71-75.76,16.29-101.85,43.86-29.47,31.15-41.93,69.48-61.82,113.77-11.35,25.26-28.92,71.17-35.99,97.94Z"/>
  <path class="cls-2" d="M349.76,12.17c3.47-5.35,7.81-11.08,14.12-12.04,3.6-.55,7.27,.62,10.49,2.31,12.25,6.43,19.06,19.75,24.38,32.51,7.34,17.61,13.42,36.37,12.18,55.41-1.28,19.62-10.32,38.1-22.4,53.6-12.08,15.5-27.15,28.38-42.22,41.01-8.21,6.88-16.74,13.87-26.94,17.15-12.39,3.97-25.69,2.6-25.67-11.8,.03-14.46,2.15-29.42,4.44-43.67,4.97-30.91,14.11-61.15,27.07-89.65,7.06-15.52,15.26-30.52,24.54-44.83Z"/>
  <path class="cls-6" d="M337.76,95.07c.61-35.9,12.94-59.38,18.55-78.26,1.25-4.2,5.4-10.6,8.51-16.79-.31,.02-.63,.05-.94,.1-6.31,.96-10.64,6.68-14.12,12.04-9.28,14.3-17.48,29.31-24.54,44.83-12.97,28.5-22.1,58.74-27.07,89.65-2.29,14.25-4.42,29.21-4.44,43.67-.03,14.4,13.28,15.78,25.67,11.8,10.2-3.27,18.73-10.27,26.94-17.15,.36-.3,.72-.61,1.08-.91,3.74-13.67-16.41-22.83-16.21-37.15,.41-29.75,6.08-22.96,6.57-51.83Z"/>
  <path class="cls-2" d="M533.89,10.98c3.87-5.08,8.62-10.46,14.99-10.94,3.63-.27,7.2,1.16,10.29,3.1,11.73,7.34,17.51,21.13,21.85,34.26,5.99,18.12,11.11,43.52,14.28,64.62,2.91,19.44-19.49,28.76-32.71,43.31-13.22,14.54-29.22,26.25-45.2,37.69-8.71,6.24-17.74,12.57-28.16,15.06-12.65,3.02-25.82,.65-24.7-13.71,1.12-14.41,4.37-29.17,7.73-43.21,7.3-30.45,18.69-59.91,33.78-87.34,8.22-14.94,17.53-29.28,27.86-42.84Z"/>
  <path class="cls-6" d="M534.15,50.69c1.05-11.68,2.12-23.49,5.92-34.59,1.42-4.15,6.19-10.16,9.75-16.1-.31,0-.63,0-.94,.03-6.36,.48-11.12,5.86-14.99,10.94-10.34,13.56-19.65,27.9-27.86,42.84-15.09,27.44-26.48,56.9-33.78,87.34-3.36,14.03-6.61,28.79-7.74,43.21-1.12,14.36,12.05,16.74,24.7,13.71,10.42-2.49,19.45-8.82,28.16-15.06,.38-.27,.77-.55,1.15-.83,4.77-13.35,6.36-28.32,7.64-42.59,2.66-29.64,5.32-59.27,7.98-88.91Z"/>
  <path class="cls-2" d="M332.3,97.27c-23.19,29.49-36.84,66.36-38.45,103.83-.81,18.8,1.46,38.09,9.66,55.03,11.95,24.67,35.63,42.2,61.33,51.74,25.7,9.54,53.47,11.91,80.87,12.72,39.22,1.16,79.84-1,115.07-18.25,35.24-17.25,88.92-101.96,39.55-192-25.46-46.43-86.16-75.66-132.28-73.35-54.06,2.71-103.59,19.37-135.76,60.28Z"/>
  <g>
    <path class="cls-8" d="M428.1,126.5c.65,2.86,.99,5.83,.99,8.88,0,22.04-17.86,39.9-39.9,39.9-14.71,0-27.56-7.96-34.48-19.81,4.04,17.76,19.92,31.02,38.91,31.02,22.04,0,39.9-17.86,39.9-39.9,0-7.33-1.98-14.19-5.42-20.09Z"/>
    <g>
      <circle class="cls-3" cx="394.12" cy="147.9" r="39.9" transform="translate(-23.44 94.51) rotate(-13.28)"/>
      <path class="cls-6" d="M394.12,189.11c-22.72,0-41.21-18.49-41.21-41.21s18.49-41.21,41.21-41.21,41.21,18.49,41.21,41.21-18.49,41.21-41.21,41.21Zm0-79.8c-21.28,0-38.59,17.31-38.59,38.59s17.31,38.59,38.59,38.59,38.59-17.31,38.59-38.59-17.31-38.59-38.59-38.59Z"/>
      <path class="cls-10" d="M422.69,149.48c0,14.42-11.69,26.11-26.11,26.11s-26.11-11.69-26.11-26.11,11.69-26.11,26.11-26.11,26.11,11.69,26.11,26.11Z"/>
      <path class="cls-1" d="M397.13,172.74c2.96-7.73,5.48-15.72,6.24-23.97,.75-8.25-.35-16.82-4.28-24.11,.13,0-2.55,2.62-2.72,2.85-1.18,1.57-1.52,4.37-1.97,6.25-1.02,4.29-1.59,8.68-1.73,13.09-.13,4.41,.17,8.83,.92,13.17,.39,2.25,.89,4.48,1.51,6.68,.3,1.05,2.37,5.15,2.04,6.03Z"/>
      <path class="cls-3" d="M374.89,150.93c.15,.86,.35,1.73,.81,2.47,.46,.74,1.2,1.35,2.07,1.45,1.29,.14,2.46-.89,2.97-2.09,.51-1.19,.53-2.53,.65-3.82,.32-3.45,1.45-6.83,3.26-9.79,3.06-4.99-4.43-3.9-6.41-1.14-2.67,3.71-4.13,8.4-3.35,12.91Z"/>
    </g>
    <path class="cls-3" d="M387.98,134.08c1.02,.15,2.07-.28,2.85-.96,.78-.68,1.33-1.57,1.82-2.48,.26-.48,.48-1.12,.1-1.51-.13-.14-.32-.21-.51-.27-1.67-.5-4.61,.12-5.74,1.58-1.07,1.38-.33,3.36,1.48,3.63Z"/>
  </g>
  <g>
    <path class="cls-8" d="M577.76,125.11c.62,2.71,.94,5.53,.94,8.42,0,20.9-16.94,37.83-37.84,37.83-13.95,0-26.13-7.55-32.69-18.78,3.83,16.84,18.89,29.41,36.89,29.41,20.9,0,37.83-16.94,37.83-37.83,0-6.95-1.87-13.46-5.14-19.05Z"/>
    <g>
      <circle class="cls-3" cx="545.54" cy="145.4" r="37.83" transform="translate(361.83 679.26) rotate(-85.93)"/>
      <path class="cls-6" d="M545.54,184.47c-21.55,0-39.08-17.53-39.08-39.08s17.53-39.08,39.08-39.08,39.08,17.53,39.08,39.08-17.53,39.08-39.08,39.08Zm0-75.67c-20.18,0-36.59,16.42-36.59,36.59s16.42,36.59,36.59,36.59,36.59-16.42,36.59-36.59-16.42-36.59-36.59-36.59Z"/>
      <path class="cls-10" d="M572.62,146.9c0,13.67-11.08,24.76-24.76,24.76s-24.76-11.09-24.76-24.76,11.08-24.76,24.76-24.76,24.76,11.09,24.76,24.76Z"/>
      <path class="cls-1" d="M548.39,168.96c2.81-7.33,5.2-14.91,5.91-22.73,.72-7.82-.33-15.95-4.06-22.86,.12,0-2.42,2.49-2.58,2.7-1.12,1.49-1.45,4.14-1.87,5.93-.96,4.07-1.51,8.23-1.64,12.41-.13,4.18,.16,8.37,.87,12.49,.37,2.14,.84,4.25,1.44,6.34,.28,.99,2.25,4.89,1.93,5.72Z"/>
      <path class="cls-3" d="M527.3,148.27c.14,.82,.33,1.64,.77,2.35,.43,.71,1.14,1.28,1.96,1.37,1.22,.13,2.34-.85,2.82-1.98,.48-1.13,.5-2.4,.62-3.62,.31-3.28,1.37-6.48,3.09-9.28,2.9-4.73-4.2-3.7-6.08-1.08-2.54,3.52-3.92,7.96-3.18,12.24Z"/>
    </g>
    <path class="cls-3" d="M539.72,132.3c.97,.15,1.96-.27,2.7-.91,.74-.64,1.26-1.49,1.73-2.36,.24-.45,.45-1.06,.09-1.43-.13-.13-.31-.2-.48-.25-1.58-.47-4.37,.12-5.45,1.5-1.02,1.31-.31,3.19,1.41,3.45Z"/>
  </g>
  <path class="cls-6" d="M340.24,216c-8.12-4.76-17.23-9.55-20.83-18.24-1.81-4.37-1.97-9.23-1.91-13.96,.26-19.53,4.18-39.73,15.81-55.41,3.84-5.17,8.49-9.84,11.18-15.68,2.69-5.85,2.91-13.5-1.65-18.05-1.75-1.75-4.03-2.87-5.95-4.43-1.57,1.79-3.1,3.64-4.59,5.54-23.19,29.49-36.84,66.36-38.45,103.83-.81,18.8,1.46,38.09,9.66,55.03,1.27,2.62,2.68,5.16,4.21,7.63,7.39,1.89,15.62,1.19,23.2-.47,6.53-1.43,13.07-3.56,18.31-7.71,5.24-4.15,8.99-10.64,8.43-17.3-.79-9.38-9.31-16.02-17.43-20.78Z"/>
  <path class="cls-6" d="M468.07,36.99c-3.9,.2-7.78,.47-11.63,.81-2.09,2.11-4.67,3.1-8.1,4.4-5.75,2.17-11.02,5.62-15.31,10.02-1.01,1.04-1.99,2.16-2.46,3.54-1.36,4.03,2.22,8.02,5.87,10.19,5.37,3.18,11.51,4.76,17.24,7.23,5.73,2.47,11.37,6.2,13.82,11.94,2.51,5.88,1.23,12.81,3.6,18.75,2.56,6.41,9.31,10.67,16.2,11,6.89,.33,13.69-2.93,18.39-7.98,2.85-3.05,4.98-6.7,7.61-9.94,3.93-4.87,8.92-8.78,14.1-12.28,1.78-1.2,3.62-2.39,4.9-4.12,2.18-2.93,2.35-6.84,2.38-10.49,.07-6.46-.1-13.22-2.08-19.27-21.53-9.8-44.42-14.8-64.54-13.79Z"/>
  <path class="cls-10" d="M467.7,187.81c-2.22,.54-4.43,1.74-5.44,3.8-.76,1.55-.72,3.38-.38,5.08,1.06,5.27,4.77,9.62,8.79,13.19,4.02,3.57,8.52,6.66,11.99,10.77,5.34-3.74,10.32-8.01,14.84-12.71,1.91-1.99,3.78-4.1,4.88-6.64,1.1-2.53,1.8-6.24,.51-8.68-1.43-2.69-8.36-8.15-15.29-4.86-2.32,1.1-4.52,2.03-5.95,4.09-3.3-3.72-9.19-5.2-13.96-4.04Z"/>
  <path class="cls-9" d="M236.62,458.75c-23.39,56.86-17.48,123.31,8.5,179.03,10.31,22.11,30.14,38.5,51.87,49.58,21.73,11.08,46.62,13.17,60.26-7.05,9.39-13.91,9.07-32.08,7.04-48.74-7.83-64.29-35.89-124.98-73.67-177.59-7.04-9.81-18.35-23.26-32.14-21.9-12.6,1.25-17.67,16.5-21.85,26.65Z"/>
  <path class="cls-9" d="M377.36,725.12c6.44,2.95,14.78,5.6,19.94,.75,2.79-1.68-1.91-3.71-3.81-4.44,5.26,2.02,11.35,1.95,16.01-1.22,2.07-1.29-.69-5.12-3.1-6.58,2.01,3.25,7.74,.64,8.11-3.16,.37-3.8-2.49-7.1-5.37-9.61-19.31-16.76-46.55-20.05-69.86-30.55-6.43-2.9-12.63-6.38-19.33-8.57-10.03-3.28-21.03-3.52-31.2-.69-2.22,.62-4.47,1.42-6.22,2.93-16.04,13.88,25.84,28.12,32.91,31.62,20.48,10.17,41.13,20.01,61.92,29.52Z"/>
  <path class="cls-7" d="M363.94,29.15c.89-1.4,1.92-2.85,3.47-3.44,2.68-1.02,5.54,.95,7.5,3.04,6.73,7.2,9.89,16.94,12.86,26.33-13.01,9.67-25.1,20.52-38,30.27,2.43-19.42,2.84-39.21,14.17-56.22Z"/>
  <path class="cls-7" d="M546.14,23.91c-1.35,2.55-1.78,5.47-2.1,8.34-.84,7.53-1.04,15.14-.6,22.7,.05,.8,.11,1.64,.5,2.34,.4,.71,1.09,1.2,1.76,1.66,11.47,7.85,25.14,13.73,32.49,25.53-3.68-10.99-3.71-22.84-5.75-34.25-1.04-5.77-2.59-11.44-4.65-16.93-1.33-3.56-2.93-7.13-5.6-9.85-4.69-4.78-12.51-6.22-16.05,.46Z"/>
  <path class="cls-9" d="M526.82,310.65c-6.53-13.8-28.32-33.59-58.81-24.52-13.89,4.13-26.17,11.47-31.67,24.88-1.97,4.79-2.95,10.38-.75,15.07,2.2,4.69,8.51,7.59,12.86,4.77-1.9,4.02-.29,9.36,3.51,11.67,3.8,2.31,9.28,1.27,11.97-2.28-4.77,5.05,1.61,13.17,8.43,11.88,9.08-1.72,8.99-9.85,11.31-9.85,9.53,0,14.83,29.41,17.25,33.96,10.56,19.82,27.02,33.96,48.92,38.95,21.9,4.99,48.06-8.11,61.05-26.43,8.94-12.6,10.9-30.09,5.27-44.45-5.3-13.52-23.77-31.83-35.28-13.83-8.15,12.75-1.51,18.79-22.34,19.55-19.1,.7-23.99-23.06-31.7-39.37Z"/>
  <path class="cls-9" d="M357.53,422.15c-8.59,78.88,11.6,158.33,40.73,232.14,8.76,22.2,19.22,45.19,38.68,59.01,2.61,1.85,5.53,3.57,8.74,3.64,3.2,.07,6.66-2.08,6.97-5.27,4.12,4.63,13.23,2.35,14.68-3.68-.96,3.93,6.71,4.19,7.77,.28,1.06-3.91-1.95-7.62-4.61-10.67-24.26-27.82-36.65-64.49-40.48-101.2-3.83-36.71,.35-73.78,5.93-110.27,2.47-16.2,5.23-32.57,3.67-48.88-1.56-16.31-8.03-32.87-20.92-42.99-26.12-20.53-57.87-2.2-61.15,27.89Z"/>
  <path class="cls-12" d="M472.62,270.14c2.66,5.1,3.52,10.91,5.23,16.41,1.56,4.99,3.83,9.76,6.73,14.12,4.81,7.21,11.87,13.5,20.42,14.9,1.78,.29,3.69,.35,5.3-.46,2.37-1.19,3.56-4.01,3.54-6.67-.02-2.65-1.02-5.19-2.02-7.64-3.92-9.59-8.22-19.55-7.41-29.88,.21-2.69,.77-5.36,.76-8.06s-.68-5.54-2.57-7.47c-2.09-2.15-5.24-2.79-7.92-4.15-6.72-3.41-10-11.02-12.76-18.03-1.5,4.93-3.54,9.77-6.79,13.76-3.26,3.99-7.85,7.07-12.96,7.68-2.65,.32-6.77-.27-8.73,1.8,8.09,2.47,15.03,5.75,19.16,13.69Z"/>
  <path class="cls-10" d="M513.92,253.34c-.18-.64-.81-.93-1.42-.81-6.66,1.31-14.07,.61-19.84-3.19-6.32-4.17-9.05-11.73-9.59-19-.04-.54-.07-1.08-.09-1.62,.05-.28,.11-.55,.16-.83,1-5.4,1.47-10.9,1.38-16.39-.03-1.48-2.34-1.49-2.31,0,.01,.83,.01,1.67,0,2.5-.48,.14-.78,.59-.83,1.11-.43,4.41-.84,8.91-.69,13.35-.71,3.58-1.67,7.11-2.89,10.55-.7,1.98-1.56,3.96-2.86,5.64-1.25,1.61-2.86,2.92-4.52,4.08-3.44,2.4-7.25,4.23-11.27,5.42-4.53,1.34-9.25,1.85-13.96,1.51-.62-.04-1.15,.56-1.15,1.16,0,.66,.53,1.11,1.15,1.15,8.78,.63,17.77-1.66,25.17-6.43,1.87-1.2,3.7-2.55,5.24-4.16,1.56-1.63,2.71-3.54,3.58-5.6,.9-2.11,1.64-4.31,2.27-6.53,.42,2.1,1.03,4.16,1.9,6.18,1.57,3.64,3.98,6.83,7.16,9.21,2.92,2.18,6.42,3.57,9.99,4.24,4.17,.79,8.46,.69,12.62-.13,.61-.12,.96-.85,.81-1.42Z"/>
  <path class="cls-11" d="M508.97,293.41c.92,3.76,1.86,7.53,2.17,11.38,.12,1.44,.11,2.99-.73,4.16-.82,1.15-2.31,1.67-3.72,1.65-1.41-.03-2.77-.53-4.06-1.1-8.34-3.65-15.32-10.22-19.7-18.2-2.44-4.44-4.23-9.46-7.31-13.35,.79,2.85,1.45,5.77,2.33,8.59,1.56,4.99,3.83,9.76,6.73,14.12,4.81,7.21,11.87,13.5,20.42,14.9,1.78,.29,3.69,.35,5.31-.46,2.37-1.19,3.56-4.01,3.54-6.67-.02-2.65-1.02-5.19-2.02-7.64-1-2.43-2.01-4.89-2.97-7.37Z"/>
  <path class="cls-5" d="M596.15,395.62c-5.85,4.59-14.86,8.29-22.04,10.21-11.73,3.15-24.23,.6-35.74-3.25-7.87-2.63-19.06-8.27-24.4-14.61-14.95-17.73-13.81-29.87-17.05-38.2-1.13-2.89-2.48-5.77-4.66-7.98-2.17-2.21-5.31-3.68-8.37-3.17-4.24,.69-7.36,4.85-11.64,5.25-.99,.09-1.97-.17-2.86-.64-5.95-3.13-2.8-8.71-2.49-11.66-1.51,1.41-3.06,2.84-4.95,3.65-1.9,.81-4.24,.89-5.9-.33-2.03-1.49-2.43-4.36-2.19-6.86,.25-2.5,.97-5.02,.54-7.49,.38,2.17-5.15,5.31-12.6,3.69-3.25-.71-5.18-2.8-7.46-4.43-.04,2.18,.32,4.32,1.25,6.3,2.2,4.69,8.51,7.59,12.86,4.77-1.9,4.02-.29,9.36,3.51,11.67,3.6,2.18,8.69,1.36,11.51-1.73-3.86,5.06,2.3,12.58,8.89,11.33,9.08-1.72,8.99-9.85,11.31-9.85,9.53,0,15.1,29.27,17.25,33.96,12.95,28.26,30.41,34.47,49.88,38.91,21.9,4.99,48.06-8.11,61.05-26.43,5.65-7.96,7.55-17.88,7.47-27.72-6.6,18.71-11.67,25.61-23.15,34.62Z"/>
  <path class="cls-5" d="M470.46,703.92c-3.41,.83-7.36,1.18-9.2-1.81,.17,1.96,.46,3.6-1.77,4.51-2.57,.59-5.41-.09-7.42-1.79-.28,2.06-4.05,12.13-15.67-.06-19.84-20.81-31.01-53.23-42.79-79.45-5.49-12.21-25.87-80.35-33.08-103.66,7.02,45.3,20.88,89.92,37.74,132.64,8.76,22.2,19.22,45.19,38.68,59.01,2.61,1.85,5.53,3.57,8.74,3.64,3.2,.07,6.66-2.08,6.97-5.27,4.12,4.63,13.23,2.35,14.68-3.68-.96,3.93,6.71,4.19,7.77,.28,.75-2.78-.56-5.47-2.34-7.89-.35,1.39-.13,3-2.29,3.52Z"/>
  <path class="cls-5" d="M364.17,631.57c-3.07-25.19-9.26-49.82-17.9-73.64,5.18,18.41,9.1,37.18,11.7,56.13,.98,7.1,1.77,14.27,1.49,21.43-.77,20-12.71,44.58-34.26,48.39,8.18-1.44,16.88,1.69,24.77-.91,4.03-1.33,7.38-4.07,9.95-7.48,6.5-13.14,6.05-29.12,4.25-43.92Z"/>
  <g>
    <path class="cls-5" d="M546.46,686.69c-1.32,.35-2.6,.78-3.82,1.38,1.3-.38,2.57-.85,3.82-1.38Z"/>
    <path class="cls-5" d="M569.24,680.3c12.34-11.96,19.8-28.54,26.34-44.66,4.03-9.95,7.9-19.96,11.61-30.04-7.24,15.09-15.99,29.53-24.91,43.73-5.25,8.36-10.61,16.72-17.39,23.89-5.14,5.43-11.4,10.52-18.42,13.48,3.46-.9,7.16-1.16,10.59-1.99,4.21-1.01,8.35-2.41,12.19-4.4Z"/>
  </g>
  <path class="cls-4" d="M251.22,456.97c1.79,3.01,5.21,4.57,8.3,6.22,16.92,9.07,28.47,25.58,37.92,42.28,2.12,3.75,4.36,7.74,8.11,9.86,2.85-5.39,1.21-12-.84-17.75-5.51-15.42-13.6-29.91-23.83-42.69-3.55-4.43-7.57-8.81-12.87-10.81-6.81-2.57-22.58,3.13-16.79,12.88Z"/>
</svg>