<?xml version="1.0" encoding="UTF-8"?>
<svg id="Layer_2" data-name="Layer 2" xmlns="http://www.w3.org/2000/svg" viewBox="0 0 900.87 560.64">
  <defs>
    <style>
      .cls-1 {
        fill: #797f7f;
      }

      .cls-2 {
        fill: #30211f;
      }

      .cls-3 {
        fill: #fff;
      }

      .cls-4 {
        fill: #4b4f4f;
      }

      .cls-5 {
        fill: #e5cac6;
      }

      .cls-6 {
        fill: #656a6b;
      }

      .cls-7 {
        fill: #e9f1f4;
      }

      .cls-8 {
        fill: #593e39;
      }

      .cls-9 {
        fill: #7295a0;
      }
    </style>
  </defs>
  <path class="cls-9" d="M698.3,543.88c0,9.26-156.32,16.77-349.15,16.77S0,553.14,0,543.88s156.32-16.77,349.15-16.77,349.15,7.51,349.15,16.77Z"/>
  <g>
    <path class="cls-4" d="M490.83,359.93c-3.17,22,2.38,44.79,13.49,64.04,11.11,19.25,27.55,35.08,46.07,47.38,15.19,10.09,32.31,18.33,43.35,32.84,6.29,8.27,10.25,18.31,11.3,28.65,.33,3.23,.4,6.57,1.65,9.57,1.26,3,4.09,5.63,7.34,5.45,3.24-.18,5.89-4.33,3.93-6.91,.92,2.08-.16,5.86,2.77,6.24,3.95-.51,6.93-4.87,5.99-8.74,.56,1.61-.97,5.32,1.69,4.82,6.92-2.23,9.64-10.41,11.2-17.52,12.25-55.7,13.7-113.75,4.24-169.99-2.6-15.43-6.08-30.95-13.45-44.75-7.37-13.81-19.06-25.87-33.92-30.8-16.12-5.35-34.22-1.69-49.09,6.52-25.31,13.97-52.33,43.76-56.57,73.22Z"/>
    <path class="cls-4" d="M19.26,458.71c1.47,9.65,4.65,19.16,10.29,27.12,1.47,2.07,3.29,4.15,5.77,4.7,2.48,.55,5.55-1.32,5.26-3.84,1.03,2.11,3.67,3.29,5.92,2.64,3.39-1.23,1.04-3.25,1.14-4.96-.34,2.64,4.09,3.5,5.73,1.41,1.64-2.09,1.13-5.11,.36-7.65-2.66-8.74-7.49-17.92-4.33-26.5,2.05-5.56,7.09-9.45,12.28-12.3,8.96-4.92,19.12-7.64,29.34-7.86,11.47-.25,23.41,2.52,34.14-1.54,14.19-5.36,21.96-22.41,18.96-37.28-3-14.87-15.1-26.89-29.27-32.31-11.91-4.57-33.18-7.58-44.82-.76-9.44,5.53-20.49,16.42-27.77,24.83-17.46,20.16-27.1,47.65-23.02,74.3Z"/>
    <path class="cls-6" d="M35.47,268.02c2.44,31.23,5.02,63.04,16.81,92.07,17.34,42.66,54.63,76.32,98.3,90.92,24.51,8.19,50.51,10.64,76.26,12.84,96.5,8.25,194.2,13.75,289.77-1.91,21.84-3.58,44.49-8.72,61.4-23.01,16.35-13.82,25.18-34.38,32.62-54.46,6.95-18.78,13.23-38.1,14.41-58.09,1.72-29.02-7.42-57.74-20.18-83.86-6.36-13.02-13.74-25.75-23.85-36.13-26.56-27.3-67.31-34.44-105.3-37.18-54.09-3.9-108.6-1.8-162.42-8.42-19.57-2.41-39.29-6.06-56.97-14.78-16.07-7.93-29.89-19.78-45.68-28.26-39.01-20.95-85.89-19.46-129.94-15.04-18.84,1.89-48.32,8.84-53.95,30.41-2.79,10.69,.02,23.6,.86,34.36,1.24,15.87,2.48,31.75,3.73,47.62,1.38,17.64,2.76,35.28,4.14,52.91Z"/>
    <path class="cls-6" d="M479.28,314.2c-15.18,16.23-23.68,38.1-25.58,60.24s2.52,44.54,10.68,65.22c6.69,16.96,16.01,33.52,16.76,51.74,.43,10.39-2.07,20.88-7.12,29.96-1.58,2.84-3.43,5.61-4.12,8.79-.68,3.18,.14,6.96,2.9,8.67,2.77,1.71,7.31-.18,7.17-3.42-.43,2.23-3.64,5.25-1.29,6.7,3.53,1.84,8.47-.02,9.91-3.74-.46,1.64-3.27,3.54-1.37,4.91,6.96,2.13,13.86-3.02,19.21-7.96,41.91-38.67,76.32-85.45,100.74-136.99,6.7-14.14,12.72-28.86,14.58-44.4,1.86-15.54-.83-32.13-10.19-44.67-10.16-13.61-27.1-20.96-43.99-22.74-28.75-3.02-67.95,5.95-88.29,27.68Z"/>
    <path class="cls-6" d="M171.54,537.74c1.69,2.48,3.62,5.15,6.53,5.89,2.91,.74,6.61-1.93,5.58-4.75,1.21,2.78,4.28,4.63,7.3,4.39,3.36-1.69,2.95-3.32,2.44-5.83-.16,3.23,5.43,3.56,6.96,.71,1.53-2.84,.26-6.33-1.08-9.27-6.84-15.09-15.12-30.43-14.69-47,.24-9.01,3.07-17.73,4.29-26.66,2.66-19.45-2.73-39.87-14.64-55.48-11.91-15.6-30.19-26.19-49.65-28.76-22.62-2.98-53.31,11.11-39.02,37.31,15.66,28.72,36.41,55.68,54.59,82.87,10.41,15.56,20.87,31.09,31.39,46.57Z"/>
    <path class="cls-6" d="M595.04,206.62c9.36-1.24,18.74-3.64,26.71-8.7,22.91-14.55,27.53-45.35,40.63-69.12,17.02-30.89,50.2-50.71,84.81-57.46,34.61-6.75,70.59-1.71,104.54,7.82,14.48,4.07,29.39,9.36,39.53,20.48,10.13,11.11,13.59,29.67,3.79,41.08-10.69,12.45-30.1,10.71-46.27,7.9-13.79-2.4-27.58-4.8-41.36-7.19-16.34-2.84-33.68-5.6-49.09,.53-25.02,9.94-35.61,38.59-49.14,61.87-22.29,38.35-59.47,67.78-101.9,80.67-17.66,5.37-36.8,7.92-54.53,2.78-17.73-5.14-33.66-19.21-36.99-37.37-9.84-53.61,50.72-39.48,79.28-43.28Z"/>
    <path class="cls-4" d="M255.3,145.04c-39.86,45.57-101.15,71.54-161.61,68.49,12.62,5.16,26.35,6.97,39.97,7.66,36.17,1.85,72.67-3.94,106.62-16.56,24.59-9.14,51.65-22.82,66.02-44.77-19.02-4.67-35.33-6.65-50.32-15.55l-.67,.73Z"/>
    <path class="cls-6" d="M25.03,136.1c-1.65-19.69-2.84-40.29,4.98-58.44,9.81-22.77,32.26-37.68,55.34-46.74,18.94-7.44,39.08-11.83,59.4-12.96,10.07-.56,20.22-.32,30.15,1.45,22.99,4.11,44.22,16.59,59.83,33.96,15.61,17.37,25.68,39.45,29.67,62.46,2.92,16.85,2.38,35.24-6.81,49.67-5.92,9.3-14.9,16.17-23.94,22.48-11.77,8.21-24.03,15.86-37.33,21.24-28.5,11.53-60.3,12.07-90.87,8.85-23.86-2.52-49.65-8.5-64.34-27.47-11.86-15.31-14.49-35.75-16.06-54.51Z"/>
    <path class="cls-6" d="M34.75,22.2c.34-1.59,.83-3.36,2.26-4.12,.97-.52,2.14-.42,3.22-.27,11.75,1.68,21.75,9.13,31.18,16.33,4.89,3.74,9.94,7.65,12.77,13.12,11.99,23.2-26.4,73.29-47.31,71.47-26.63-2.31-5.55-80.36-2.12-96.53Z"/>
    <path class="cls-6" d="M205.9,2.25c1.14-1.15,2.52-2.38,4.13-2.24,1.09,.09,2.03,.8,2.85,1.52,8.97,7.77,35.45,63.32,34.87,69.45-2.47,25.99-55,7.37-71.59-5.48-21.14-16.36,18.1-51.5,29.74-63.25Z"/>
    <g>
      <path class="cls-7" d="M125.58,90.61c.34,1.49,.52,3.04,.52,4.62,0,11.48-9.3,20.78-20.78,20.78-7.66,0-14.35-4.15-17.95-10.31,2.1,9.25,10.37,16.15,20.26,16.15,11.47,0,20.78-9.3,20.78-20.78,0-3.82-1.03-7.39-2.82-10.46Z"/>
      <g>
        <path class="cls-3" d="M128.67,101.75c0,11.47-9.3,20.78-20.78,20.78s-20.78-9.3-20.78-20.78,9.3-20.78,20.78-20.78,20.78,9.3,20.78,20.78Z"/>
        <path class="cls-4" d="M107.89,123.21c-11.83,0-21.46-9.63-21.46-21.46s9.63-21.46,21.46-21.46,21.46,9.63,21.46,21.46-9.63,21.46-21.46,21.46Zm0-41.55c-11.08,0-20.1,9.02-20.1,20.1s9.02,20.1,20.1,20.1,20.1-9.02,20.1-20.1-9.02-20.1-20.1-20.1Z"/>
        <path class="cls-8" d="M122.77,102.58c0,7.51-6.09,13.6-13.6,13.6s-13.6-6.09-13.6-13.6,6.09-13.6,13.6-13.6,13.6,6.09,13.6,13.6Z"/>
        <path class="cls-2" d="M109.46,114.69c1.54-4.03,2.85-8.19,3.25-12.48,.39-4.29-.18-8.76-2.23-12.56,.07,0-1.33,1.37-1.42,1.49-.62,.82-.79,2.27-1.03,3.26-.53,2.23-.83,4.52-.9,6.82-.07,2.29,.09,4.6,.48,6.86,.2,1.17,.46,2.34,.79,3.48,.15,.54,1.24,2.68,1.06,3.14Z"/>
        <path class="cls-3" d="M97.87,103.33c.08,.45,.18,.9,.42,1.29,.24,.39,.63,.71,1.08,.75,.67,.07,1.28-.46,1.55-1.09,.27-.62,.28-1.32,.34-1.99,.17-1.8,.75-3.56,1.7-5.1,1.59-2.6-2.3-2.03-3.34-.59-1.39,1.93-2.15,4.37-1.75,6.72Z"/>
      </g>
      <path class="cls-3" d="M104.69,94.56c.53,.08,1.08-.15,1.48-.5,.41-.35,.69-.82,.95-1.29,.13-.25,.25-.58,.05-.79-.07-.07-.17-.11-.26-.14-.87-.26-2.4,.06-2.99,.82-.56,.72-.17,1.75,.77,1.89Z"/>
    </g>
    <g>
      <path class="cls-7" d="M226.58,68.3c.34,1.49,.52,3.04,.52,4.62,0,11.48-9.3,20.78-20.78,20.78-7.66,0-14.35-4.15-17.95-10.31,2.1,9.25,10.37,16.15,20.26,16.15,11.48,0,20.78-9.3,20.78-20.78,0-3.82-1.03-7.39-2.82-10.46Z"/>
      <g>
        <path class="cls-3" d="M229.66,79.44c0,11.48-9.3,20.78-20.78,20.78s-20.78-9.3-20.78-20.78,9.3-20.78,20.78-20.78,20.78,9.3,20.78,20.78Z"/>
        <path class="cls-4" d="M208.89,100.9c-11.83,0-21.46-9.63-21.46-21.46s9.63-21.46,21.46-21.46,21.46,9.63,21.46,21.46-9.63,21.46-21.46,21.46Zm0-41.55c-11.08,0-20.1,9.02-20.1,20.1s9.01,20.1,20.1,20.1,20.1-9.02,20.1-20.1-9.01-20.1-20.1-20.1Z"/>
        <path class="cls-8" d="M223.76,80.27c0,7.51-6.09,13.6-13.6,13.6s-13.6-6.09-13.6-13.6,6.09-13.6,13.6-13.6,13.6,6.09,13.6,13.6Z"/>
        <path class="cls-2" d="M210.45,92.38c1.54-4.03,2.85-8.19,3.25-12.48,.39-4.29-.18-8.76-2.23-12.56,.07,0-1.33,1.37-1.42,1.48-.62,.82-.79,2.27-1.03,3.26-.53,2.23-.83,4.52-.9,6.82-.07,2.3,.09,4.6,.48,6.86,.2,1.17,.46,2.34,.79,3.48,.15,.54,1.24,2.68,1.06,3.14Z"/>
        <path class="cls-3" d="M198.87,81.02c.08,.45,.18,.9,.42,1.29,.24,.39,.63,.71,1.08,.75,.67,.07,1.28-.47,1.55-1.09,.27-.62,.28-1.32,.34-1.99,.17-1.8,.75-3.56,1.7-5.1,1.59-2.6-2.3-2.03-3.34-.59-1.39,1.93-2.15,4.37-1.75,6.72Z"/>
      </g>
      <path class="cls-3" d="M205.69,72.25c.53,.08,1.08-.15,1.48-.5,.41-.35,.69-.82,.95-1.29,.13-.25,.25-.59,.05-.79-.07-.07-.17-.11-.26-.14-.87-.26-2.4,.06-2.99,.82-.56,.72-.17,1.75,.77,1.89Z"/>
    </g>
    <path class="cls-5" d="M41.83,34.11c.17-.57,.36-1.17,.78-1.59,.44-.43,1.06-.62,1.67-.69,2.31-.28,4.56,.79,6.57,1.98,4.45,2.62,8.51,5.92,11.98,9.74-4.07,3.43-8.07,6.93-12,10.52-6.09,5.55-11.6,11.52-13.08,19.88-2.75-4.96-.84-13.4-.22-18.76,.82-7.13,2.26-14.19,4.3-21.07Z"/>
    <path class="cls-5" d="M204.4,15.32c.83-.83,1.71-1.66,2.79-2.09,1.79-.72,3.89-.23,5.5,.82,1.62,1.05,2.84,2.6,3.97,4.16,7.8,10.68,13.04,23.21,15.19,36.26-13.34-7.54-23.67-19.98-37.74-26.04,3.74-4.11,6.26-9.08,10.28-13.11Z"/>
    <g>
      <path class="cls-5" d="M162.28,101.65c-1.35,.52-2.64,1.45-3.1,2.82-.35,1.03-.18,2.18,.17,3.21,1.09,3.22,3.76,5.65,6.57,7.56,2.81,1.91,5.88,3.49,8.38,5.79,3.05-2.78,5.83-5.85,8.29-9.16,1.04-1.4,2.04-2.88,2.53-4.55,.49-1.68,.63-4.06-.38-5.48-1.11-1.57-5.89-4.44-9.98-1.82-1.37,.88-2.67,1.63-3.4,3.04-2.37-2.07-6.18-2.52-9.07-1.41Z"/>
      <path class="cls-5" d="M196.52,139.04c-.16-.39-.58-.52-.96-.39-4.07,1.36-8.77,1.51-12.7-.41-4.29-2.11-6.61-6.63-7.54-11.14-.07-.34-.13-.67-.19-1.01,.01-.18,.02-.36,.04-.53,.2-3.47,.05-6.95-.45-10.38-.14-.93-1.58-.75-1.45,.19,.08,.52,.14,1.04,.2,1.57-.29,.13-.44,.43-.43,.76,.08,2.8,.19,5.65,.64,8.42-.16,2.3-.48,4.59-.97,6.84-.28,1.3-.66,2.61-1.34,3.76-.65,1.11-1.56,2.06-2.51,2.92-1.96,1.78-4.2,3.24-6.63,4.3-2.73,1.2-5.65,1.9-8.63,2.06-.39,.02-.68,.45-.63,.82,.05,.42,.42,.65,.82,.63,5.56-.31,11.01-2.46,15.27-6.05,1.07-.9,2.11-1.89,2.95-3.03,.85-1.15,1.41-2.43,1.8-3.8,.39-1.4,.68-2.83,.9-4.28,.43,1.28,.98,2.53,1.69,3.72,1.28,2.16,3.04,3.97,5.23,5.2,2,1.13,4.31,1.72,6.6,1.86,2.68,.16,5.36-.24,7.9-1.09,.37-.12,.54-.61,.39-.96Z"/>
    </g>
    <g>
      <path class="cls-1" d="M277.56,349.86c5.04-1.92,8.98-5.93,12.45-10.06,26.47-31.52,33.7-74.43,39.95-115.11,2.61-16.98,5.23-34.22,3.2-51.28-.42-3.57-1.04-7.18-1.15-10.75-5.75-.51-11.5-1.1-17.23-1.79,.69,1.67,1.54,3.32,1.93,4.85,7.04,27.35-.56,61.6-11.94,86.79-11.77,26.04-30.55,48.49-41.79,74.77-2.72,6.37-4.77,14.38-.32,19.69,3.46,4.14,9.85,4.82,14.89,2.9Z"/>
      <path class="cls-1" d="M533.55,178.74c2.84,7.34,2.78,15.81-1.07,22.63-12.7,22.5-25.78,46.4-25.3,72.23,.28,15.22,5.31,29.92,7.88,44.92,2.36,13.75,2.64,27.86,.85,41.7-.72,5.59-1.77,11.36-.2,16.77,1.57,5.41,6.81,10.28,12.34,9.21,4.5-.86,7.5-5.17,9.1-9.46,3.7-9.93,2.42-20.92,1.56-31.48-3.09-37.82-.05-76.14,8.96-113,1.78-7.28,3.82-14.58,7.38-21.17,3.25-6.01,7.68-11.28,11.61-16.88-10.04-6.83-21.27-11.81-33.12-15.47Z"/>
      <path class="cls-1" d="M387.99,253.52c2.44-8.46,7.64-15.98,9.64-24.56,1.67-7.2,.99-14.7,.73-22.09-.48-13.64,.53-27.33,2.99-40.75-15.01-.41-30.02-.89-45-1.73,1.17,20.68-9.39,41.29-7.05,62.06,1.35,12.01,6.92,23.07,10.73,34.54,7.26,21.91,8.04,45.92,2.21,68.26-5.85,22.4-18.2,43.45-18.71,66.6-.13,5.93,8.43,8.65,13.47,5.52,5.04-3.13,7.15-9.29,8.9-14.96,4.58-14.85,9.16-29.7,13.74-44.55,4.23-13.72,8.5-27.69,8.63-42.05,.13-15.51-4.56-31.39-.27-46.3Z"/>
      <path class="cls-1" d="M475.84,169.12c-9.97-.72-19.95-1.23-29.94-1.63-.19,1.26-.47,2.52-.76,3.76-3.65,15.69-8.19,31.17-13.6,46.34-4.98,13.96-10.8,28.65-7.8,43.17,2.49,12.07,10.88,22.57,11.81,34.86,.83,10.96-4.39,22.5-.17,32.65,.95,2.29,2.89,4.66,5.35,4.39,1.42-.16,2.59-1.17,3.55-2.22,7.61-8.36,7.73-21.04,6-32.21-1.73-11.17-4.88-22.59-2.27-33.59,3.15-13.32,14.02-23.21,21.01-34.97,6.05-10.18,9.24-22.04,9.09-33.88-.11-8.72-1.55-18.6,1.1-26.41-1.12-.09-2.24-.17-3.36-.25Z"/>
    </g>
    <g>
      <path class="cls-1" d="M791.88,68.56c-6.6-.37-13.21-.43-19.8-.14,.81,7.26-.87,14.9-2.34,22.19-3.22,16.03-5.18,32.77-2.54,48.77,7.78-1.5,15.87-1.31,23.96-.41,0-6.63-2.09-13.18-3.2-19.77-2.8-16.5,.48-33.36,3.74-49.77,.06-.29,.12-.58,.18-.87Z"/>
      <path class="cls-1" d="M851.73,79.15c-5.41-1.52-10.88-2.93-16.38-4.19-.99,5.03-3.08,9.95-5.18,14.67-6.29,14.15-12.93,28.25-16.87,43.23-.8,3.03-1.48,6.15-1.7,9.27,9.15,1.59,18.3,3.18,27.45,4.77,1.68-6.63,1.2-13.66,2.46-20.39,3.08-16.41,15.73-28.65,25.73-42.3-5.07-1.99-10.32-3.61-15.51-5.07Z"/>
      <path class="cls-1" d="M891.26,99.63c-1.68-1.84-3.5-3.5-5.41-5.05-3.08,8.87-6.65,17.57-10.7,26.04-4.56,9.55-9.83,19.65-11.61,29.85,12.04,.75,23.95-.96,31.51-9.76,9.8-11.41,6.35-29.97-3.79-41.08Z"/>
      <path class="cls-1" d="M696.13,223.12c-6.32-10.49-16.73-18.68-26.94-25.88-9.62-6.78-19.78-13.62-27.38-22.42-2.7,5.03-5.75,9.74-9.42,13.9,2.02,2.54,4.41,4.82,6.95,6.71,8.06,6.02,17.72,9.72,25.41,16.2,8.2,6.92,13.54,16.46,18.97,25.79,4.38-4.55,8.53-9.32,12.4-14.31Z"/>
      <path class="cls-1" d="M746.51,137.34c-8.01-13.82-14.5-28.51-19.32-43.74-1.58-4.98-2.93-10.29-3.49-15.55-8.36,3.19-16.41,7.19-23.93,11.95,1.68,4.69,3.03,9.69,4.78,14.14,7.2,18.35,24.83,31.12,31.86,49.54,.4,1.06,.84,2.18,1.32,3.28,3.89-4.39,8.22-8.24,13.18-11.28-1.23-2.88-2.86-5.68-4.4-8.34Z"/>
      <path class="cls-1" d="M722.75,178.98c-.75-.29-1.51-.58-2.26-.86-24.77-9.42-46.37-29.15-55.59-53.6-.87,1.4-1.72,2.82-2.52,4.27-3.59,6.51-6.54,13.55-9.4,20.63,8.34,7.9,16.23,16.26,23.63,25.05,8.21,9.75,16.9,20.71,29.39,23.18,2.03,.4,4.14,.57,6.25,.71,3.5-6.37,6.89-12.98,10.49-19.39Z"/>
    </g>
    <g>
      <path class="cls-1" d="M116.67,59.67c.71,.8,1.58,1.58,2.65,1.67,1.43,.11,2.69-1.16,3.01-2.55s-.06-2.86-.56-4.2c-3.75-10.1-13.69-17.41-15.74-27.99-.14-.74-.23-1.52-.22-2.3-6.09,1.64-12.11,3.59-18.01,5.82,1.36,.7,2.94,1.13,4.19,1.56,3.61,1.25,6.84,3.23,9.63,5.83,3.12,2.91,5.64,6.42,7.73,10.12,2.31,4.1,4.18,8.53,7.33,12.04Z"/>
      <path class="cls-1" d="M141.89,73.8c1.19,2.02,3.32,3.94,5.61,3.41,2.5-.58,3.47-3.58,3.81-6.12,1.63-12.06-1.04-24.66-7.42-35.03-3.23-5.24-7.41-10.02-9.31-15.88-.14-.43-.26-.87-.37-1.31-5.63,.64-11.22,1.53-16.77,2.66,.05,.04,.11,.08,.16,.12,4.75,3.69,9.58,7.47,12.94,12.45,5.96,8.83,6.5,20.06,8.4,30.54,.57,3.17,1.31,6.37,2.94,9.15Z"/>
      <path class="cls-1" d="M148.34,17.8c2.94,2.44,5.65,5.13,7.71,8.33,2.74,4.23,4.24,9.15,6.82,13.48,1.27,2.12,2.91,4.18,5.2,5.09,2.3,.91,5.35,.27,6.47-1.93,.86-1.7,.37-3.8-.59-5.44-.96-1.64-2.35-2.99-3.46-4.54-2.55-3.58-3.45-8.06-5.49-11.95-.52-1-1.12-1.95-1.78-2.86-4.95-.33-9.93-.36-14.9-.17Z"/>
    </g>
  </g>
</svg>