<?xml version="1.0" encoding="UTF-8"?>
<svg id="Layer_2" data-name="Layer 2" xmlns="http://www.w3.org/2000/svg" viewBox="0 0 875.35 435.42">
  <defs>
    <style>
      .cls-1 {
        fill: #ce781b;
      }

      .cls-2 {
        fill: #b76b18;
      }

      .cls-3 {
        fill: #e5cac6;
      }

      .cls-4 {
        fill: #f2ae25;
      }

      .cls-5 {
        fill: #e2881b;
      }

      .cls-6 {
        fill: #593e39;
      }

      .cls-7 {
        fill: #7295a0;
      }
    </style>
  </defs>
  <ellipse class="cls-7" cx="392.72" cy="391.47" rx="389.46" ry="43.95"/>
  <g>
    <path class="cls-5" d="M442.22,108.75c-31.95-18.64-59.95-43.31-91.09-63.28C316.5,23.26,277.62,6.88,236.8,1.7c-40.82-5.18-83.66,1.32-119.27,21.94C63.71,54.82,31.45,115.68,24.09,177.43c-2.86,23.98-2.33,48.6,4.14,71.87,15.48,55.64,64.83,98.13,120.32,114.18,30.18,8.73,61.88,10.51,93.25,12.24,150.19,8.26,302.03,16.43,450.04-10.4,21.5-3.9,43.25-8.67,62.24-19.47,18.99-10.81,35.08-28.62,38.88-50.13,2.48-14.03-.39-28.55-5.42-41.89-12.21-32.43-36.93-59.2-66.06-77.96-29.13-18.77-62.53-30.02-96.37-37.44-31.28-6.86-57.35-8.51-88.37-4.53-32.72,4.2-66.77-8.96-94.52-25.15Z"/>
    <path class="cls-5" d="M875.35,188.04c-26.2-3.07-52.84-2.31-78.82,2.25-4.87,.85-9.92,1.94-13.75,5.06-5.71,4.65-7.32,12.61-8.13,19.93-2.35,21.35-1.13,43.27,3.83,64.18,5.83,24.57,17.08,18.89,32.61,4.22,28.14-26.6,50.34-59.49,64.26-95.63Z"/>
    <path class="cls-5" d="M594.57,25.35c11.14,23.91,18.78,49.44,22.61,75.54,.72,4.89,1.28,10.03-.48,14.64-2.62,6.89-9.67,10.91-16.37,13.98-19.53,8.94-40.73,14.66-62.14,16.51-25.16,2.18-23.3-10.29-14.24-29.64,16.42-35.07,40.68-66.47,70.62-91.04Z"/>
    <path class="cls-2" d="M529.34,365.56c-26.71-4.47-53.75-10.34-77.19-23.91-23.44-13.57-59.98-76.59-36.93-132.38,22.12-53.56,63.28-71.3,75.44-74.03,62-13.89,105.55,37.62,167.47,51.9,31.1,7.17,63.38,19.28,81.94,45.24,8.09,11.31,13.02,24.57,16.81,37.95,5.31,18.76,8.49,39.04,4.81,58.4-3.44,18.11-9.22,23.76-25.86,29.05-42.36,13.46-85.82,18.12-130.17,16.19-25.58-1.12-51.06-4.18-76.3-8.4Z"/>
    <path class="cls-5" d="M707.61,106.77c22.6,5.01,47.42,27.1,63.57,43.7,18.23,18.74,28.4,44.31,31.68,70.25,3.28,25.93,.08,52.32-5.66,77.82-2.33,10.35-5.23,20.94-11.82,29.26-9.93,12.54-39.74,28.47-55.39,31.78-90.21,19.05-116.47,20.12-171.64-1.15-33.17-12.79-72.56-40.66-107.1-102.72-14.42-25.92-14.18-59.69,2.37-84.3,20.53-30.52,62.19-56.13,98.44-62.35,49.88-8.56,105.51-13.38,155.55-2.28Z"/>
    <path class="cls-6" d="M640.97,239.9c1.91,1.91,3.4,4.49,3.15,7.18-.19,2.04-1.36,3.86-2.74,5.37-4.32,4.68-10.74,6.78-17.01,7.9-6.26,1.12-12.71,1.47-18.75,3.49-3.09-7.07-5.49-14.45-7.16-21.98-.71-3.19-1.29-6.48-.84-9.71,.44-3.24,2.02-7.41,4.84-9.08,3.1-1.84,13.46-3.08,18.44,4.52,1.66,2.54,3.31,4.83,3.49,7.79,5.62-1.72,12.49,.41,16.59,4.52Z"/>
    <path class="cls-6" d="M553.9,277.61c.57-.54,1.39-.44,1.93,.06,5.92,5.43,13.84,9.29,22.01,9,8.95-.31,16.37-6.28,21.4-13.28,.37-.52,.73-1.05,1.09-1.58,.12-.31,.23-.63,.35-.94,2.31-6.07,5.23-11.91,8.71-17.4,.94-1.48,3.28-.07,2.33,1.42-.53,.83-1.04,1.68-1.54,2.53,.4,.44,.43,1.08,.16,1.63-2.28,4.72-4.64,9.52-7.53,13.91-1.48,4.05-2.69,8.21-3.58,12.44-.51,2.44-.87,4.96-.59,7.45,.27,2.39,1.09,4.71,2.05,6.91,1.99,4.54,4.71,8.74,8.04,12.42,3.75,4.14,8.2,7.57,13.17,10.13,.66,.34,.82,1.28,.45,1.88-.41,.67-1.22,.79-1.88,.46-9.26-4.77-16.93-12.62-21.46-22-1.14-2.37-2.16-4.85-2.73-7.42-.57-2.61-.55-5.24-.17-7.87,.4-2.69,1-5.36,1.74-8-1.72,1.86-3.61,3.57-5.73,5.07-3.83,2.71-8.23,4.45-12.91,4.9-4.29,.41-8.69-.35-12.7-1.87-4.7-1.77-8.97-4.51-12.67-7.91-.54-.5-.45-1.45,.06-1.93Z"/>
    <path class="cls-6" d="M677.3,276.39c5.02,8.69,14.47,14.37,24.39,15.9,9.92,1.53,20.2-.82,29.11-5.43,8.5-4.4,16.29-11.47,18.5-20.78-2.2,3.23-5.99,4.95-9.67,6.26-12.42,4.41-26.52,5.82-38.59,.54-12.07-5.28-21.17-18.48-18.79-31.44-.83,4.5-6.75,9.99-7.96,15.28-1.51,6.6-.37,13.83,3.02,19.68Z"/>
    <path class="cls-6" d="M522.91,177.07c3.65,9.35,12.14,16.39,21.71,19.4,9.57,3.01,20.09,2.24,29.59-.98,9.06-3.07,17.83-8.88,21.42-17.75-2.66,2.86-6.67,3.99-10.5,4.73-12.94,2.49-27.09,1.75-38.23-5.29-11.14-7.04-18.14-21.47-13.83-33.92-1.5,4.33-8.18,8.86-10.18,13.9-2.49,6.29-2.45,13.61,.01,19.91Z"/>
    <g>
      <path class="cls-2" d="M768,155.26c.73-1.98,1.45-4.02,2.04-6.08,.38,.39,.76,.77,1.13,1.15,6.02,6.19,11.16,13.13,15.46,20.58-7.41,9.87-17.9,19.28-25.71,26.28-9.39,8.42-19.99,15.51-31.4,20.88,20.08-14.77,29.88-39.41,38.48-62.81Z"/>
      <path class="cls-2" d="M688.76,209.27c17.17-25.94,21.19-58.84,38.18-84.9,1.55-2.38,3.22-4.74,4.76-7.16,10.1,6.29,19.88,14.37,28.41,22.29-30.26,14.31-43.9,50.54-71.34,69.77Z"/>
      <path class="cls-2" d="M689.68,103.36c6.04,.89,12.01,1.97,17.91,3.27,4.33,.96,8.74,2.55,13.15,4.6-1.04,.92-2.01,1.92-2.89,2.97-4.68,5.56-7.46,12.42-10.4,19.06-10.28,23.2-23.44,45.12-39.09,65.1,3.62-29.3,7.32-58.94,17.92-86.5,1.1-2.85,2.26-5.68,3.41-8.51Z"/>
      <path class="cls-2" d="M645.02,106.02c.65-1.96,1.37-3.91,2.17-5.83,7.38,.08,14.73,.36,22.03,.91-12.84,18.81-22.63,39.69-28.83,61.61-1.64-19.02-1.36-38.56,4.62-56.69Z"/>
    </g>
    <path class="cls-3" d="M591.71,66.23c-.41-1.59-.91-3.3-2.22-4.28-1.88-1.41-4.59-.73-6.62,.44-4.52,2.6-7.55,7.12-10.31,11.55-7.79,12.51-14.67,25.59-20.58,39.09,.36-.83,7.81-1.33,8.91-1.51,3.19-.51,6.38-1,9.58-1.45,6.39-.91,12.8-1.7,19.23-2.39,4.02-.43,7.75-.84,8.65-5.4,.93-4.71-1.01-10.46-1.9-15.04-1.37-7.05-2.95-14.06-4.74-21.01Z"/>
    <path class="cls-3" d="M846.81,213.74c-17.57-.89-35.23-.18-52.67,2.12,5.33,19.85,5.49,41.61-.28,61.39,9.83-7.58,18.1-18.69,25.96-28.29,4.68-5.72,9.23-11.56,13.7-17.44,1.64-2.16,11.16-17.88,13.29-17.77Z"/>
    <path class="cls-1" d="M228.8,102.47c20.42,13.49,36.29,33.36,46.42,55.64,10.13,22.28,14.66,46.89,14.76,71.36,.05,10.72-.75,21.51-3.36,31.91-5.89,23.45-20.55,43.54-31.98,64.85,25.28-16.84,38.35-46.61,48.39-75.29,10.62-30.33,19.37-63.48,9.98-94.21-8.86-29-33.21-51.5-60.95-63.75-27.74-12.24-53.47-22.29-83.79-22.18-9.76,.04-33.16,7.86-36.84,19.38,3.83,1.14,9.15-1.78,12.97-3,7.76-2.48,15.03-4.19,23.23-3.96,21.63,.62,43.12,7.31,61.18,19.24Z"/>
    <path class="cls-4" d="M7.93,300.42c14.76,42.78,48.85,77.81,89.93,96.78,66.34,30.63,143.49,20.07,215.71,8.92,120.51-18.62,247.44-36.57,361.46,6.67,4.14,1.57,8.32,3.23,12.73,3.58,17.34,1.38,30.07-19.3,26.55-36.34-3.52-17.04-17.79-29.72-32.57-38.9-34.26-21.28-74.92-30.46-115.2-32.49-40.28-2.04-80.55,2.72-120.6,7.46-41.73,4.94-83.45,9.89-125.18,14.83-46.8,5.54-94.2,11.08-140.89,4.65s-93.33-26.3-122.56-63.27c-27.16-34.36-36.38-80.53-29.45-123.3-4.77,24.62-17.73,44.71-23.67,68.8-6.68,27.11-5.39,56.21,3.72,82.61Z"/>
    <g>
      <path class="cls-2" d="M681.75,341.13c-14.46-8.98-30.07-15.8-46.3-20.84,.43,.81,.74,1.67,.9,2.6,.69,3.9-1.39,7.68-3.27,11.16-9.65,17.82-16.03,37.39-18.75,57.47-.17,1.26-.31,2.54-.43,3.84,20.7,4.15,41.12,9.84,61.13,17.43,4.14,1.57,8.32,3.23,12.73,3.58,17.34,1.38,30.07-19.3,26.55-36.34-3.52-17.04-17.79-29.72-32.57-38.9Z"/>
      <path class="cls-2" d="M67.26,283.54c-3.49-3.56-6.81-7.29-9.93-11.23-4.81-6.09-9.05-12.56-12.75-19.3-16.96,10.09-30.17,30.77-36.61,47.53,4.86,14.06,11.83,27.28,20.43,39.37,3.46-11.34,7.3-22.51,13.41-32.62,6.02-9.97,15.05-18.84,25.45-23.74Z"/>
      <path class="cls-2" d="M230.42,404.58c-3.4-13.99-4.38-28.57-2.88-42.9,.84-8,2.58-16.18,6.15-23.31-12.52,.26-25.03,0-37.49-1.02-9.57,25.42-13.1,54.54-5.39,79.84,14.08,.42,28.31-.04,42.57-1.06-.91-3.86-2.02-7.72-2.95-11.54Z"/>
      <path class="cls-2" d="M106.91,401.1c2.57-19.31,6.02-38.38,15.19-55.38,3.97-7.36,9.5-14.15,15.96-19.78-12.8-4.23-25.17-9.63-36.72-16.28-1.69,2.74-3.61,5.39-5.42,7.87-13.59,18.61-22.75,40.41-26.54,63.14,8.97,6.37,18.52,11.93,28.48,16.53,2.99,1.38,6.01,2.68,9.05,3.9Z"/>
      <path class="cls-2" d="M330.83,403.48c-1.07-19.79-2.13-39.58-3.2-59.37-.25-4.64-.45-9.47,.3-14.03-2.38,.28-4.76,.56-7.15,.85-12.97,1.54-25.99,3.07-39.03,4.35,3.4,10.03,2.11,22.89,1.02,33.98-1.34,13.58-.86,28.08,3.17,40.99,9.27-1.31,18.49-2.71,27.63-4.12,5.74-.89,11.49-1.77,17.26-2.65Z"/>
      <path class="cls-2" d="M544.13,386.87c0-8.6-.89-17.3,.08-25.85,2.08-18.25,13.17-35.26,29.04-44.52,4.65-2.71,9.68-4.72,14.89-6.05-7.18-.85-14.39-1.45-21.59-1.81-22.79-1.15-45.57-.13-68.31,1.83,1.01,2.73,1.67,5.59,1.95,8.42,1.12,11.07-2,22.06-3.71,33.06-1.76,11.35-2.02,22.93-.77,34.34,16.21-.4,32.37-.25,48.42,.58Z"/>
      <path class="cls-2" d="M459.86,361.38c-3.22-13.82-8.45-27.7-6.65-41.78,.19-1.5,.51-2.99,.93-4.47-2.73,.32-5.46,.64-8.19,.97-16.84,1.99-33.67,3.99-50.51,5.98,3.46,9.47,3.21,21.22,3.53,31.68,.4,13.35,2.69,26.64,6.74,39.37,19.13-2.25,38.3-4.12,57.43-5.36-.07-8.86-1.27-17.78-3.28-26.39Z"/>
    </g>
  </g>
</svg>