<?xml version="1.0" encoding="UTF-8"?>
<svg id="Layer_2" data-name="Layer 2" xmlns="http://www.w3.org/2000/svg" viewBox="0 0 886.66 739.78">
  <defs>
    <style>
      .cls-1 {
        fill: #30211f;
      }

      .cls-2 {
        fill: #fff;
      }

      .cls-3 {
        fill: #d8d8d8;
      }

      .cls-4 {
        fill: #e0ba99;
      }

      .cls-5 {
        fill: #6b8c96;
      }

      .cls-6 {
        fill: #e5cac6;
      }

      .cls-7 {
        fill: #e9f1f4;
      }

      .cls-8 {
        fill: #e8e8e8;
      }

      .cls-9 {
        fill: #593e39;
      }

      .cls-10 {
        fill: #7295a0;
      }
    </style>
  </defs>
  <ellipse class="cls-10" cx="438.98" cy="714.55" rx="310.66" ry="25.23"/>
  <g>
    <path class="cls-8" d="M621.36,346.84c12.15-16.54,8.24-40.05-.72-58.51-8.96-18.46-22.35-34.78-28.91-54.22-8.29-24.57-4.35-52.94,10.31-74.32,14.47-21.11,37.88-34.54,61.98-43.16,24.1-8.62,49.48-13.1,73.98-20.49,22.67-6.84,44.59-16.19,65.22-27.81,12.82-7.22,25.71-15.93,32.32-29.08,6.61-13.15,4.45-31.74-8.21-39.24,40.32,23.85,60.56,73.32,59.27,120.15-.42,15.29-2.95,30.87-10.36,44.25-10.4,18.77-29.47,31.41-49.57,38.9-20.1,7.49-41.54,10.49-62.61,14.53-11.38,2.18-23,4.81-32.62,11.25-12.45,8.34-20.18,22.22-24.84,36.46-4.65,14.24-6.66,29.2-10.35,43.72-6.8,26.75-19.4,52.01-36.68,73.53-11.4,14.2-27.1,27.67-45.28,26.6-2.71-.16-5.51-.7-7.69-2.32-1.97-1.47-3.24-3.7-4.17-5.98-5.2-12.66-1.4-27.19,4.11-39.71,5.52-12.52,12.8-24.6,14.76-38.14l.07,23.58Z"/>
    <path class="cls-3" d="M838.12,6.67c15.84,24.5,23.53,54.97,22.72,84.4-.42,15.29-2.95,30.87-10.36,44.25-10.4,18.77-29.47,31.41-49.57,38.9-20.11,7.49-41.54,10.49-62.61,14.53-11.38,2.18-23,4.81-32.62,11.25-12.45,8.34-20.19,22.22-24.84,36.46-4.65,14.24-6.66,29.2-10.35,43.72-6.8,26.75-19.4,52.01-36.68,73.53-8.76,10.91-20.06,21.39-33.07,25.17-1.29,7.32-1.11,14.7,1.7,21.54,.94,2.28,2.2,4.5,4.17,5.98,2.18,1.63,4.98,2.16,7.69,2.32,18.18,1.07,33.88-12.41,45.28-26.6,17.28-21.52,29.88-46.78,36.68-73.53,3.69-14.52,5.7-29.48,10.35-43.72,4.65-14.24,12.39-28.12,24.84-36.46,9.63-6.45,21.25-9.07,32.62-11.25,21.07-4.04,42.51-7.04,62.61-14.53,20.1-7.49,39.18-20.14,49.57-38.9,7.41-13.38,9.94-28.96,10.36-44.25,1.18-42.45-15.35-87.06-48.48-112.8Z"/>
    <path class="cls-3" d="M449.36,437.28c-.89,22.82,7.1,44.55,17.95,64.05,7.93,14.27,17.52,27.75,29.71,38.83,14.43,13.13,32.11,22.57,49.09,32.7,23.69,14.13,46.54,30.02,63.96,50.73,17.41,20.71,29.11,46.77,28.17,74.33-.16,4.69-.6,9.73,1.95,13.55,2.55,3.82,7.11,4.05,10.41-1-.63,3.75,1.16,5.89,3.96,6.6,5.77-.07,8.02-3.18,8.66-8.68,.69,2.78,2.11,6.21,4.44,5.92,4.03-.8,5.65-5.08,7.15-8.77,5.86-14.39,6.13-23.76,5.57-37.43-1.62-39.42-5.84-78.55-12.62-117.09-6.13-34.86-14.36-69.25-25.13-102.76-9-28.01-20.72-56.66-44.59-74.47-51.45-38.37-145.96-5.95-148.67,63.47Z"/>
    <path class="cls-8" d="M81.92,553.99c5.5,23.2,21.04,42.87,38.93,58.62,5.31,4.67,11.94,9.35,18.84,7.83,1.11-3.03,1.1-6.46-.03-9.48,3.32,3.75,9.37,4.73,13.71,2.22-.83-1.95-1.67-3.9-2.5-5.85,.48,3.47,5.85,4.38,8.22,1.79,2.37-2.59,1.94-6.83,.04-9.78-1.89-2.95-4.91-4.96-7.73-7.05-8.56-6.34-16.25-14.5-19.49-24.64-3.25-10.14-1.14-22.47,7.09-29.22,12.69-10.42,33.93-4.44,45.89-15.69,7.73-7.27,8.58-19.81,4.4-29.56-6.42-14.97-24.58-29.53-40.53-32.73-14.28-2.87-21.21,4.16-30.59,13.67-23.44,23.77-45.02,42.84-36.24,79.87Z"/>
    <path class="cls-8" d="M106.62,433.95c7.52,31.47,18.6,62.67,37.92,87.41,22.86,29.28,55.92,47.5,90.18,56.4,34.26,8.9,69.91,9.11,105.08,7.12,65.32-3.69,130.28-14.81,193.51-33.13,21.92-6.35,43.99-13.75,62.86-27.49,41.4-30.16,61.13-87.78,58.99-142.11-.72-18.24-4.18-37.66-16.05-50.51-6.88-7.45-15.94-11.95-25.03-15.58-53.32-21.31-111.88-17.18-168.6-14.58-56.72,2.61-116.12,2.8-166.81-25.14-16.76-9.23-32.26-21.41-49.98-28.15-25.72-9.78-55.22-6.95-78.99,7.58-57.33,35.04-57.73,116.84-43.07,178.18Z"/>
    <path class="cls-3" d="M508.72,515.01c-4.74,4.8-9.51,9.63-14.97,13.6-8.83,6.42-19.18,10.41-29.62,13.6-15.22,4.66-30.88,7.77-46.55,10.54-28.38,5.01-56.94,8.92-85.51,12.7-11.56,1.53-23.63,3.22-33.21,9.88-3.62,2.52-6.76,6-9.26,10.03,17.75,.95,35.62,.51,53.37-.49,65.32-3.69,130.29-14.81,193.51-33.13,.04-.01,.09-.03,.13-.04,9.42-24.38,9.48-52.14,5.33-78.23-7.98,15.91-20.7,28.86-33.2,41.53Z"/>
    <path class="cls-3" d="M84.99,338.63c-3.37,27.12,2.71,55.32,16.95,78.64,.82-9.93,4.38-19.61,10.2-27.7-3.76,18.62,4.44,37.93,16.56,52.55,12.12,14.62,27.92,25.63,42.65,37.62,14.73,11.99,28.95,25.69,36.11,43.28,13.23-34.29,40.12-64.17,42.7-100.83,5.29,10.7,8.1,22.62,8.15,34.55,10.28-16.8,20.56-33.6,30.84-50.4,3.07,6.04,4.86,12.72,5.21,19.48,21.18-24.91,36.72-54.58,45.13-86.17,2.83-10.62,4.87-21.72,3.22-32.58-2.61-17.17-14.35-31.98-28.82-41.6-14.46-9.62-31.47-14.66-48.45-18.31-41.74-8.99-87.85-10.84-128.33,4.74-30.46,11.71-48.37,56.5-52.13,86.74Z"/>
    <path class="cls-8" d="M85.3,111.36c-6.77,8.34-13.19,17.11-17.38,27-4.9,11.57-6.56,24.22-8.03,36.7-2.68,22.82-4.76,46.5,2.53,68.29,6.64,19.82,20.71,36.57,37.44,49.11,47.05,35.27,112.09,37.36,168.98,22.48,31.03-8.12,61.51-21.21,84.85-43.21,23.34-22.01,38.71-53.95,35.43-85.86-1.43-13.86-6.22-27.17-12.08-39.81-4.8-10.36-10.41-20.46-17.94-29.05-6.6-7.53-14.55-13.76-22.77-19.49-53.87-37.56-145.74-67.05-205.68-28.33-17.42,11.25-32.34,26.13-45.36,42.17Z"/>
    <path class="cls-8" d="M25.33,165.78c3.83,.73,7.65,1.46,11.48,2.19C15.03,191.53,1.77,222.82,0,254.86c3.03-9.71,12.55-17.03,22.71-17.45-13.03,25.33-15.14,56.04-5.71,82.91,2.58-9.26,7.4-17.88,13.93-24.94-.03,3.72-.06,7.43-.09,11.15,10.35-11.89,27.81-15.06,43.46-13.16,15.65,1.9,30.44,8,45.77,11.68,15.33,3.68,32.32,4.72,46.08-2.95,8.82-4.92,15.48-12.97,20.9-21.49,15.13-23.78,22-53.06,17.17-80.83-4.82-27.76-21.77-53.57-46.27-67.49-22.07-12.54-52.76-15.57-76.04-4.15-20.92,10.27-32.8,30.46-56.59,37.62Z"/>
    <path class="cls-8" d="M382.54,129.33c-3.95,3.24-8.7,5.25-13.6,5.75,12.46,3.89,21.77,15.2,29.58,26.62,19.91,29.11,34.81,62.39,43.66,97.54-6.22-7.45-14.48-12.8-23.4-15.17,3.02,6.56,6.04,13.12,9.06,19.67-14.33-5.59-29.7-7.9-44.85-6.75,6.74,8.07,12.92,16.71,18.48,25.82-11.96-8.09-27.22-7.75-40.77-3.76-13.55,3.99-26.11,11.25-39.31,16.47-22.25,8.8-47.26,11.58-69.4,2.47-26.77-11.01-46.58-39.31-51.3-70.46-4.72-31.14,5.06-64.13,24.2-87.56,18.45-22.6,47.94-38.67,75.38-42.13,28.53-3.59,55.01,25.1,82.28,31.5Z"/>
    <path class="cls-8" d="M66.78,94.53c0-8.39,0-16.87,2-25.01,.37-1.5,.83-3.03,1.83-4.19,2.29-2.66,6.42-2.48,9.87-1.82,16.76,3.2,31.81,12.29,45.49,22.49,7.18,5.35,14.74,12.37,14.55,21.32-.13,6.11-3.92,11.45-7.7,16.26-10.61,13.5-34.69,41.71-55.07,32.84-18.61-8.1-10.96-46.27-10.96-61.87Z"/>
    <path class="cls-8" d="M322.07,67.7c-1.17-8.3-2.37-16.7-5.49-24.48-.57-1.43-1.24-2.88-2.4-3.89-2.64-2.31-6.71-1.55-10.03-.42-16.14,5.53-29.77,16.64-41.88,28.66-6.35,6.31-12.85,14.32-11.41,23.15,.99,6.03,5.5,10.79,9.91,15.01,12.41,11.87,40.21,36.42,59.14,24.77,17.29-10.64,4.34-47.35,2.16-62.8Z"/>
    <path class="cls-6" d="M76.76,88.48c.15-2.04,.46-4.31,2.05-5.58,2.27-1.81,5.61-.53,8.07,1.01,5.55,3.47,10.42,8.02,14.25,13.32,.58,.8,1.15,1.65,1.28,2.63,.13,1-.21,2-.58,2.94-2.32,6.02-5.57,11.67-9.56,16.73-1.71,2.17-10.58,13.57-13.67,12.73-2.85-.78-2.23-16.6-2.33-19.39-.29-8.13-.12-16.27,.49-24.38Z"/>
    <path class="cls-6" d="M300.25,49.87c1.3-.86,2.77-1.7,4.32-1.5,2.45,.31,3.8,2.95,4.57,5.29,3.91,11.92,3.44,24.78,2.92,37.32-2.58,1.55-5.89,.64-8.69-.46-6.46-2.55-12.58-5.95-18.17-10.07-2.27-1.68-6.35-4.61-6.24-7.82,.09-2.91,3.94-6.22,5.71-8.3,4.6-5.41,9.64-10.51,15.57-14.45Z"/>
    <g>
      <path class="cls-7" d="M101.45,161.89c-.33,2.46-.39,4.99-.16,7.57,1.68,18.59,18.12,32.3,36.72,30.62,12.41-1.12,22.64-8.82,27.58-19.35-2.05,15.3-14.44,27.7-30.46,29.15-18.59,1.68-35.03-12.03-36.72-30.62-.56-6.18,.58-12.13,3.04-17.37Z"/>
      <g>
        <path class="cls-2" d="M98.09,180.4c1.68,18.59,18.12,32.3,36.72,30.62,18.59-1.68,32.3-18.12,30.62-36.72-1.68-18.59-18.12-32.3-36.72-30.62-18.59,1.68-32.3,18.12-30.62,36.72Z"/>
        <path class="cls-4" d="M96.99,180.5c-1.74-19.17,12.45-36.18,31.62-37.92,19.17-1.74,36.18,12.45,37.92,31.62,1.74,19.17-12.45,36.18-31.62,37.92-19.17,1.74-36.18-12.45-37.92-31.62Zm2.21-.2c1.63,17.96,17.56,31.24,35.51,29.62,17.96-1.63,31.24-17.56,29.61-35.51-1.63-17.96-17.56-31.24-35.51-29.61-17.96,1.63-31.24,17.56-29.61,35.51Z"/>
        <path class="cls-5" d="M107.78,180.87c1.1,12.17,11.86,21.14,24.03,20.04,12.17-1.1,21.14-11.86,20.04-24.03-1.1-12.17-11.86-21.14-24.03-20.04-12.17,1.1-21.14,11.86-20.04,24.03Z"/>
        <path class="cls-1" d="M131.12,198.54c-3.09-6.3-5.83-12.85-7.09-19.75-1.27-6.9-.99-14.22,1.77-20.67-.11,.02,2.35,2.02,2.51,2.2,1.12,1.23,1.62,3.57,2.14,5.12,1.19,3.54,2.01,7.21,2.46,10.91,.45,3.71,.53,7.46,.23,11.18-.15,1.93-.41,3.85-.77,5.76-.17,.91-1.61,4.53-1.26,5.24Z"/>
        <path class="cls-2" d="M148.22,178.44c-.06,.74-.16,1.49-.49,2.15-.33,.66-.91,1.24-1.64,1.38-1.08,.22-2.15-.56-2.67-1.53-.52-.97-.64-2.09-.84-3.17-.54-2.89-1.75-5.65-3.5-8.01-2.96-3.98,3.44-3.63,5.33-1.45,2.54,2.93,4.13,6.77,3.82,10.64Z"/>
      </g>
      <path class="cls-2" d="M135.88,165.23c-.85,.21-1.76-.08-2.47-.59-.71-.51-1.25-1.23-1.73-1.96-.25-.38-.49-.91-.2-1.27,.1-.13,.26-.2,.41-.26,1.37-.55,3.9-.25,4.97,.9,1.01,1.09,.53,2.81-.97,3.18Z"/>
    </g>
    <g>
      <path class="cls-7" d="M250.08,152.65c-.35,2.59-.41,5.27-.17,7.98,1.78,19.6,19.11,34.06,38.71,32.28,13.09-1.18,23.87-9.3,29.08-20.4-2.16,16.13-15.22,29.2-32.11,30.73-19.6,1.78-36.93-12.68-38.71-32.28-.59-6.52,.62-12.78,3.21-18.31Z"/>
      <g>
        <path class="cls-2" d="M246.53,172.17c1.77,19.6,19.11,34.06,38.71,32.28,19.6-1.78,34.06-19.11,32.28-38.71-1.78-19.6-19.11-34.06-38.71-32.28-19.6,1.78-34.06,19.11-32.28,38.71Z"/>
        <path class="cls-4" d="M245.37,172.27c-1.83-20.21,13.13-38.15,33.34-39.98,20.21-1.83,38.15,13.13,39.98,33.34,1.83,20.21-13.13,38.15-33.34,39.98-20.21,1.83-38.15-13.13-39.98-33.34Zm2.33-.21c1.71,18.93,18.51,32.94,37.44,31.22,18.93-1.71,32.94-18.51,31.22-37.44-1.71-18.93-18.51-32.94-37.44-31.22-18.93,1.71-32.94,18.51-31.22,37.44Z"/>
        <path class="cls-5" d="M256.74,172.67c1.16,12.83,12.5,22.29,25.33,21.12,12.83-1.16,22.29-12.5,21.12-25.33-1.16-12.83-12.5-22.29-25.33-21.12-12.83,1.16-22.29,12.5-21.12,25.33Z"/>
        <path class="cls-1" d="M281.36,191.3c-3.26-6.64-6.14-13.54-7.48-20.82-1.34-7.28-1.05-15,1.87-21.79-.11,.02,2.48,2.13,2.65,2.32,1.18,1.3,1.71,3.76,2.26,5.4,1.25,3.73,2.12,7.6,2.59,11.5,.48,3.91,.56,7.87,.25,11.79-.16,2.04-.43,4.06-.81,6.07-.18,.95-1.7,4.78-1.33,5.53Z"/>
        <path class="cls-2" d="M299.39,170.1c-.06,.78-.17,1.57-.52,2.27-.35,.7-.96,1.3-1.73,1.46-1.14,.23-2.26-.6-2.81-1.62s-.67-2.21-.89-3.35c-.57-3.05-1.84-5.96-3.69-8.45-3.12-4.19,3.62-3.82,5.61-1.53,2.68,3.08,4.35,7.14,4.02,11.22Z"/>
      </g>
      <path class="cls-2" d="M286.38,156.17c-.9,.22-1.86-.08-2.61-.62-.75-.54-1.31-1.29-1.82-2.06-.27-.4-.52-.96-.21-1.34,.11-.13,.27-.21,.43-.28,1.44-.58,4.11-.26,5.24,.95,1.06,1.15,.56,2.96-1.03,3.35Z"/>
    </g>
    <path class="cls-9" d="M180.28,257.19c.12-.62,.7-.94,1.29-.87,6.44,.76,13.45-.45,18.67-4.49,5.71-4.43,7.76-11.84,7.75-18.8,0-.52-.02-1.04-.04-1.55-.07-.26-.14-.52-.21-.78-1.35-5.07-2.2-10.27-2.51-15.51-.08-1.42,2.12-1.59,2.2-.17,.05,.8,.11,1.59,.18,2.38,.47,.1,.79,.5,.87,.99,.74,4.17,1.45,8.43,1.63,12.67,.94,3.36,2.12,6.65,3.53,9.84,.81,1.84,1.77,3.66,3.14,5.16,1.31,1.44,2.94,2.58,4.6,3.56,3.45,2.04,7.21,3.5,11.13,4.34,4.41,.94,8.95,1.08,13.41,.42,.59-.09,1.14,.45,1.18,1.02,.05,.63-.42,1.1-1.02,1.19-8.32,1.25-17.05-.28-24.45-4.28-1.87-1.01-3.71-2.16-5.29-3.58-1.6-1.44-2.84-3.17-3.82-5.08-1.01-1.95-1.88-3.98-2.64-6.06-.25,2.03-.68,4.04-1.36,6.03-1.23,3.58-3.29,6.8-6.15,9.3-2.62,2.29-5.86,3.87-9.2,4.77-3.92,1.06-8.01,1.28-12.03,.8-.59-.07-.98-.74-.87-1.29Z"/>
    <path class="cls-6" d="M219.52,191.38c2.15,.35,4.35,1.34,5.46,3.22,.84,1.42,.94,3.17,.74,4.81-.62,5.1-3.84,9.51-7.41,13.2-3.57,3.69-7.63,6.96-10.63,11.14-5.36-3.18-10.42-6.87-15.07-11.02-1.97-1.76-3.9-3.63-5.14-5.96s-2.17-5.81-1.12-8.23c1.17-2.67,7.37-8.37,14.21-5.74,2.29,.88,4.45,1.6,5.96,3.46,2.87-3.78,8.37-5.63,13-4.87Z"/>
    <path class="cls-3" d="M475.46,523.68c1.58,6.7,3.75,13.38,7.67,19.04,3.92,5.66,9.79,10.23,16.59,11.36,12.87,2.14,24.69-8.45,30.33-20.22,6.49-13.54,7.6-29.58,3.03-43.88-4.57-14.3-14.76-26.73-27.9-34-40.02-22.16-34.44,47.65-29.72,67.7Z"/>
    <path class="cls-8" d="M487.7,367.39c-11.71,19.6-15.1,42.51-14.91,64.83,.13,16.33,2.09,32.75,7.49,48.32,6.39,18.43,17.39,35.19,27.44,52.21,14.03,23.75,26.49,48.64,31.86,75.16,5.37,26.52,3.17,55-10.85,78.75-2.38,4.04-5.18,8.26-4.77,12.83,.41,4.57,4.3,6.96,9.62,4.11-2.34,2.99-1.8,5.73,.31,7.69,5.1,2.7,8.56,1.05,11.76-3.47-.73,2.77-1.12,6.46,1.06,7.32,3.92,1.23,7.39-1.75,10.47-4.27,12.04-9.83,16.76-17.92,22.81-30.19,17.45-35.39,32.48-71.76,44.98-108.84,11.31-33.54,20.55-67.67,27.14-102.24,5.51-28.91,8.94-59.67-3.5-86.73-26.8-58.32-125.29-75.1-160.91-15.46Z"/>
    <path class="cls-3" d="M337.92,520.79c2.22,10.05,4.44,20.09,6.66,30.14,1.57,7.11,3.09,14.77,.22,21.45-4.96,11.53-30.29,15.79-23.81-1.55,2.96-7.93,8.55-14.74,11.51-22.83,3.19-8.72,5.05-17.93,5.42-27.22Z"/>
    <path class="cls-8" d="M208.98,491.19c.29,12.69,9.02,24.47,16.4,35.98,34.36,53.63,42.99,119.52,11.28,170.74-1.62,2.61-3.37,5.53-2.28,8.46s6.74,4.59,8.26,1.95c-1.7,2.41-.27,4.54,1.9,5.79,5.4,2.08,8.67-.58,10.14-4.49-1.53,2.29-.81,6.28,2.64,6.33,6.31,.82,17.63-21.06,24-32.76,20.56-37.8,41.25-75.89,52.33-116.74,3.94-14.52,6.65-29.59,4.02-44.66-2.63-15.07-11.18-30.26-26.07-39.8-13.02-8.34-29.38-11.6-45.13-14.63-23.18-4.46-58.08-1.56-57.5,23.85Z"/>
    <path class="cls-3" d="M307.47,105.18c-4.73,2.6-9.45,5.21-14.17,7.81,18.75-5.95,40.03-3.36,56.79,6.92-12.49-3.08-25.83-2.68-38.11,1.14,8.18-.02,16.34,2.91,22.64,8.14-6.1-1.37-12.26-2.74-18.51-2.67-6.25,.07-12.68,1.71-17.44,5.76-.61,.52-17.58-3.59-20.2-3.54-7.22,.14-14.1,1.84-20.76,4.56,6.84-6.57,12.24-13.52,20.75-18.22,8.98-4.96,19.01-7.85,29.01-9.91Z"/>
    <path class="cls-3" d="M69.98,144.57c10.37-5.95,22.25-9.25,34.2-9.5-2.82-2.95-6.67-4.89-10.71-5.42,6.54-.12,13.1,.72,19.41,2.48-7.58-7.74-17.53-13.12-28.15-15.22,15.2-1.91,31.13,3.09,42.51,13.34,2.26,2.04,6.59,8.62,7.66,11.46-1.03-2.73-9.83-.54-18.32,.7-4.32,.63-7.31,4.69-11.58,5.42-11.63,1.99-24.11-8.47-35.02-3.27Z"/>
  </g>
</svg>