<?xml version="1.0" encoding="UTF-8"?>
<svg id="Layer_2" data-name="Layer 2" xmlns="http://www.w3.org/2000/svg" viewBox="0 0 833.91 843.48">
  <defs>
    <style>
      .cls-1 {
        fill: #30211f;
      }

      .cls-2 {
        fill: #fff;
      }

      .cls-3 {
        fill: #e0ba99;
      }

      .cls-4 {
        fill: #494c56;
      }

      .cls-5 {
        fill: #6b8c96;
      }

      .cls-6 {
        fill: #e5cac6;
      }

      .cls-7 {
        fill: #e2881b;
      }

      .cls-8 {
        fill: #e9f1f4;
      }

      .cls-9 {
        fill: #e8e8e8;
      }

      .cls-10 {
        fill: #ccc;
      }

      .cls-11 {
        fill: #593e39;
      }

      .cls-12 {
        fill: #7295a0;
      }
    </style>
  </defs>
  <path class="cls-12" d="M711.54,815.34c0,15.54-142.69,28.14-318.7,28.14s-318.7-12.6-318.7-28.14,142.69-28.14,318.7-28.14,318.7,12.6,318.7,28.14Z"/>
  <g>
    <path class="cls-10" d="M614.98,663.17c-5.63,43.4-11.25,87.56-3.37,130.59,.71,3.87,1.53,7.87,.55,11.7-.98,3.83-4.33,7.44-8.48,7.46-4.15,.01-7.63-5.11-4.99-8.15,1.07,5.39-1.53,11.29-6.34,14.38-3.06-2.65-4.74-6.67-4.42-10.6,1.49,2.97-.78,7.03-4.22,7.55-14.58-6.93-19.04-24.29-21.81-39.54-11.56-63.54-21.58-127.36-28.36-191.54-1.78-16.9-3.08-35.04,5.8-49.84,21.6-35.99,86.31-28.01,104.6,6.38,9.35,17.59-.37,30.03-8.78,45.88-12.62,23.78-16.79,49.58-20.18,75.72Z"/>
    <path class="cls-10" d="M259.56,378.45c24.38,18.79,37.77,48.23,41.31,77.88,3.54,29.64-1.92,59.66-9.91,88.57-7.99,28.9-18.53,57.17-25.48,86.32-12.91,54.18-13.09,111.06,.1,165.07,1.11,4.53,3.4,10.21-1.84,11.78-4.24,.94-6.11-1.71-6.72-4.69,.7,11.08-12.62,12.2-13.95,.22,4.78,3.52-1.98,11.41-7.78,9.77-5.81-1.63-8.56-7.8-10.2-13.33-4.92-16.64-6.59-33.97-9.3-51.07-8.86-56-29.2-110.29-59.54-158.99-17.04-27.35-37.25-53.03-51.12-81.95-13.87-28.92-21.01-62.44-10.33-92.65,10.67-30.19,38.31-49.27,71.11-50.77,34.42-1.57,63.39-9.48,93.64,13.85Z"/>
    <path class="cls-9" d="M833.79,391.88c-26.78-1.68-54.16,4.28-77.98,16.97-2.78,1.48-5.57,3.1-7.64,5.45-2.96,3.35-4.15,7.82-4.99,12.14-3.57,18.37-2.4,37.11,1.15,55.25,1.77,9.05,4.15,17.97,6.82,26.79,2.1,6.93,3.95,20.93,9.12,26.12,17.97,18.08,51.74-66.14,56.69-79.45,1.88-5.05,18.45-63.16,16.82-63.26Z"/>
    <path class="cls-9" d="M552.43,454.15c-41.29-35.85-55.11-80.73-89.66-117.63-13.42-14.33-29.69-26.06-46.72-36.39-47.9-29.07-103.7-47.88-160.7-48.08-57-.2-115.03,19.32-155.22,57.79-20.7,19.82-36.27,44.02-48.39,69.41-10.49,21.96-18.63,45.54-18.02,69.59,.77,30.18,16.07,59.69,40.79,78.63,24.71,18.94,109.36,122.32,123.8,95.34,28.4-53.06,59.79-117.31,92.78-126.83,55.06-15.89,108.35,20.29,137.83,70.31,27.97,47.47,73.19,56.71,142.61,56.2,25.1-.18,62.99-9.54,84.83-21.35,23.03-12.45,34.81-41,26.77-64.85-7.1-21.06-27.05-36.19-48.46-44.94-21.41-8.75-44.73-12.31-67.26-18.06-14.99-3.83-29.69-8.64-43.96-14.41-3.73-1.51-7.34-7.05-3.42-8.05l32.4,3.33Z"/>
    <path class="cls-9" d="M513.55,667.45c-5.63,43.4-11.25,87.56-3.37,130.59,.71,3.87,1.53,7.87,.55,11.7-.98,3.83-4.33,7.44-8.48,7.46s-7.63-5.11-4.99-8.15c1.07,5.39-1.53,11.29-6.34,14.38-3.07-2.65-4.74-6.67-4.42-10.6,1.49,2.97-.78,7.03-4.22,7.55-14.58-6.93-19.04-24.29-21.81-39.54-11.56-63.54-28.53-188.95-56.56-247.63-13.66-28.58,14.82-22.29,23.71-37.08,21.61-36,96.61,15.33,114.9,49.72,9.35,17.59-.37,30.03-8.78,45.88-12.62,23.78-16.79,49.58-20.18,75.72Z"/>
    <path class="cls-9" d="M209.12,386.17c22.62,20.67,33.36,51.08,34.27,80.91,.91,29.83-7.18,59.32-17.69,87.5-10.51,28.18-23.51,55.53-33,84.03-17.65,52.99-22.84,109.68-14.48,164.56,.7,4.6,2.48,10.45-2.87,11.6-4.31,.6-5.94-2.19-6.28-5.2-.28,11.1-13.65,11.16-13.91-.88,4.45,3.89-2.98,11.21-8.62,9.12-5.64-2.09-7.84-8.45-8.98-14.09-3.44-16.98-3.56-34.39-4.75-51.65-3.88-56.52-19.34-112.26-45.27-163.21-14.56-28.61-32.42-55.82-43.68-85.75-11.27-29.93-15.42-63.91-2.11-93.18,13.29-29.25,42.51-46.08,75.32-44.97,34.43,1.16,63.98-4.42,92.05,21.23Z"/>
    <path class="cls-10" d="M535.5,567.82c-4.58-2.52-9.08-5.22-12.95-8.64-4.08-3.61-7.36-7.93-10.39-12.37-23.78-34.91-31.79-81.85-10.79-118.51,3.99-6.97,9-13.52,15.49-18.53,10.09-7.8,23.2-11.43,36.17-12.29,24.91-1.64,49.47,6.27,71.76,16.84,27.06,12.83,52.54,30.3,68.69,54.54,10.31,15.47,16.32,33.87,15.95,52.27-.39,19.53-9.48,33.9-19.46,50.3-7.03,11.55-12.04,18.86-26.76,21.14-19.97,3.1-41.61,1.58-61.38-1.8-23.29-3.98-45.87-11.69-66.32-22.94Z"/>
    <path class="cls-9" d="M787.71,486.48c-1.5,31.62-17.1,62.63-41.9,83.31-6.78,5.66-14.27,10.6-22.51,13.82-20.97,8.19-44.51,4.5-65.92-1.61-32.37-9.23-63.56-24.05-87.59-47.03-11.08-10.6-20.48-22.76-29.59-35.04-9.11-12.28-18.1-24.96-22.94-39.43-4.87-14.58-5.3-30.4-3.24-45.74,2.61-19.42,9.91-39.47,25.57-51.86,17.02-13.47,39.07-27.47,60.6-25.63,36.98,3.17,113.56,9.01,166.67,79.06,15.01,19.79,22.02,45.21,20.84,70.14Z"/>
    <path class="cls-9" d="M626.42,261.92c-27.24,19.66-50.76,43.95-71.81,69.93-13.63,16.82-26.62,35.12-30.87,56.07-4.25,20.95,2.36,45.14,20.82,55.94,20.39,11.93,48.45,3.53,65.55-13.28,11.23-11.04,18.75-24.95,24.6-39.25,5.75-14.07,5.51-24.43,6.15-39.03,.69-15.65,.26-31.11-2.24-46.54-.65-4-12.17-43.85-12.21-43.83Z"/>
    <path class="cls-9" d="M74.65,257.94c2.52-17.52,16.4-31.78,31.68-41.97,39.47-26.34,89.42-32.57,135.43-46.28,28.89-8.61,59.23-22.69,71.22-49.05,11.64-25.58,1.8-56.57-18.17-76.87-19.97-20.3-48.28-31.45-76.7-38.24-19.63-4.69-40.26-7.58-60.14-3.76-13.81,2.65-29.01,11.42-28.89,24.76,.09,9.33,7.88,16.97,16.25,21.85,12.48,7.28,26.99,10.67,40.99,14.81,14,4.14,28.22,9.43,38.36,19.46,10.14,10.03,15.1,25.95,8.17,38.25-8.76,15.55-30.44,18.37-48.81,21-43.16,6.18-84.86,21.59-121.1,44.76C33.02,205.79,5.33,232.89,.7,266.76c-2.18,15.92,.97,32.12,6.37,47.31,7.83,22.06,20.62,42.78,38.7,58.51,18.08,15.73,41.66,26.2,66.23,27.23,13.78,.58,27.99-1.9,39.74-8.8,11.76-6.9,20.77-18.54,22.29-31.54,1.48-12.55-4.84-25.34-15.15-33.09-11.88-8.93-25.75-7.48-39.92-8.49-27.26-1.94-47.77-35.88-44.31-59.95Z"/>
    <path class="cls-6" d="M620.49,288.02c-26.95,14.48-48.78,37.41-61.22,64.29,12.16-5.36,25.03-9.25,38.21-11.53,8.4-1.45,17.71-2.09,24.8,2.37,.12-3.22,2.43-6.71,2.56-10.9,.16-5.12,.1-10.24-.2-15.36-.15-2.67-4.62-28.62-4.15-28.87Z"/>
    <path class="cls-6" d="M796.5,476.6c-2.15-20.95-11.34-41.17-25.91-57,1.15,1.25,33.69-13.06,37.23-14.37,2.44-.9,13.02-6.36,14.87-4.36,1.33,1.45-1.93,8.76-2.29,10.58-4.64,23.4-10.23,44.68-23.89,65.15Z"/>
    <g>
      <path class="cls-8" d="M758.03,478.73c-.76,1.83-1.75,3.61-2.97,5.3-8.8,12.22-26.36,15.41-39.22,7.12-8.58-5.53-12.9-14.78-12.2-23.95-4.74,11.37-.77,24.7,10.31,31.83,12.86,8.29,30.42,5.1,39.22-7.12,2.93-4.06,4.52-8.61,4.86-13.18Z"/>
      <g>
        <path class="cls-2" d="M752.93,492.82c-8.8,12.22-26.36,15.41-39.22,7.12-12.86-8.29-16.14-24.91-7.34-37.13,8.8-12.22,26.37-15.41,39.22-7.12,12.86,8.29,16.14,24.91,7.34,37.13Z"/>
        <path class="cls-3" d="M713.19,500.67c-13.26-8.54-16.66-25.75-7.58-38.35,9.08-12.6,27.25-15.9,40.51-7.36s16.66,25.75,7.58,38.35c-9.08,12.6-27.25,15.9-40.51,7.36Zm31.88-44.26c-12.42-8-29.43-4.91-37.94,6.89-8.5,11.8-5.32,27.91,7.1,35.92,12.42,8,29.43,4.91,37.94-6.89,8.5-11.8,5.32-27.91-7.1-35.92Z"/>
        <path class="cls-5" d="M745.69,489.44c-5.76,8-17.25,10.08-25.67,4.66-8.41-5.42-10.56-16.3-4.8-24.3,5.76-8,17.25-10.08,25.67-4.66,8.41,5.42,10.56,16.3,4.8,24.3Z"/>
        <path class="cls-1" d="M721.48,492.73c4.82-3.17,9.48-6.66,13.21-10.95,3.74-4.29,6.52-9.46,7.13-14.98,.07,.05-2.54,.5-2.73,.56-1.32,.42-2.63,1.85-3.65,2.73-2.31,2-4.4,4.22-6.24,6.61-1.84,2.39-3.43,4.96-4.73,7.65-.67,1.39-1.27,2.82-1.79,4.28-.25,.69-.67,3.75-1.22,4.11Z"/>
        <path class="cls-2" d="M717.22,472.26c-.26,.53-.49,1.09-.52,1.68-.03,.58,.16,1.2,.63,1.58,.7,.56,1.79,.43,2.57-.04,.78-.47,1.32-1.2,1.91-1.88,1.57-1.79,3.57-3.24,5.81-4.2,3.78-1.62-1.02-3.83-3.29-3.04-3.04,1.05-5.77,3.1-7.11,5.9Z"/>
      </g>
      <path class="cls-2" d="M731.59,467.85c.53,.47,1.32,.62,2.04,.54,.73-.08,1.41-.37,2.06-.69,.34-.17,.73-.44,.66-.8-.02-.13-.1-.24-.19-.34-.77-.9-2.74-1.67-3.98-1.28-1.18,.36-1.53,1.74-.59,2.57Z"/>
    </g>
    <g>
      <path class="cls-8" d="M642.94,395.75c-.76,1.83-1.75,3.61-2.97,5.3-8.8,12.22-26.36,15.41-39.22,7.12-8.58-5.53-12.9-14.78-12.2-23.95-4.74,11.37-.77,24.7,10.31,31.83,12.86,8.29,30.42,5.1,39.22-7.12,2.93-4.06,4.52-8.61,4.86-13.18Z"/>
      <g>
        <path class="cls-2" d="M637.84,409.84c-8.8,12.22-26.36,15.41-39.22,7.12-12.86-8.29-16.14-24.91-7.34-37.13,8.8-12.22,26.37-15.41,39.22-7.12,12.86,8.29,16.14,24.91,7.34,37.13Z"/>
        <path class="cls-3" d="M598.1,417.69c-13.26-8.54-16.66-25.75-7.58-38.35,9.08-12.6,27.25-15.9,40.51-7.36,13.26,8.55,16.66,25.75,7.58,38.35-9.08,12.6-27.25,15.9-40.51,7.36Zm31.88-44.26c-12.42-8-29.43-4.91-37.94,6.89-8.5,11.8-5.32,27.91,7.1,35.92,12.42,8,29.43,4.91,37.94-6.89,8.5-11.8,5.32-27.91-7.1-35.92Z"/>
        <path class="cls-5" d="M630.6,406.46c-5.76,8-17.25,10.08-25.67,4.66-8.41-5.42-10.56-16.3-4.8-24.3,5.76-8,17.25-10.08,25.67-4.66,8.41,5.42,10.56,16.3,4.8,24.3Z"/>
        <path class="cls-1" d="M606.39,409.75c4.82-3.18,9.48-6.66,13.21-10.95,3.74-4.29,6.52-9.46,7.14-14.98,.07,.05-2.54,.5-2.73,.56-1.32,.42-2.63,1.85-3.65,2.73-2.31,2-4.4,4.22-6.24,6.61-1.84,2.39-3.43,4.96-4.73,7.65-.67,1.39-1.27,2.82-1.79,4.28-.25,.69-.67,3.75-1.22,4.11Z"/>
        <path class="cls-2" d="M602.13,389.28c-.26,.53-.49,1.09-.52,1.68-.03,.58,.16,1.2,.63,1.58,.7,.56,1.79,.43,2.57-.04s1.32-1.2,1.91-1.88c1.57-1.79,3.58-3.24,5.82-4.2,3.78-1.62-1.02-3.83-3.29-3.04-3.04,1.05-5.77,3.1-7.11,5.9Z"/>
      </g>
      <path class="cls-2" d="M616.5,384.87c.53,.47,1.32,.62,2.04,.54,.72-.08,1.41-.37,2.05-.69,.34-.17,.73-.44,.66-.8-.02-.13-.1-.24-.19-.34-.77-.9-2.74-1.67-3.98-1.28-1.18,.36-1.53,1.74-.59,2.57Z"/>
    </g>
    <path class="cls-11" d="M660.65,461.62c1.29,1.26,2.28,2.96,2.08,4.71-.16,1.33-.98,2.5-1.95,3.47-3.03,3.01-7.47,4.32-11.79,4.99-4.32,.68-8.76,.84-12.93,2.11-2.03-4.64-3.59-9.46-4.65-14.38-.45-2.09-.8-4.23-.46-6.34,.35-2.1,1.49-4.81,3.44-5.87,2.16-1.17,9.29-1.88,12.62,3.11,1.11,1.67,2.22,3.18,2.3,5.11,3.89-1.07,8.58,.38,11.35,3.09Z"/>
    <path class="cls-11" d="M600.32,485.41c.4-.34,.96-.27,1.33,.06,4,3.59,9.4,6.18,15.02,6.06,6.15-.12,11.33-3.94,14.88-8.46,.26-.34,.52-.68,.77-1.02,.08-.2,.17-.41,.25-.61,1.67-3.94,3.75-7.71,6.21-11.26,.67-.96,2.25-.01,1.59,.95-.37,.54-.74,1.08-1.09,1.63,.27,.29,.28,.71,.09,1.06-1.63,3.06-3.31,6.16-5.35,8.99-1.07,2.63-1.95,5.33-2.62,8.07-.38,1.58-.66,3.23-.5,4.85,.16,1.56,.69,3.08,1.32,4.52,1.31,2.98,3.13,5.74,5.37,8.16,2.53,2.73,5.54,5,8.93,6.72,.45,.23,.55,.84,.29,1.23-.29,.43-.85,.51-1.3,.28-6.3-3.19-11.48-8.38-14.48-14.53-.76-1.55-1.43-3.18-1.78-4.86-.36-1.7-.31-3.42-.01-5.13,.3-1.75,.75-3.48,1.29-5.2-1.2,1.2-2.53,2.29-4,3.25-2.67,1.73-5.71,2.83-8.94,3.07-2.96,.23-5.97-.31-8.71-1.33-3.21-1.2-6.11-3.02-8.61-5.26-.37-.33-.29-.95,.07-1.26Z"/>
    <path class="cls-7" d="M119.58,320.99c-2.36-4.78-3.07-10.19-2.73-15.47,.26-3.99,1.1-7.89,2.43-11.65,38.36-27.9,87.6-42,136.09-41.83,28.27,.1,56.24,4.78,83.1,13.02,2.47,5.36,8.68,9.25,13.53,12.43,10.81,7.12,23.21,12.28,32.32,21.51,12.77,12.94,16.8,31.64,17.07,49.39,.12,7.94-.43,16.04-3.44,23.47-2.94,7.25-8.15,13.59-14.46,18.57-15.54,12.28-38.09,15.97-57.01,9.39-15.24-5.3-27.36-16.39-38.09-27.91-10.73-11.52-20.7-23.92-33.66-33.16-12.96-9.24-29.81-15.08-45.57-11.21-13,3.19-23.68,12.5-36.74,15.46-12.42,2.81-25.67-.56-36.64-6.68-6.68-3.73-12.91-8.68-16.19-15.33Z"/>
    <path class="cls-7" d="M473.18,675.26c3.44-7.55,7.76-15.06,8.15-23.26,.66-13.91-10-26.06-11.93-39.85-.85-6.06,.05-12.33,2.58-17.96,2.07-4.62,5.54-9.03,10.54-10.68,9.23-3.05,18.88,4.79,22.08,13.51,3.2,8.72,2.33,18.31,4.16,27.38,1.33,6.57,5.42,10.78,9.01,15.53-1.87,9.53-3.24,19.19-4.5,28.9-4.5,34.63-8.97,69.74-6.6,104.37-3.09-1.43-5.84-3.72-7.64-6.47-4.2-6.45-4.52-14.45-4.62-22.04-.11-7.59-.22-15.56-4.11-22.18-5.21-8.86-16.39-13.9-20.15-23.4-3.04-7.68-.41-16.3,3.03-23.85Z"/>
    <path class="cls-7" d="M42.55,503.16c-4.83-12.83-8.34-26.4-9.74-40.03,14.15-7.72,29.33-13.99,45.62-10.96,14.46,2.69,26.07,12.8,35.37,23.62,9.29,10.82,17.23,22.87,28.42,31.93,9.23,7.47,20.72,12.97,27.01,22.81,8.88,13.89,4.58,31.99-2.67,46.77-7.25,14.78-17.32,28.79-19.78,44.9-1.84,12.03,.51,25.24-6.21,35.62-4.8,7.4-14.11,11.81-23.19,11.49-7.61-27.68-18.04-54.66-31.14-80.41-14.56-28.61-32.42-55.82-43.68-85.75Z"/>
    <path class="cls-4" d="M632.24,432.04c-2-4.26,.52-9.32,4.04-12.59s8.02-5.5,11.48-8.85c6.05-5.85,8.21-15.04,5.34-22.74-2.39-6.39-7.85-11.61-9.23-18.27-1.25-6.03,1.08-12.23,4.02-17.73,1.31-2.45,2.78-4.87,4.42-7.15,19.35,4.39,40.63,11.6,61.43,24.01-3.07,5.85-2.58,13.81,.08,20,1.77,4.13,4.57,7.81,6.23,11.98,2.82,7.09,2.02,15.4-2.12,21.92-4.14,6.51-11.53,11.09-19.47,12.06-12.13,1.49-24.35-4.97-36.32-2.61-5.38,1.06-10.25,3.84-15.63,4.93-5.37,1.09-12.03-.22-14.26-4.96Z"/>
    <path class="cls-4" d="M238.66,324.19c12.68,3.07,24.4,11.08,29.47,22.51,3.76,8.48,3.7,18.07,6.75,26.8,5.54,15.84,21.25,29.21,19.18,45.82-1.65,13.25-14.9,23.06-28.64,25.97-13.75,2.91-28.02,.46-41.89-1.7s-28.38-3.98-41.8,.09c-15.72,4.77-29.14,17.37-45.62,17.04-15.62-.31-28.56-12.96-33.2-27.08-4.64-14.12-2.68-29.39,.02-43.99,2.44-13.16,5.44-26.23,9.01-39.16,2.78-10.09,6.71-21.1,16.32-26.19,10.94-5.8,24.45-1.58,36.27,2.26,12.4,4.03,21.95,4.73,34.13,.52,12.76-4.41,26.53-6.16,40-2.9Z"/>
    <path class="cls-4" d="M465.43,358.34c-1.95,5.09-2.3,10.7-1.01,15.96,1.4,5.71,4.72,11.27,3.75,17.07-1.29,7.7-11.22,12.8-18.82,9.86-8.04-3.11-11.2-12.3-12.03-20.5-.83-8.2-.42-16.99-4.96-24-2.53-3.91-6.36-6.86-9.75-10.12-3.39-3.27-6.5-7.19-6.93-11.77-.43-4.57,2.85-9.7,7.69-10,5.29-.33,8.04,4.24,12.21,6.27,4.74,2.32,9.86,2.02,14.66,4,9.32,3.84,18.89,13.59,15.2,23.24Z"/>
    <path class="cls-4" d="M224.59,82.65c-10.14-10.03-24.35-15.32-38.36-19.46-14-4.14-28.51-7.53-40.99-14.81-8.37-4.88-16.16-12.53-16.25-21.85-.13-13.34,15.08-22.11,28.89-24.76,19.88-3.81,40.51-.93,60.14,3.76,25.14,6.01,50.18,15.43,69.45,31.56-.4,2.06-1.35,3.97-2.97,5.45-4.12,3.76-10.59,3.44-16.04,5.08-9.75,2.93-16.23,13.44-14.12,22.9,1.06,4.76,3.94,8.95,5.85,13.47,1.9,4.52,2.72,9.99-.17,14.04-1.66,2.32-4.32,3.84-7.07,4.88-5.47,2.06-11.31,2.45-17.18,1.94-.94-8.15-5.15-16.22-11.19-22.19Z"/>
    <path class="cls-11" d="M604.36,453.1c-11.21-13.41-24.37-25.13-38.84-34.93-14.56-9.86-30.45-17.75-47.08-23.46-9.54-3.28-19.33-5.81-29.26-7.6-1.61-.29-2.3,2.17-.68,2.46,17.33,3.11,34.23,8.54,50.12,16.13,15.69,7.5,30.43,17.05,43.56,28.46,7.32,6.37,14.14,13.3,20.37,20.74,1.06,1.26,2.85-.55,1.8-1.8h0Z"/>
    <path class="cls-11" d="M596.4,460.39c-14.76-9.98-30.79-18-47.56-24-17-6.08-34.74-10.04-52.7-11.85-10.14-1.02-20.35-1.32-30.54-.91-1.64,.07-1.65,2.62,0,2.55,17.94-.72,35.94,.79,53.51,4.47,17.31,3.63,34.21,9.32,50.13,17.03,8.97,4.34,17.62,9.32,25.88,14.91,1.36,.92,2.64-1.29,1.29-2.21h0Z"/>
    <path class="cls-11" d="M595.03,470.94c-15.5-4.16-31.43-6.7-47.45-7.62-15.99-.92-32.05-.22-47.89,2.07-9.01,1.3-17.94,3.13-26.74,5.46-1.59,.42-.91,2.88,.68,2.46,15.39-4.09,31.19-6.6,47.09-7.47,15.82-.87,31.75-.19,47.42,2.13,8.84,1.31,17.59,3.12,26.22,5.44,1.59,.43,2.27-2.04,.68-2.46h0Z"/>
    <path class="cls-11" d="M687.1,501.66c5.41,.87,10.5,2.91,15.47,5.15,4.78,2.15,9.55,4.35,14.3,6.57,9.29,4.35,18.51,8.87,27.45,13.9,17.67,9.95,34.05,22.07,46.9,37.9,7.02,8.65,12.9,18.21,17.49,28.35,.68,1.49,2.88,.2,2.2-1.29-8.34-18.41-20.97-34.74-36.5-47.66-15.95-13.27-34.4-23.06-53.07-31.91-5.31-2.52-10.66-4.97-16.01-7.4-5.65-2.57-11.39-5.08-17.56-6.08-1.61-.26-2.3,2.2-.68,2.46h0Z"/>
    <path class="cls-11" d="M675.59,513.56c9.4,2.38,17.7,7.56,25.15,13.64,7.89,6.44,15.26,13.63,22.43,20.86,7.33,7.39,14.24,15.2,20.3,23.68,5.75,8.05,10.81,16.6,15.08,25.53,4.78,9.99,8.53,20.46,11.22,31.2,.4,1.59,2.86,.92,2.46-.68-4.88-19.51-13.31-38.11-24.7-54.69-5.92-8.62-12.65-16.62-19.91-24.14-7.37-7.63-15.05-15.1-23.15-21.96-8.3-7.03-17.53-13.2-28.2-15.9-1.59-.4-2.27,2.06-.68,2.46h0Z"/>
    <path class="cls-11" d="M669.67,525.15c12.88,10.03,23.59,22.61,31.83,36.68,8.88,15.16,14.76,31.9,18.18,49.1,2.03,10.19,3.18,20.54,3.66,30.92,.08,1.64,2.63,1.65,2.55,0-.86-18.62-3.89-37.22-10.04-54.85-5.56-15.94-13.67-30.96-24.36-44.05-5.92-7.26-12.63-13.85-20.02-19.61-1.28-1-3.1,.8-1.81,1.81h0Z"/>
  </g>
</svg>