<?xml version="1.0" encoding="UTF-8"?>
<svg id="Layer_2" data-name="Layer 2" xmlns="http://www.w3.org/2000/svg" viewBox="0 0 1118.9 992.22">
  <defs>
    <style>
      .cls-1 {
        fill: #30211f;
      }

      .cls-2 {
        fill: #fff;
      }

      .cls-3 {
        fill: #d8d8d8;
      }

      .cls-4 {
        fill: #e0ba99;
      }

      .cls-5 {
        fill: #494c56;
      }

      .cls-6 {
        fill: #6b8c96;
      }

      .cls-7 {
        fill: #e5cac6;
      }

      .cls-8 {
        fill: #e9f1f4;
      }

      .cls-9 {
        fill: #e8e8e8;
      }

      .cls-10 {
        fill: #ccc;
      }

      .cls-11 {
        fill: #593e39;
      }

      .cls-12 {
        fill: #6784b2;
      }

      .cls-13 {
        fill: #516889;
      }
    </style>
  </defs>
  <path class="cls-13" d="M.87,873.7c-2.67,16.27,.51,30.37,14.09,40.59,16.08,12.09,36.75,19.92,56.15,24.48,23.61,5.55,48.05,6.85,72.23,6.78,26.99-.08,54-1.55,80.86-4.04,26.9-2.49,53.71-6.1,80.32-10.83,24.19-4.3,48.37-9.31,71.73-17.01,21.6-7.12,42.74-16.58,60.94-30.38,5.37-4.07,14.34-11.48,12.35-19.4-1.59-6.34-9.24-8.12-14.79-8.95-10.42-1.55-21.14-1.11-31.63-.66-29.23,1.25-58.35,4.34-87.62,4.72-13.1,.17-26.44,.04-39.38-2.21-6.2-1.08-12.53-2.58-18.08-5.66-4.34-2.4-11.45-7.13-8.53-12.83,2.46-4.8,9.77-8.16,14.3-10.76,20.46-11.74,43.7-17.86,66.87-21.45,24.91-3.85,50.64-5.28,75.81-4.28,27.1,1.08,52.12,7.2,76.54,18.97,21.32,10.27,42.19,20.9,64.49,28.96,44.03,15.91,90.64,24.62,137.37,26.82,47.21,2.22,94.88-2.28,140.73-13.82,22.51-5.67,45.81-12.39,66.39-23.33,17.7-9.41,35.91-25.71,35.51-47.5-.4-21.96-21.52-33.78-39.68-40.54-20.23-7.53-41.82-11.48-63.35-12.56-42.89-2.16-87.25,7.24-124.6,28.72-13.37,7.69-40.75,22.88-32.37,42.23,7.67,17.69,34.54,17.86,50.43,16.56,25.32-2.07,49.53-10.03,73.65-17.48,25.39-7.85,51.12-14.12,77.48-17.73,47.65-6.53,101.41-8.46,146.71,10.31,19.64,8.14,43.57,22.97,47.9,45.59,4.37,22.85-19.09,36.43-36.99,43.55-21.84,8.69-45.3,14.25-68.25,19.08-24.71,5.2-49.79,8.72-75.03,9.8-50.36,2.15-99.39-6.44-144.34-29.71-43.9-22.73-84.46-53.59-133.92-63.43-38.1-7.58-87.96-1.96-112.44,32.1-5.97,8.3-9.4,18.7-4.98,28.48,3.92,8.67,12.22,14.55,20.81,18.06,11.23,4.58,23.79,4.92,35.73,4.16,13.57-.87,27.1-2.73,40.61-4.21,55.47-6.09,110.93-12.17,166.4-18.26,27.51-3.02,55.02-6.14,82.55-9.04,25.99-2.74,52.71-5.06,78.63-.47,6.81,1.2,31.48,4.42,27.14,15.82-3.87,10.16-19.47,15.54-28.51,19.63-21.67,9.79-44.7,16.5-68.04,20.95-102.02,19.44-204.74-4.59-304.39-25.7-96.48-20.44-198.16-38.11-295.44-12.02-21.85,5.86-44.07,13.81-63.64,25.31-7.08,4.16-14.07,11.38-10.29,20.16,3.27,7.61,12.42,11.46,19.86,13.56,10.78,3.05,22.61,3.34,33.74,3.83,12.47,.54,24.96,.4,37.43-.21,25.22-1.24,50.3-4.36,75.32-7.68,49.32-6.55,99.34-14.34,149.18-9.26,11.78,1.2,25.1,2.3,36.17,6.77,3.49,1.41,11.47,4.99,8.44,9.69-2.89,4.48-12.25,7.32-16.95,9.43-21.52,9.62-46.39,17.08-70.16,16.81-9.26-.1-19.22-1.32-27.36-6.04-3.47-2.01-6.3-4.59-8.36-8.04-.51-.86-1.04-1.76-1.49-2.66,.05,.1-.33-.81-.32-.76-.07-.37,.07-.88,.1-.94,.6-1.05,.74-1.27,2-2.28,2-1.6,5.5-3.2,8.31-4.26,24.25-9.06,51.9-10.84,77.43-13.16,34.55-3.15,69.24-4.78,103.91-5.87,37.12-1.16,74.28-.93,111.38-2.48,47.86-2,96.32-6.76,142.2-21.21,22.27-7.01,43.51-16.51,63.56-28.47,21.19-12.65,41.75-25.79,66.34-30.69,45.5-9.07,93.45,5.76,132.91,28.09,4.46,2.52,8.47-4.34,4.01-6.86-39.72-22.49-86.8-36.94-132.7-30-24.07,3.64-44.92,14.64-65.49,27.12-20.65,12.52-41.62,23.42-64.56,31.15-81.71,27.53-169.4,22.76-254.35,25.32-34.68,1.04-69.37,2.63-103.93,5.68-26.46,2.33-54.49,4.31-79.88,12.71-6.17,2.04-14.25,4.81-17.77,10.79-4.4,7.49,2.97,16.5,8.55,20.9,14.06,11.08,35.13,11.16,51.99,8.81,23.91-3.33,47.92-10.87,69.19-22.37,7.35-3.97,13.82-11.18,7.92-19.41-5.76-8.04-17.07-10.27-26.1-12.04-23.87-4.67-48.29-5.85-72.56-5.01-50.42,1.73-100.08,11.64-150.23,16.35-24.89,2.34-49.98,3.44-74.93,1.52-10.46-.81-22.53-1.3-31.45-7.57-12.32-8.65,6.21-16.49,13.35-20,42.58-20.98,90.4-29.61,137.53-31.4,105.11-3.98,206.28,27.45,308.77,45.46,93.04,16.35,196,22.06,283.09-21.07,8.78-4.35,19.64-9.83,23.55-19.49,3.45-8.53-1.6-16.13-9.25-19.96-10.04-5.02-22.12-6.75-33.15-8.06-12.86-1.53-25.85-1.6-38.77-.98-26.93,1.29-53.77,5.01-80.56,7.95-27.73,3.04-55.47,6.09-83.2,9.13-27.73,3.04-55.47,6.09-83.2,9.13-13.87,1.52-27.73,3.04-41.6,4.57-13.32,1.46-26.74,3.48-40.15,3.67-12.22,.17-25.43-1.47-35.26-9.41-10.8-8.72-9.4-20.47-1.36-30.79,12.46-15.99,32.58-24.37,52-28.02,48.88-9.18,95.56,13.4,136.69,37.27,21.89,12.71,43.5,26.02,66.82,36,21.9,9.37,44.94,15.37,68.54,18.48,48.89,6.45,98.82,1.02,146.65-10.01,22.07-5.09,44.83-10.6,65.49-20.07,16.18-7.42,33.09-19.54,35.28-38.61,2.45-21.34-14.52-39.52-30.92-50.47-18.22-12.16-39.66-18.98-61.1-22.69-49.38-8.55-101.85-3.86-150.47,7.12-25.38,5.74-49.78,14.69-74.9,21.34-12.64,3.35-25.51,6.03-38.59,6.93-10.66,.73-22.04,.7-31.95-3.89-3.57-1.65-7.42-4.07-9.11-7.79-2.6-5.73,1.2-11.37,5.08-15.38,7.47-7.74,17.51-13.54,26.86-18.71,18.91-10.43,39.52-17.57,60.67-21.82,21.85-4.38,44.36-5.55,66.54-3.5,21.6,2,44.62,6.81,63.95,16.99,9.58,5.05,19.41,12.55,21.29,23.92,1.83,11.07-3.98,22.22-11.48,29.97-16.61,17.15-42.32,24.61-64.54,31.31-90.9,27.39-191.28,26.22-281.49-3.37-22.44-7.36-43.77-16.9-64.86-27.47-22.76-11.41-45.33-20.3-70.77-23.39-25.07-3.04-50.74-2.04-75.83,.34-23.23,2.21-46.58,6.2-68.44,14.59-10.35,3.97-20.38,8.85-29.61,15.03-7.35,4.92-14.77,12.15-10.01,21.61,6.52,12.95,24.25,16.6,37.35,18.33,28.33,3.74,57.48,1.15,85.85-.76,13.71-.92,27.41-1.96,41.14-2.45,9.56-.34,19.78-.98,29.21,1.07,2.74,.6,4.94,1.72,5.88,2.34,.09,.06,.36,.04,.16,.82,0,0-.34,1.1-1.01,2.21-3.15,5.13-8.57,8.74-13.4,12.06-9.42,6.48-19.54,11.92-29.98,16.55-22.02,9.75-45.55,15.91-69.06,20.87-26.6,5.61-53.51,9.89-80.5,13.07-27.24,3.21-54.63,5.25-82.05,6.1-25.23,.79-50.74,.95-75.76-2.85-21.7-3.29-42.11-10.02-61.3-20.68-6.29-3.49-12.91-7.52-16.94-13.66-4.73-7.2-4.65-15.96-3.3-24.18,.82-5-6.84-7.16-7.67-2.11H.87Z"/>
  <path class="cls-13" d="M8.74,874.69c.23-1.22,.55-2.42,.97-3.59,.05-.14,.32-.97,.14-.4-.17,.56,.11-.23,.18-.38,.26-.56,.55-1.11,.86-1.64,.29-.5,.59-.98,.91-1.45,.15-.22,.31-.43,.46-.64,.07-.1,.27-.48,0-.02-.3,.52,.11-.13,.18-.22,.72-.89,1.51-1.72,2.34-2.51,.42-.4,.85-.78,1.29-1.15,.2-.17,.41-.34,.62-.51,.7-.57-.39,.27,.15-.12,.98-.71,1.98-1.4,3.02-2.02,1.05-.63,2.12-1.21,3.21-1.75,.49-.24,.98-.47,1.47-.7,.29-.13,.58-.25,.87-.38,.41-.18-.33,.14-.33,.14,.17-.07,.33-.14,.5-.2,4.15-1.68,8.52-2.86,12.94-3.57,.22-.04,.45-.07,.67-.1,.17-.03,1.1-.16,.35-.05-.72,.1,.05,0,.22-.02,.24-.03,.49-.06,.73-.08,.87-.09,1.74-.16,2.62-.2,1.34-.06,2.69-.06,4.02,.11,3.63,.46,8.09,1.4,12,2.19,4.37,.88,8.74,1.72,13.16,2.31,7.73,1.03,15.56,1.08,23.3,.15,7.94-.95,15.74-2.75,23.22-5.6,7.43-2.83,14.29-6.63,21.02-10.81,3.24-2.01,6.46-4.05,9.76-5.95,1.61-.93,3.24-1.82,4.9-2.66,.83-.42,1.66-.82,2.5-1.21,.39-.18,.78-.35,1.17-.52-.03,.01,.62-.26,.31-.13-.26,.11,.62-.25,.71-.28,7.77-3.06,16.19-3.96,24.38-5.26,2.09-.33,4.17-.66,6.26-.99,2.06-.33,3.38-3,2.78-4.89-.72-2.24-2.68-3.13-4.89-2.78-4.33,.69-8.66,1.37-12.99,2.06-4.25,.67-8.53,1.33-12.68,2.51-7.61,2.16-14.57,6.04-21.27,10.16-6.65,4.09-13.2,8.37-20.35,11.56-1.59,.71-3.06,1.3-4.96,1.99-1.79,.65-3.6,1.25-5.43,1.79-3.8,1.13-7.67,2.01-11.58,2.65-.51,.08-1.01,.16-1.52,.24-.22,.03-.44,.06-.65,.09,.1-.01,.43-.06-.03,0-1.02,.13-2.04,.24-3.06,.34-1.97,.19-3.95,.31-5.93,.37-3.96,.12-7.92-.02-11.87-.41-7.96-.8-16.38-3.06-24.58-4.35-2.21-.35-4.41-.69-6.65-.66-1.9,.03-3.79,.22-5.67,.48-4.52,.61-8.97,1.64-13.26,3.2-9.93,3.62-19.39,9.88-23.17,20.19-.43,1.17-.74,2.37-.97,3.59-.38,2.04,.56,4.38,2.78,4.89,1.95,.45,4.48-.59,4.89-2.78h0Z"/>
  <path class="cls-10" d="M398.66,630.75c-27.14,28.08-52.35,58.17-82,83.57-29.66,25.4-64.68,46.25-103.34,51.71-3.8,.54-8.08,1.19-10.29,4.32-2.2,3.14,.76,8.94,4.25,7.34-3.72,1.31-5.67,6.2-3.88,9.72,1.8,3.52,6.9,4.8,10.15,2.55-2.88,2.15-4.09,6.29-2.8,9.65,5.03,2.99,11.37,2.06,17.12,.98,48.77-9.15,97.03-22.6,141.61-44.38,44.58-21.78,85.49-52.2,115.61-91.63,5.72-7.49,11.25-15.87,11.59-25.29,.39-10.58-6.12-20.57-14.85-26.55-30.58-20.97-60.31-5.62-83.16,18.02Z"/>
  <path class="cls-5" d="M443.11,708.6c-.12-.75-.28-1.5-.44-2.23-.89-4.04-1.92-8.18-4.37-11.52-2.92-3.98-7.62-6.39-12.45-7.41-4.83-1.02-9.84-.77-14.75-.29-16.24,1.59-32.13,5.65-47.94,9.69-5.84,1.49-11.95,3.13-16.32,7.28-4.37,4.14-6.19,11.65-2.25,16.21,1.84,2.14,4.56,3.26,7.1,4.5,4.5,2.19,9.13,5.58,9.8,10.54,.59,4.41-2.28,8.66-5.89,11.25-3.61,2.6-7.94,3.97-11.99,5.81-2.84,1.29-5.57,2.83-8.15,4.59-1.05,.72-2.13,1.54-2.62,2.72-.39,.95-.34,2.02-.27,3.05,.18,2.45,.33,5.86,.92,9.02,12.24-4.67,24.28-9.84,36.06-15.59,26.28-12.84,51.29-28.69,73.56-47.61Z"/>
  <path class="cls-10" d="M777.36,374.58c-24.81,15.56-40.79,42.71-47.69,71.16-6.91,28.45-5.56,58.29-1.74,87.32,3.82,29.03,10.08,57.73,12.9,86.88,5.26,54.18-1.58,109.57-20.38,160.66-1.58,4.28-4.39,9.56,.25,11.67,3.8,1.39,5.85-.98,6.78-3.81-2,10.71,10.14,13.29,12.84,1.78-4.85,2.89,.42,11.32,5.98,10.38s8.86-6.63,11.05-11.83c6.59-15.64,10.26-32.33,14.86-48.67,15.06-53.51,40.5-104.07,74.48-148.06,19.08-24.7,40.89-47.44,57.25-74.03,16.36-26.59,27.06-58.41,20.92-89.02-6.14-30.58-29.29-52.26-59.38-57.4-31.57-5.4-57.33-16.34-88.11,2.96Z"/>
  <path class="cls-5" d="M846.45,589.98c-1.84-7.74-3.19-15.6-4.02-23.52-.69-6.52-1.09-13.29-4.11-19.11-10.57-20.39-34.78-13.74-52.31-10.07-18.17,3.8-30.7,17.03-29.52,36.47,.24,3.91,.79,7.91,2.65,11.36,2.87,5.3,8.37,8.52,13.07,12.3,12.12,9.75,19.93,25.8,16.85,41.05-2.11,10.44-8.82,19.25-14.89,28-5.23,7.54-10.12,15.33-14.64,23.32-1.87,3.31-3.73,6.83-3.78,10.64-.05,4.28,2.19,8.21,4.37,11.9,4.51,7.64,9.01,15.27,13.52,22.91,14.89-52.4,39.73-101.94,72.81-145.23Z"/>
  <path class="cls-9" d="M523.24,514.68c36.29-39.99,66.91-84.76,101.64-126.11,34.73-41.36,74.55-79.98,123.44-102.93,38.03-17.85,86.27-24.39,119.86,.85,30.08,22.59,39.4,63.7,39.8,101.32,1,93.77-39.22,52.32-116.23,146.22-44.29,54-123.97,107.88-223.06,184.87-52.74,40.98-111.77-7.91-178.19-.93-17.63,1.85-38.38,2.52-49.7-11.13-11.38-13.72-6.65-34.59,1.88-50.23,20.53-37.65,57.8-62.72,94.08-85.59,8.28-5.22,7.91-8.12,16.4-11.77,8.78-3.77,18.58-4.2,27.49-8.88,16.43-8.63,30.22-22.06,42.59-35.68Z"/>
  <path class="cls-5" d="M576.99,535.6c9.46-2.26,17.66-7.94,26.28-12.44s18.62-7.93,27.96-5.23c5.14,1.48,9.63,4.71,14.72,6.35,14,4.5,28.88-3.85,39.7-13.81,6.05-5.57,11.84-12.44,12.34-20.64,.34-5.69-1.97-11.26-5.14-16-7.67-11.5-20.04-18.93-29.38-29.11-9.34-10.19-15.42-26.2-7.61-37.61,6.31-9.22,18.69-11.4,28.65-16.45,22.75-11.53,33.01-42.66,21.58-65.46-1.78-3.54-3.98-6.82-6.52-9.82-27.73,20.94-52.28,46.49-74.7,73.19-27.25,32.45-51.98,66.99-78.9,99.69,1.36,4.63,2.16,9.44,2.17,14.52,.01,8.39-1.56,17.48,2.83,24.62,5.09,8.28,16.55,10.48,26.01,8.21Z"/>
  <path class="cls-3" d="M826.46,487.66c-1.98-.25-3.88,.75-5.58,1.78-12.81,7.72-23.33,18.64-33.95,29.17-62.56,62.04-134.1,115.03-211.68,156.79-14.86,8-27.22,12.9-37.1,26.93-6.87,9.75-12.58,20.33-16.97,31.42,18.28,.55,35.87-3.33,52.81-16.49,99.09-76.99,178.77-130.87,223.06-184.87,12.43-15.16,23.91-26.79,34.4-36.03,.23-3.9-1.29-8.21-4.99-8.68Z"/>
  <path class="cls-9" d="M927.15,292.81c10.05-14.12,10.19-33.11,6.64-50.08-9.16-43.84-38.96-79.92-61.06-118.88-13.87-24.46-25.06-53.74-15.51-80.18,9.26-25.66,36.77-41.59,63.99-43.45,27.22-1.86,53.97,8.09,77.88,21.25,16.51,9.08,32.48,20.09,43.45,35.41,7.62,10.64,12.07,26.54,3.02,36-6.32,6.61-16.76,7.15-25.73,5.34-13.39-2.7-25.53-9.47-37.84-15.37-12.31-5.91-25.53-11.13-39.17-10.38-13.64,.75-27.71,8.99-31.26,22.18-4.49,16.67,8.37,32.41,19.1,45.93,25.22,31.75,43.24,69.19,52.33,108.71,7.5,32.63,8.14,69.55-11.46,96.69-9.21,12.76-22.24,22.35-36.11,29.79-20.15,10.81-42.77,17.53-65.64,17.32-22.87-.21-45.95-7.65-63.35-22.48-9.76-8.32-17.76-19.09-21.13-31.47-3.37-12.38-1.67-26.41,6.02-36.67,7.42-9.91,20.32-15.05,32.54-14.06,14.08,1.14,22.54,10.96,32.86,19.22,19.85,15.88,56.6,4.61,70.42-14.8Z"/>
  <path class="cls-5" d="M1042.55,56.88c-10.97-15.32-26.94-26.32-43.45-35.41-23.91-13.15-50.66-23.11-77.88-21.25-27.22,1.86-54.73,17.79-63.99,43.45-6.05,16.76-3.77,34.66,2.24,51.74,5.87,.14,11.84-.73,17.35,2.08,7.22,3.67,10.6,11.52,15.46,17.55,7.25,8.98,18.58,14.46,30.1,14.77-7.86-10.86-14.16-22.77-10.81-35.19,3.55-13.19,17.62-21.43,31.26-22.18,13.64-.75,26.86,4.48,39.17,10.38,12.31,5.91,24.46,12.67,37.84,15.37,8.97,1.81,19.41,1.28,25.73-5.34,9.05-9.46,4.6-25.36-3.02-36Z"/>
  <g>
    <path class="cls-9" d="M202.59,537.03c24.67-3.73,50.51-.03,73.55,10.53,2.69,1.23,5.4,2.6,7.5,4.73,3,3.05,4.45,7.32,5.56,11.49,4.73,17.68,5.1,36.11,3.22,54.12-.94,8.99-2.45,17.9-4.24,26.73-1.4,6.94-2.04,20.77-6.42,26.26-15.25,19.08-53.07-60.66-58.68-73.3-2.13-4.79-21.99-60.33-20.49-60.56Z"/>
    <path class="cls-10" d="M492.56,685.91c4.04-2.82,8.01-5.81,11.32-9.46,3.5-3.84,6.2-8.33,8.66-12.91,19.32-35.99,23.1-82.52,.8-116.74-4.24-6.5-9.39-12.52-15.79-16.92-9.95-6.85-22.38-9.38-34.46-9.21-23.21,.33-45.34,9.98-65.17,22.05-24.07,14.65-46.32,33.72-59.4,58.68-8.35,15.93-12.49,34.39-10.72,52.36,1.88,19.07-3.62,36.35,6.9,51.61,7.41,10.75,27.64,13.58,41.46,14.67,18.74,1.48,38.67-1.69,56.72-6.53,21.26-5.7,41.58-15,59.66-27.59Z"/>
    <path class="cls-9" d="M252.62,625.97c3.84,30.8,20.7,59.92,45.28,78.22,6.72,5,14.04,9.26,21.93,11.76,20.06,6.38,41.58,.94,60.94-6.7,29.27-11.54,57.01-28.46,77.49-52.8,9.44-11.23,17.21-23.85,24.69-36.57,7.48-12.71,14.83-25.81,18.19-40.35,3.38-14.63,2.55-30.14-.55-44.98-3.93-18.79-12.24-37.83-27.71-48.73-16.81-11.85-38.32-23.83-58.12-20.35-34.01,5.97-104.5,17.64-148.26,90.28-12.37,20.52-16.9,45.92-13.86,70.22Z"/>
    <path class="cls-9" d="M384.61,393.81c26.76,17.1,50.43,39.04,71.95,62.8,13.93,15.39,27.38,32.28,32.95,52.43,5.57,20.15,1.31,44.33-14.95,56.33-17.97,13.25-44.61,7.22-61.75-7.89-11.26-9.92-19.31-22.94-25.83-36.47-6.42-13.32-7-23.46-8.73-37.69-1.85-15.25-2.66-30.4-1.54-45.69,.29-3.97,7.87-43.83,7.91-43.81Z"/>
    <path class="cls-7" d="M392.12,418.88c26.09,12.07,48.09,32.79,61.7,58.12-11.68-4.3-23.9-7.1-36.29-8.31-7.89-.77-16.57-.67-22.79,4.25-.36-3.14-2.77-6.38-3.21-10.46-.55-4.99-.89-10.01-1.01-15.03-.07-2.63,2.05-28.35,1.6-28.56Z"/>
    <path class="cls-7" d="M243.7,617c.37-20.65,7.31-41.14,19.58-57.76-.97,1.31-32.22-10.15-35.6-11.16-2.33-.7-12.55-5.21-14.11-3.1-1.12,1.52,2.47,8.41,2.95,10.17,6.12,22.52,12.94,42.9,27.19,61.86Z"/>
    <g>
      <path class="cls-8" d="M279.51,616.08c.85,1.73,1.9,3.39,3.16,4.95,9.1,11.27,25.62,13.02,36.89,3.92,7.52-6.08,10.8-15.46,9.45-24.37,5.27,10.75,2.63,24.09-7.08,31.93-11.27,9.1-27.78,7.35-36.89-3.92-3.03-3.75-4.85-8.07-5.53-12.51Z"/>
      <g>
        <path class="cls-2" d="M285.33,629.47c9.1,11.27,25.62,13.02,36.89,3.92,11.27-9.1,13.02-25.62,3.92-36.89-9.1-11.27-25.62-13.02-36.89-3.92-11.27,9.1-13.02,25.62-3.92,36.89Z"/>
        <path class="cls-4" d="M284.66,630.01c-9.39-11.62-7.57-28.71,4.05-38.1,11.62-9.39,28.71-7.57,38.1,4.05,9.39,11.62,7.57,28.71-4.05,38.1-11.62,9.39-28.71,7.57-38.1-4.05Zm1.34-1.08c8.79,10.88,24.8,12.58,35.68,3.79,10.88-8.79,12.58-24.8,3.79-35.68-8.79-10.88-24.79-12.58-35.68-3.79-10.88,8.79-12.58,24.8-3.79,35.68Z"/>
        <path class="cls-6" d="M291.78,625.6c5.96,7.37,16.76,8.52,24.14,2.56,7.37-5.96,8.52-16.76,2.56-24.14-5.96-7.37-16.76-8.52-24.14-2.56-7.37,5.96-8.52,16.77-2.56,24.14Z"/>
        <path class="cls-1" d="M314.45,626.93c-4.71-2.73-9.3-5.77-13.09-9.68-3.79-3.9-6.77-8.75-7.77-14.1-.06,.06,2.39,.29,2.57,.33,1.25,.31,2.58,1.6,3.59,2.38,2.29,1.77,4.4,3.78,6.29,5.98,1.89,2.2,3.56,4.58,4.97,7.11,.73,1.31,1.4,2.66,1.99,4.04,.28,.66,.92,3.62,1.45,3.93Z"/>
        <path class="cls-2" d="M316.81,606.59c.28,.5,.53,1.03,.61,1.6,.08,.57-.05,1.19-.46,1.6-.6,.6-1.63,.56-2.38,.16-.75-.4-1.32-1.07-1.91-1.69-1.59-1.63-3.56-2.89-5.71-3.66-3.63-1.29,.65-3.82,2.81-3.23,2.9,.79,5.58,2.59,7.05,5.22Z"/>
      </g>
      <path class="cls-2" d="M303.16,603.39c-.46,.5-1.17,.71-1.85,.69-.68-.02-1.33-.25-1.96-.52-.33-.14-.71-.38-.67-.73,.01-.13,.08-.24,.15-.35,.65-.94,2.41-1.84,3.59-1.56,1.12,.27,1.55,1.58,.74,2.47Z"/>
    </g>
    <g>
      <path class="cls-8" d="M379.69,525.98c.85,1.73,1.9,3.39,3.16,4.95,9.1,11.27,25.62,13.02,36.89,3.92,7.52-6.08,10.8-15.46,9.45-24.37,5.27,10.75,2.63,24.09-7.08,31.93-11.27,9.1-27.78,7.35-36.89-3.92-3.03-3.75-4.85-8.07-5.53-12.51Z"/>
      <g>
        <path class="cls-2" d="M385.5,539.37c9.1,11.27,25.62,13.02,36.89,3.92s13.02-25.62,3.92-36.89c-9.1-11.27-25.62-13.02-36.89-3.92-11.27,9.1-13.02,25.62-3.92,36.89Z"/>
        <path class="cls-4" d="M384.83,539.91c-9.39-11.62-7.57-28.71,4.05-38.1,11.62-9.39,28.71-7.57,38.09,4.05,9.39,11.62,7.57,28.71-4.05,38.1-11.62,9.39-28.71,7.57-38.1-4.05Zm1.34-1.08c8.79,10.88,24.8,12.58,35.68,3.79,10.88-8.79,12.58-24.8,3.79-35.68-8.79-10.88-24.8-12.58-35.68-3.79-10.88,8.79-12.58,24.8-3.79,35.68Z"/>
        <path class="cls-6" d="M391.95,535.5c5.96,7.37,16.77,8.52,24.14,2.56,7.37-5.96,8.52-16.76,2.56-24.14-5.96-7.37-16.76-8.52-24.14-2.56-7.37,5.96-8.52,16.77-2.56,24.14Z"/>
        <path class="cls-1" d="M414.63,536.83c-4.71-2.73-9.3-5.77-13.09-9.68-3.79-3.9-6.77-8.75-7.77-14.1-.06,.06,2.39,.29,2.57,.33,1.25,.31,2.58,1.6,3.59,2.38,2.29,1.77,4.4,3.78,6.29,5.98,1.89,2.2,3.56,4.58,4.97,7.11,.73,1.31,1.4,2.66,1.99,4.04,.28,.66,.92,3.62,1.45,3.93Z"/>
        <path class="cls-2" d="M416.99,516.49c.28,.5,.53,1.03,.61,1.6,.08,.57-.06,1.19-.46,1.6-.6,.6-1.63,.56-2.38,.16-.75-.4-1.32-1.07-1.91-1.69-1.59-1.63-3.56-2.89-5.71-3.66-3.63-1.29,.65-3.82,2.81-3.23,2.9,.79,5.58,2.59,7.05,5.22Z"/>
      </g>
      <path class="cls-2" d="M403.33,513.28c-.46,.5-1.17,.71-1.85,.69-.68-.02-1.33-.25-1.96-.52-.33-.14-.71-.38-.67-.73,.01-.13,.08-.24,.15-.35,.65-.94,2.41-1.84,3.59-1.56,1.12,.27,1.56,1.58,.74,2.47Z"/>
    </g>
    <path class="cls-11" d="M368.39,591.79c-1.09,1.34-1.88,3.07-1.56,4.77,.25,1.28,1.1,2.37,2.08,3.24,3.04,2.71,7.26,3.64,11.31,3.97,4.06,.33,8.18,.15,12.14,1.06,1.52-4.69,2.59-9.53,3.19-14.43,.25-2.07,.42-4.2-.07-6.23-.48-2.03-1.75-4.59-3.64-5.47-2.09-.98-8.75-1.12-11.45,4.02-.9,1.72-1.81,3.28-1.73,5.17-3.69-.75-7.92,1.04-10.27,3.91Z"/>
    <path class="cls-11" d="M426.13,610.36c-.4-.31-.91-.19-1.23,.16-3.43,3.82-8.22,6.77-13.44,7.1-5.71,.36-10.8-2.97-14.44-7.11-.27-.31-.53-.62-.79-.94-.09-.19-.18-.38-.28-.57-1.85-3.72-4.07-7.25-6.62-10.53-.69-.89-2.09,.16-1.4,1.05,.39,.5,.76,1,1.14,1.51-.23,.3-.2,.71,0,1.05,1.74,2.86,3.54,5.76,5.66,8.38,1.2,2.49,2.22,5.06,3.05,7.69,.48,1.52,.86,3.1,.84,4.71-.02,1.54-.4,3.07-.87,4.52-.98,3.02-2.45,5.86-4.34,8.4-2.13,2.87-4.75,5.32-7.75,7.26-.4,.26-.44,.87-.17,1.22,.3,.4,.83,.43,1.22,.17,5.59-3.61,9.98-9.08,12.28-15.33,.58-1.58,1.08-3.22,1.27-4.89,.2-1.69,.03-3.37-.38-5.02-.42-1.68-.97-3.35-1.6-4.98,1.21,1.07,2.52,2.04,3.96,2.87,2.6,1.49,5.51,2.32,8.52,2.31,2.75,0,5.5-.77,7.96-1.98,2.88-1.42,5.43-3.43,7.57-5.82,.32-.35,.19-.95-.16-1.23Z"/>
    <path class="cls-5" d="M392.42,560.64c1.52-4.32-1.2-9.07-4.72-12-3.52-2.93-7.86-4.76-11.32-7.76-6.06-5.25-8.77-14.07-6.71-21.82,1.72-6.44,6.38-11.97,7.14-18.59,.69-6-1.95-11.87-5.1-17.02-1.4-2.3-2.95-4.54-4.65-6.65-17.58,5.79-36.74,14.51-55.04,28.25,3.3,5.48,3.46,13.3,1.48,19.56-1.32,4.17-3.63,7.99-4.84,12.2-2.06,7.15-.67,15.22,3.67,21.27,4.34,6.05,11.54,9.95,18.97,10.28,11.35,.51,22.17-6.76,33.45-5.38,5.07,.62,9.8,2.96,14.86,3.61,5.06,.65,11.13-1.15,12.82-5.96Z"/>
    <path class="cls-11" d="M421.83,580.5c9.13-13.66,20.2-25.98,32.73-36.61,12.52-10.63,26.51-19.53,41.44-26.39,8.45-3.88,17.22-7.07,26.18-9.56,1.51-.42,.87-2.77-.65-2.35-16.09,4.47-31.53,11.23-45.77,19.96-14.23,8.73-27.29,19.4-38.63,31.65-6.37,6.88-12.2,14.27-17.41,22.07-.87,1.31,1.24,2.53,2.1,1.23h0Z"/>
    <path class="cls-11" d="M429.36,587.47c12.67-10.72,26.75-19.73,41.74-26.86,14.98-7.12,30.88-12.32,47.18-15.45,9.23-1.77,18.57-2.84,27.96-3.24,1.56-.06,1.57-2.5,0-2.44-16.86,.7-33.62,3.61-49.74,8.61-16.11,5-31.6,12.04-45.93,20.95-8.04,5-15.7,10.59-22.93,16.7-1.2,1.01,.53,2.73,1.72,1.72h0Z"/>
    <path class="cls-11" d="M430.64,598.15c27.61-10.36,57.34-14.72,86.76-12.76,8.41,.56,16.77,1.64,25.05,3.23,1.53,.29,2.19-2.05,.65-2.35-29.42-5.66-59.97-4.91-89.09,2.14-8.15,1.97-16.17,4.45-24.01,7.39-1.46,.55-.83,2.9,.65,2.35h0Z"/>
    <path class="cls-11" d="M346.27,630.64c-4.93,1.27-9.48,3.62-13.87,6.15-4.28,2.47-8.53,5-12.77,7.55-8.5,5.1-16.92,10.37-25,16.13-16,11.4-30.45,24.83-41.17,41.41-5.96,9.21-10.73,19.16-14.23,29.55-.5,1.49,1.85,2.13,2.35,.65,6.17-18.26,16.41-35.01,29.83-48.84,13.48-13.89,29.64-24.76,46.1-34.77,4.64-2.82,9.32-5.58,14-8.33,4.9-2.88,9.87-5.71,15.41-7.14,1.52-.39,.88-2.74-.65-2.35h0Z"/>
    <path class="cls-11" d="M357.85,641.39c-8.65,3.1-15.99,8.72-22.45,15.15-7,6.96-13.35,14.68-19.52,22.38-6.37,7.96-12.3,16.25-17.37,25.1-4.85,8.48-8.97,17.39-12.31,26.56-3.81,10.46-6.58,21.29-8.28,32.29-.24,1.53,2.11,2.2,2.35,.65,2.95-19.09,9.14-37.63,18.32-54.63,4.73-8.77,10.28-17.05,16.38-24.92,6.04-7.78,12.38-15.43,19.13-22.61,6.91-7.36,14.77-14.18,24.4-17.64,1.47-.53,.83-2.88-.65-2.35h0Z"/>
    <path class="cls-11" d="M363.2,652.94c-11.49,11.14-20.56,24.61-27.13,39.18-7.15,15.85-11.32,32.86-13.16,50.11-1.09,10.22-1.36,20.52-1,30.79,.06,1.56,2.49,1.57,2.44,0-.64-17.89,.67-35.89,4.88-53.32,3.8-15.71,9.98-30.86,18.8-44.44,4.86-7.47,10.5-14.4,16.9-20.6,1.13-1.09-.6-2.82-1.72-1.72h0Z"/>
  </g>
  <path class="cls-9" d="M498.22,666.07c-27.14,28.08-52.35,58.17-82,83.57-29.66,25.4-64.68,46.25-103.34,51.71-3.8,.54-8.08,1.19-10.29,4.32-2.2,3.14,.76,8.94,4.25,7.34-3.72,1.31-5.67,6.2-3.88,9.72,1.8,3.52,6.9,4.8,10.15,2.55-2.88,2.15-4.08,6.29-2.8,9.64,5.03,2.99,11.37,2.06,17.12,.98,48.77-9.15,97.03-22.6,141.61-44.38,44.58-21.78,85.49-52.2,115.61-91.63,5.72-7.49,11.25-15.87,11.59-25.29,.39-10.58-6.12-20.57-14.85-26.56-30.58-20.97-60.31-5.62-83.16,18.02Z"/>
  <path class="cls-3" d="M582.71,648.76s0,0,0,0c4.28,5,7.11,11.14,7.32,17.68,.3,9.42-4.64,18.16-9.84,26.03-27.35,41.4-66.08,74.55-109.07,99.33-.32,.19-.65,.37-.97,.55,.07-.03,.14-.07,.21-.1,44.58-21.78,85.49-52.2,115.61-91.63,5.72-7.49,11.25-15.87,11.59-25.29,.39-10.58-6.12-20.57-14.85-26.56Z"/>
  <path class="cls-3" d="M767.41,434.45c3.48,32.1,12.64,63.65,27.04,93.12,1.54,3.15,3.16,6.69,1.81,9.93-.82,1.95-2.59,3.44-4.31,4.85-7.2,5.9-22.16,24.29-31.67,14.51-7.41-7.61-6.81-31.46-7.34-41.22-.75-13.77,.08-27.61,2.5-41.25,1.24-6.98,2.89-13.91,4.96-20.74,1.5-4.96,7.55-14.39,7.03-19.21Z"/>
  <path class="cls-9" d="M800.9,384.76c-21.96,19.36-33.34,48.74-35.55,77.94-2.21,29.2,3.94,58.42,12.41,86.45,8.47,28.03,19.28,55.34,26.79,83.64,13.95,52.62,16.17,108.38,5.87,161.84-.86,4.48-2.79,10.14,2.13,11.48,3.98,.76,5.62-1.92,6.07-4.85-.25,10.89,12.16,11.47,12.96-.32-4.31,3.63,2.25,11.11,7.58,9.28,5.34-1.83,7.67-7.97,8.99-13.46,3.97-16.5,4.89-33.56,6.79-50.43,6.21-55.24,29.98-152.01,50.75-203.57,39.65-98.44,10.69-227.67-19.84-227.88-32.03-.22-57.69,45.85-84.94,69.88Z"/>
  <path class="cls-5" d="M468.67,791.72c13.69-6.69,27.03-14.2,39.82-22.52-4.64-2.68-10.31-3.7-15.74-4.24-16.93-1.68-34.17-.04-50.48,4.79-10.18,3.02-20.79,7.31-31.07,4.64-6-1.55-11.16-5.34-16.86-7.74-24.61,17.43-52.14,30.7-81.83,34.88-3.8,.54-8.08,1.19-10.29,4.32-2.2,3.14,.76,8.94,4.25,7.34-3.72,1.31-5.67,6.2-3.88,9.72,1.8,3.52,6.9,4.8,10.15,2.55-2.88,2.15-4.08,6.29-2.8,9.65,5.03,2.99,11.37,2.06,17.12,.98,48.77-9.15,97.03-22.6,141.61-44.38Z"/>
  <path class="cls-5" d="M733.38,324c-2.33,1.9-4.86,4.21-4.9,7.21-.11,7.13,11.31,6.73,16.46,11.66,4.29,4.11,3.15,11.57-.57,16.21-3.72,4.63-9.26,7.33-14.25,10.56-14.83,9.62-25.64,25.25-29.39,42.52-1.12,5.15-1.49,11.01,1.67,15.23,5.33,7.1,16.49,4.99,24.47,1.11,19.35-9.4,35.58-24.91,55.9-31.97,20.32-7.06,48.24-1.03,54.06,19.68,2.15,7.66,.84,15.81-.49,23.65-1.67,9.9-3.35,19.81-5.02,29.71-2.48,14.67-2.15,34.36,12.02,38.92,13.69,4.4,25.46-10.35,31.75-23.28,11.46-23.56,20.82-50.82,12.08-75.52-3.52-9.96-9.86-18.96-11.77-29.35-2.15-11.71,1.58-23.66,1.58-35.56,0-11.9-6.1-25.75-17.9-27.29-5.29-.69-10.52,1.3-15.77,2.27-22.3,4.12-35.11-11.03-54.52-15.93-21.54-5.44-39.48,7.13-55.41,20.17Z"/>
  <path class="cls-12" d="M228.08,782.07c1.2,30.55-22.6,56.28-53.14,57.48-30.55,1.2-56.28-22.6-57.48-53.14-1.2-30.55,22.6-56.28,53.14-57.48,30.55-1.2,56.28,22.6,57.48,53.14Z"/>
  <path class="cls-13" d="M119.01,798.7c22-12.23,42.19-27.83,59.58-46.03,4.91-5.14,9.58-10.49,14.03-16.02,1.3-1.62,1.7-4.06,0-5.62-1.44-1.33-4.23-1.73-5.62,0-7.78,9.69-16.28,18.8-25.42,27.21-4.55,4.18-9.25,8.2-14.09,12.03-2.27,1.8-4.41,3.41-7,5.3-2.53,1.84-5.09,3.63-7.68,5.37-5.78,3.88-11.72,7.51-17.8,10.89-1.82,1.01-2.57,3.66-1.43,5.44,1.19,1.84,3.49,2.51,5.44,1.43h0Z"/>
  <path class="cls-13" d="M121.95,814.19c7.22-1.06,13.27-5.67,18.95-9.93,5.73-4.3,11.32-8.78,16.73-13.48,10.63-9.23,20.59-19.25,29.75-29.94,5.32-6.21,10.38-12.65,15.18-19.27,1.22-1.69,.34-4.5-1.43-5.44-2.06-1.09-4.13-.38-5.44,1.43-7.83,10.81-16.7,21.32-26.28,31.15-4.76,4.89-9.7,9.6-14.79,14.14-2.6,2.32-5.25,4.58-7.93,6.8-1.23,1.02-2.47,2.02-3.72,3.02-.68,.54-1.36,1.08-2.05,1.62-.34,.27-.69,.54-1.03,.8-.38,.3-.46,.36-.23,.18-.23,.18-.46,.35-.69,.53-2.98,2.28-5.97,4.57-9.13,6.6-3.39,2.18-6.07,3.53-10.01,4.1-2.06,.3-3.38,3.02-2.78,4.89,.73,2.26,2.68,3.1,4.89,2.78h0Z"/>
  <path class="cls-13" d="M130.52,825.82c7.15-2.25,13.45-6.26,19.37-10.78,5.96-4.55,11.79-9.29,17.6-14.04,11.33-9.26,22.4-18.91,32.26-29.74,5.66-6.22,10.92-12.84,15.56-19.85,1.15-1.74,.4-4.47-1.43-5.44-2-1.05-4.21-.43-5.44,1.43-7.71,11.64-17.31,22.04-27.78,31.75-10.43,9.67-21.55,18.58-32.7,27.39-5.64,4.45-12.67,9.45-19.57,11.61-1.98,.62-3.45,2.8-2.78,4.89,.64,1.99,2.76,3.44,4.89,2.78h0Z"/>
  <path class="cls-13" d="M143.44,833.6c23.38-16.88,45.87-35.04,67.17-54.48,5.67-5.18,11.13-10.62,15.32-17.11,1.13-1.75,.41-4.47-1.43-5.44-1.98-1.04-4.23-.44-5.44,1.43-3.4,5.25-7.96,9.85-12.78,14.3-5.09,4.71-10.3,9.29-15.54,13.82-10.5,9.08-21.54,18.13-32.36,26.46-6.25,4.81-12.57,9.53-18.96,14.14-1.68,1.21-2.67,3.51-1.42,5.44,1.07,1.67,3.63,2.73,5.44,1.43h0Z"/>
  <path class="cls-13" d="M128.36,746.38c-1.98,16.51,3.91,32.96,10.22,47.94,3.12,7.42,6.75,14.48,11.7,20.85,4.29,5.52,9.42,10.29,15.12,14.34,6.42,4.56,13.67,8,21.24,10.17,2,.57,4.42-.7,4.89-2.78,.48-2.12-.64-4.27-2.78-4.89-1.56-.45-3.11-.95-4.64-1.51-.73-.27-1.46-.56-2.18-.85-.43-.17-.03,0,.05,.03-.18-.08-.36-.15-.54-.23-.42-.18-.83-.37-1.25-.56-2.95-1.36-5.8-2.94-8.53-4.71-1.36-.89-2.69-1.83-3.99-2.8-.36-.27-.04-.03,.03,.03-.15-.12-.31-.24-.46-.36-.31-.24-.61-.49-.91-.74-.65-.54-1.3-1.09-1.93-1.65-2.43-2.16-4.71-4.49-6.8-6.98-.5-.6-.99-1.2-1.47-1.82,.35,.45-.23-.31-.33-.44-.27-.37-.54-.73-.8-1.1-1.01-1.42-1.96-2.87-2.85-4.36-2-3.34-3.74-6.83-5.31-10.39-.75-1.69-1.26-2.93-2-4.76-.73-1.81-1.43-3.62-2.12-5.45-1.39-3.72-2.69-7.47-3.78-11.29-2.45-8.56-3.71-16.76-2.65-25.7,.25-2.07-2-4.06-3.97-3.97-2.37,.11-3.71,1.75-3.97,3.97h0Z"/>
  <path class="cls-13" d="M139.24,735.56c-1.24,4.49-.83,9.1,.09,13.61,.81,3.96,1.89,7.88,2.97,11.77,2.19,7.9,4.84,15.7,8.4,23.09,3.53,7.32,8.13,14.16,13.83,19.97,5.92,6.04,13.03,10.86,20.47,14.84,8.39,4.5,17.93,7.99,27.6,6.86,2.06-.24,4.08-1.66,3.97-3.97-.09-1.95-1.76-4.23-3.97-3.97-3.94,.46-7.15,.21-10.7-.64-1.94-.46-3.85-1.07-5.71-1.78-1.6-.61-3.02-1.24-4.79-2.12-7-3.46-13.64-7.65-19.2-12.84-5.6-5.23-9.69-10.84-13.28-17.67-.87-1.65-1.68-3.33-2.44-5.02-.18-.39-.35-.79-.52-1.18-.09-.2-.17-.4-.26-.59,.04,.09,.16,.38-.02-.04-.38-.93-.76-1.87-1.12-2.81-1.37-3.58-2.56-7.22-3.65-10.89-1.19-4.03-2.27-8.1-3.26-12.19-.27-1.12-.53-2.24-.75-3.38-.1-.53-.2-1.06-.28-1.59-.08-.48-.08-.54-.14-1.22-.2-2.35-.12-4.14,.43-6.12,.55-2-.68-4.41-2.78-4.89-2.1-.48-4.3,.63-4.89,2.78h0Z"/>
  <path class="cls-13" d="M152.17,732.01c.05,7.79,2.58,15.16,5.9,22.12,3.24,6.8,6.92,13.62,11.55,19.57,8.02,10.3,19.49,17.31,31.69,21.61,6.96,2.45,14.18,3.93,21.5,4.79,2.07,.24,4.06-2,3.97-3.97-.11-2.36-1.75-3.71-3.97-3.97-.38-.04-.77-.09-1.15-.14-1.26-.15,.78,.12-.48-.07-.77-.11-1.54-.23-2.3-.36-1.54-.26-3.06-.55-4.59-.88-2.92-.63-5.81-1.4-8.66-2.32-1.36-.44-2.71-.91-4.04-1.41-.73-.28-1.45-.56-2.17-.86-.74-.3-.28-.12-.12-.05-.47-.2-.95-.41-1.42-.63-2.69-1.22-5.3-2.6-7.82-4.14-1.3-.8-2.58-1.65-3.82-2.54-.52-.37-1.03-.75-1.53-1.13,.62,.48-.37-.3-.39-.32-.39-.32-.79-.64-1.17-.97-2.23-1.89-4.31-3.95-6.21-6.18-.46-.53-.9-1.08-1.34-1.63-.45-.57,.53,.73-.2-.26-.24-.33-.49-.66-.73-1-1.08-1.52-2.08-3.09-3.03-4.69-1.8-3.02-3.48-6.11-5.09-9.23-3.47-6.72-6.38-13.94-6.43-21.35-.01-2.08-1.82-4.07-3.97-3.97-2.14,.1-3.99,1.75-3.97,3.97h0Z"/>
</svg>