<?xml version="1.0" encoding="UTF-8"?>
<svg id="Layer_1" data-name="Layer 1" xmlns="http://www.w3.org/2000/svg" viewBox="0 0 279.63 277.09">
  <defs>
    <style>
      .cls-1 {
        fill: #fff;
      }
    </style>
  </defs>
  <path d="M207.12,269.36c-8.76,2.79-18.25,4.75-28.44,5.85-60.32,6.52-134.49-1.74-166.98-59.73-5.29-9.45-7.57-20.27-9.11-30.99C-6.57,120.63,8.74,53.55,44.73,0c6.96,12.28,13.93,24.57,20.89,36.85,2.15,3.78,4.48,7.76,8.31,9.82,2.92,1.57,6.35,1.81,9.66,2.03,38.05,2.45,76.1,4.9,114.16,7.35,4.6,.3,9.59,.49,13.38-2.12,2.76-1.9,4.41-4.99,5.96-7.96,5.26-10.08,10.53-20.15,15.79-30.23,35.61,45.48,52.23,105.38,45.14,162.71-5.88,47.52-30.69,78.1-70.9,90.93Z"/>
  <path class="cls-1" d="M204.7,118.96c-2.45,6.23,.97,12.84,6.92,15.34,.79,.33,1.87-.07,2.43-.64,3.83-3.89,6.97-8.98,5.68-14.65-1.12-4.97-5.71-8.7-10.89-7.47-4.69,1.11-8.2,5.61-8.07,10.43,.14,5.7,4.56,9.97,9.56,11.94,.81,.32,1.85-.06,2.43-.64,4.74-4.73,4.73-12.48-.06-17.18-1.29-1.26-3.76-.78-4.18,1.1-.71,3.23-.67,6.32,.22,9.51,.86,3.1,5.68,1.78,4.82-1.33-.65-2.35-.74-4.49-.22-6.86-1.39,.37-2.79,.74-4.18,1.1,2.86,2.8,2.9,7.28,.06,10.11l2.43-.64c-2.9-1.14-5.75-3.8-5.88-7.12-.1-2.62,1.85-5.19,4.49-5.6,3.23-.5,4.92,2.91,4.79,5.7-.15,3.2-2.39,5.89-4.53,8.06l2.43-.64c-3.63-1.52-4.77-5.77-3.42-9.19,1.18-2.99-3.65-4.29-4.82-1.33h0Z"/>
  <path class="cls-1" d="M68.35,106.34c-7.93,2.73-3.76,14.78,4.04,13.82,8.62-1.06,13.17-15.18,5.28-20.12-8.82-5.53-17.56,9.98-13.41,17.14,5.37,9.26,17.95,.86,15.87-8.11-1.06-4.56-6.23-6.79-10.14-3.96-4.69,3.38-2.63,9.66,2.18,11.52,3,1.16,4.3-3.67,1.33-4.82-3.13-1.21,.12-4.03,1.46-2.42,.46,.55,.45,1.51,.4,2.18-.15,1.97-1.65,4.2-3.68,4.62-3.37,.69-4.03-3.46-3.36-5.74,.63-2.13,2.48-5.23,4.61-6.08,5.17-2.06,3.66,6.82,1.9,8.92-1.16,1.39-3.37,2.85-4.96,1.28-.64-.64-1.46-2.96-.19-3.4,3.02-1.04,1.73-5.87-1.33-4.82h0Z"/>
  <path class="cls-1" d="M132.06,162.89c-.42,1.4-.84,2.8-1.26,4.21-.25,.84,.01,1.83,.64,2.43,1.07,1.03,2.13,2.05,3.2,3.08,.59,.57,1.61,.96,2.43,.64,4.26-1.67,7.68-4.39,10.17-8.25,.66-1.02,.28-2.16-.39-3.03-2.94-3.8-9.26-3.85-12.29-.13-3.08,3.78-1.45,9.93,2.87,12.01,4.99,2.4,9.44-6.35,5.63-9.94-4.12-3.88-9.73,2.94-5.08,6.21,2.63,1.86,5.14-2.47,2.52-4.32,1.05,1.35,.77,1.99-.85,1.9-.03,.26-.14,.48-.32,.66-.61,.61-1.18,1.2-1.86,1.75,.81-.21,1.62-.43,2.43-.64-1.65-.58-2.63-3.09-1.43-4.52,1.35-1.62,3.78-.83,4.86,.57-.13-1.01-.26-2.02-.39-3.03-1.73,2.69-4.19,4.78-7.18,5.95,.81,.21,1.62,.43,2.43,.64-1.07-1.03-2.13-2.05-3.2-3.08l.64,2.43c.42-1.4,.84-2.8,1.26-4.21,.93-3.09-3.9-4.41-4.82-1.33h0Z"/>
  <path class="cls-1" d="M99.26,196.37c6.13,8.01,16.97,8.81,25.65,4.42,11.25-5.68,15.58-19.07,19.05-30.25-1.61-.44-3.21-.89-4.82-1.33-3.32,12.67-1.72,28.42,9.44,36.91,9.29,7.06,24.11,7.01,31.66-2.56,1.97-2.5-1.54-6.06-3.54-3.54-6.29,7.99-18.61,7.81-26.04,1.38-8.66-7.49-9.4-20.52-6.69-30.86,.82-3.12-3.87-4.4-4.82-1.33-2.74,8.8-5.7,18.77-13.09,24.89-6.1,5.05-17.12,6.74-22.48-.26-1.93-2.52-6.27-.03-4.32,2.52h0Z"/>
  <path class="cls-1" d="M210.25,173.7c8.98-2.07,17.97-4.13,26.95-6.2,3.13-.72,1.81-5.54-1.33-4.82-8.98,2.07-17.97,4.13-26.95,6.2-3.13,.72-1.81,5.54,1.33,4.82h0Z"/>
  <path class="cls-1" d="M216.2,191.52c7.01-1.45,14.02-2.89,21.03-4.34,3.15-.65,1.82-5.47-1.33-4.82-7.01,1.45-14.02,2.89-21.03,4.34-3.15,.65-1.82,5.47,1.33,4.82h0Z"/>
  <path class="cls-1" d="M69.16,159.76c-8.71-3.58-17.65-6.19-26.91-7.87-3.15-.57-4.5,4.25-1.33,4.82,9.26,1.68,18.2,4.29,26.91,7.87,2.97,1.22,4.27-3.61,1.33-4.82h0Z"/>
  <path class="cls-1" d="M32.55,188.51c10.29,.69,20.49,.17,30.67-1.44,3.17-.5,1.82-5.32-1.33-4.82-9.74,1.54-19.51,1.92-29.34,1.26-3.21-.21-3.2,4.79,0,5h0Z"/>
</svg>