<?xml version="1.0" encoding="UTF-8"?>
<svg id="_" xmlns="http://www.w3.org/2000/svg" viewBox="0 0 112.5 112.5">
  <defs>
    <style>
      .cls-1 {
        fill: #814b41;
      }

      .cls-2 {
        fill: #ff816f;
      }

      .cls-3 {
        fill: #b1847a;
      }

      .cls-4 {
        fill: #ffc5bf;
      }
    </style>
  </defs>
  <rect class="cls-2" width="112.5" height="112.5"/>
  <path class="cls-3" d="M36.75,42.4c.6,2.27,1.36,4.51,1.75,6.83,.41,2.46,.39,4.96,.37,7.45-.16,18.61-.62,37.22-1.37,55.82h39.25c.52-19.81,1.04-39.61,1.56-59.42,.27-10.39,1.69-24.42-3.74-33.82-1.69-2.92-5.03-5.08-8.36-4.55-2.2-4.1-8.21-5.53-12.01-2.86-.83,.58-2.05,2.18-2.05,2.18,0,0-2.28-.62-4.47-.06-3.15,.81-5.14,3.82-6.22,6.89-.22,.61-.3,1.75-.3,1.75,0,0-1.93,.41-2.59,.62-3.01,.98-3.67,4.92-3.52,8.08,.18,3.74,.76,7.46,1.72,11.07Z"/>
  <path class="cls-1" d="M77.75,74.25l-.33,12.75c-13.82-3.49-26.89-3.62-39.11,0,.11-4.25,.2-8.5,.29-12.75,13.4-3.93,26.48-4.3,39.15,0Zm-41.01-31.85c.6,2.27,1.36,4.51,1.75,6.83,.41,2.46,.39,4.96,.37,7.45-.01,1.36-.04,2.71-.06,4.07,12.68-2.71,25.76-2.84,39.3,0l.2-7.67c.27-10.39,1.69-24.42-3.74-33.82-1.69-2.92-5.03-5.08-8.36-4.55-2.2-4.1-8.21-5.53-12.01-2.85-.83,.58-2.05,2.18-2.05,2.18,0,0-2.28-.62-4.47-.06-3.15,.81-5.14,3.82-6.22,6.89-.22,.61-.3,1.75-.3,1.75,0,0-1.93,.41-2.59,.62-3.01,.98-3.67,4.92-3.52,8.08,.18,3.74,.76,7.46,1.72,11.07Zm1.17,58.6c-.13,3.83-.26,7.67-.42,11.5h39.25c.1-3.83,.2-7.67,.3-11.5-12.13-3.18-25.22-3.04-39.14,0Z"/>
  <g>
    <path class="cls-4" d="M69.24,50.81c-.78,.03-2.25,.13-3.73,.11-2.14-.03-4.06,.58-5.9,1.63-1.01,.57-2.06,1.14-3.15,1.52-1.71,.6-3.26,.13-4.44-1.23-1.79-2.05-2.52-4.42-1.86-7.13,.57-2.35,2.74-2.99,3.88-4.96,.74-1.27,1.06-2.77,1.76-4.04,.58-1.04,1.59-2.23,2.55-2.92,1.54-1.1,4.18-1.62,5.87-.62,.55,.33,1.01,.79,1.46,1.25,.79,.8,1.24,1.77,1.91,2.66,1.09,1.46,2.78,1.69,4.13,2.75,1.2,.94,1.82,2.35,2.12,3.81,.12,.6,.18,1.23,.18,1.84,.02,2.78-1.39,4.54-4.78,5.32Z"/>
    <path class="cls-4" d="M68.66,21.95c.02,.37,.02,.74,0,1.11-.14,2.01-1.18,4.91-3.15,5.76-1.83,.79-3.7,.39-5.05-1.09-2.36-2.58-2.48-7.22-.26-9.92,1.67-2.03,4.32-2.25,6.29-.51,1.36,1.19,2.05,2.87,2.17,4.65Z"/>
    <path class="cls-4" d="M46.53,25.7c-.41-2.22-.16-3.69,.53-5.08,1.11-2.24,3.56-3.05,5.81-1.96,3.5,1.69,5.12,6.84,3.22,10.22-1.27,2.26-3.73,2.97-6.04,1.67-2.15-1.21-3.16-3.2-3.53-4.85Z"/>
    <path class="cls-4" d="M68.45,29.93c.25-1.24,.51-2.48,.76-3.71,.19-.95,.41-1.95,1.07-2.66,1.64-1.79,4.41-.61,5.04,1.45,.79,2.58,.09,5.56-1.75,7.53-1.4,1.49-5,1.9-5.3-.84-.06-.55,.05-1.1,.16-1.65,0-.04,.02-.08,.02-.12Z"/>
    <path class="cls-4" d="M50.82,34.56c.03,.15,.06,.3,.08,.45,.14,.85,.27,1.73,.13,2.58s-.56,1.71-1.31,2.15c-.71,.42-1.6,.42-2.41,.26-2.26-.45-5.57-2.78-5.91-5.24-.41-3,1.39-5.85,4.67-5.32,2.74,.45,4.21,2.62,4.74,5.12Z"/>
  </g>
</svg>