<?xml version="1.0" encoding="UTF-8"?>
<svg id="_" xmlns="http://www.w3.org/2000/svg" viewBox="0 0 112.5 112.5">
  <defs>
    <style>
      .cls-1 {
        fill: #ffe0b1;
      }

      .cls-2 {
        fill: #b6684f;
      }

      .cls-3 {
        fill: #edc7a4;
      }

      .cls-4 {
        fill: #cc8b68;
      }
    </style>
  </defs>
  <rect class="cls-1" width="112.5" height="112.5"/>
  <path class="cls-4" d="M35.69,58.89c2.2,2.35,1.99,6.48,1.99,9.47,.01,14.73-.56,29.46-1.71,44.14h41.05c0-.06,0-.11,0-.17-.62-11.73-1.13-23.46-1.53-35.19-.2-5.98-.38-11.97-.53-17.95-.13-5.12,1.69-8.1,3.74-12.67,1.67-3.73,2.22-7.95,1.57-11.98-.22-1.35-.95-2.9-2.05-3.73-5.35-4.06-9.81,1.25-11.08,2.15,1.58-6.58,.29-15.69-7.79-15.6-2.71,.03-5.97,1.91-7.35,4.32-1.02,1.79-1.68,3.8-1.91,5.85-1.89-2.8-4.34-5.41-7.53-6.52-3.19-1.11-7.21-.34-9.09,2.48-1.37,2.06-1.37,4.8-.59,7.15,.78,2.35,2.25,4.4,3.7,6.41-3.63-.28-7.23-1.31-10.04,1.53-2.1,2.13-2.95,5.42-2.13,8.29,.72,2.53,2.57,4.58,4.41,6.46,2.05,2.1,4.96,3.55,6.85,5.56Z"/>
  <path class="cls-2" d="M76.25,96.33c-.28-6.4-.54-12.8-.76-19.2-.11-3.35-.2-6.69-.29-10.04-.7,.28-1.5,.42-2.21,.57-1,.21-1.88,.59-2.74,1.14-.37,.24-.85-.15-.73-.56,.08-.29,.21-.58,.36-.87-.04-.15-.02-.31,.08-.47-.15,.07-.3,.13-.44,.21-1.06,.54-1.76,1.15-2.38,2.13-.52,1.3-2.81,1.08-2.9-.62-.02-.34,.03-.67,.1-.99-.7,.71-1.39,1.42-2.06,2.15-.51,.55-1.36,.35-1.74-.22-.62-.94-.79-1.79-.67-2.58-2.45,1.27-4.8,4.04-7.36,1.61-3.01-2.86-6.3,.13-9.55-.9-.95-.3-1.36-.98-1.41-1.69h-3.88c.01,.83,0,1.63,0,2.36,0,9.33-.25,18.66-.71,27.97h.6c.13-.38,.28-.75,.44-1.1,.46-1.02,1.09-2.33,2.29-2.59,1.84-.4,2.44,1.47,2.39,2.93,.25-.04,.49-.09,.74-.17,1.6-.5,3.06-1.29,4.37-2.33,.8-.63,1.78,.32,1.12,1.12-.37,.45-.85,1.03-1.4,1.64,1.75-.14,3.53-.07,5.23-.59,1.97-.6,3.75-2.71,5.86-2.72,2.6,0,4.13,1.61,3.65,3.69,.31-.08,.62-.17,.9-.3,1.27-.59,2.42-1.27,3.6-2.01,.67-.42,1.45,.57,.85,1.1-.44,.39-.81,.86-1.16,1.34h.31c.39-.2,.78-.45,1.17-.77,.77-.62,1.91-1.76,2.92-1.96,2.23-.43,3.76,.38,5.01,2.23,.11,.17,.11,.35,.04,.5h.34Z"/>
  <g>
    <path class="cls-3" d="M64.37,24.55c-.72-1.72-2.22-3.06-4.22-3.12-4.43-.13-6.01,5.74-5.8,9.24,.1,1.62,.42,3.28,1.35,4.61,.93,1.33,2.59,2.24,4.18,1.91,1.09-.22,2-.98,2.72-1.83,2.4-2.82,3.21-7.36,1.77-10.81Z"/>
    <path class="cls-3" d="M49.64,32.63c-.29-2.69-2.35-5.52-4.54-7.03-2.25-1.55-5.29-1.24-6.46,1.44-.92,2.11-.26,4.74,.53,6.78,1.14,2.92,3.69,5.24,6.98,4.24,1.62-.49,2.92-1.88,3.36-3.52,.17-.63,.2-1.27,.13-1.92Z"/>
    <path class="cls-3" d="M76.13,41.49c.57-1.86,.84-4.56-.32-6.26-1.7-2.49-5.4-.3-6.95,1.34-1.36,1.43-2.17,3.38-2.23,5.35-.08,2.51,2.03,4.63,4.57,4.19,2.13-.37,4.03-2.19,4.79-4.17,.05-.14,.1-.29,.15-.45Z"/>
    <path class="cls-3" d="M41.99,49.51c.58-1.42,.51-3.21-.07-4.74-1.24-3.26-5.74-5.22-8.82-2.99-1.51,1.09-2.12,3.14-1.76,4.92,.32,1.56,1.26,3.48,2.64,4.34,.77,.48,1.67,.74,2.56,.9,.71,.13,1.44,.2,2.15,.1,1.7-.24,2.76-1.24,3.29-2.53Z"/>
    <path class="cls-3" d="M65.48,49.81c-1.25-.72-2.64-1.29-3.16-2.72-.12-.34-.18-.7-.26-1.05-.79-3.24-4.29-5.35-7.53-4.73-4.32,.83-4,5.22-5.78,8.28-1.54,2.64-4.57,3.96-3.45,7.54,.61,1.96,2.37,3.47,4.36,3.99,1.99,.51,4.16,.09,5.94-.94,.34-.2,.69-.43,1.08-.46,.58-.05,1.11,.31,1.62,.6,2.42,1.36,5.71,.96,7.73-.94,2.12-1.99,3.01-6.28,.82-8.55-.39-.4-.87-.71-1.37-1Z"/>
  </g>
</svg>