<?xml version="1.0" encoding="UTF-8"?>
<svg id="_" xmlns="http://www.w3.org/2000/svg" viewBox="0 0 112.5 112.5">
  <defs>
    <style>
      .cls-1 {
        fill: #b85c52;
      }

      .cls-2 {
        fill: #ffd18e;
      }

      .cls-3 {
        fill: #cee0c2;
      }

      .cls-4 {
        fill: #ff9f52;
      }
    </style>
  </defs>
  <rect class="cls-3" width="112.5" height="112.5"/>
  <path class="cls-4" d="M82.03,112.5s-3.99-36.82-5.51-55.08c-.17-2.06-.23-4.17,.31-6.17,.93-3.43,3.7-6.18,4.4-9.66,.69-3.41-.94-7.17-3.9-9s-7.05-1.61-9.79,.54c.07-2.85-.35-5.76-1.68-8.28-1.34-2.51-3.68-4.58-6.48-5.13-3.9-.76-8.15,1.9-9.18,5.74-2.23-4-8.5-4.43-11.86-1.33s-3.81,8.57-1.82,12.69c-2.98-.39-6.12,.79-8.11,3.05-1.98,2.26-2.75,5.53-1.98,8.43,1.15,4.33,5.24,7.24,7.13,11.31,1.32,2.84,1.49,6.05,1.63,9.18,.68,14.59-.82,43.72-.82,43.72h47.66Z"/>
  <path class="cls-1" d="M81.22,41.59c.69-3.41-.94-7.17-3.9-9-2.96-1.83-7.05-1.61-9.79,.54,.07-2.85-.35-5.76-1.68-8.28-1.34-2.51-3.68-4.58-6.48-5.13-3.9-.76-8.15,1.9-9.18,5.74-2.23-4-8.5-4.43-11.86-1.33s-3.81,8.57-1.82,12.69c-2.98-.39-6.12,.79-8.11,3.05-1.98,2.26-2.75,5.53-1.98,8.43,1.15,4.33,5.24,7.24,7.13,11.31,1.32,2.84,1.49,6.05,1.63,9.18,.2,4.34,.21,9.96,.13,15.72h1.74c.79,0,2.51-4.78,2.82-5.44,1.08-2.32,2.6-5.23,2.56-7.81,.03,2.18,.4,4.35,1.08,6.42,.26,.79,1.29,4.33,2.4,4.43,.17,.02,.34,.03,.51,.05,.95-3.45,2.16-6.44,3.65-9.69,.04-.09,.19-.05,.18,.05-.37,3.62-.98,7.85,1.09,11.08,2.14,3.35,4.75-2.93,5.13-4.6,.66-2.9,.58-5.92,1.5-8.76,.11-.33,.31-.71,.65-.69,.27,.02,.44,.3,.55,.55,.47,1.06,.75,2.19,1.06,3.31,.74,2.61,1.7,5.15,2.86,7.6,1.31-3.03,1.53-5.96,1.73-9.2,1.72,3.96,1.92,8.45,1.68,12.7h.42c.21-.42,.4-.84,.55-1.24,.36-.98,2.97-7.12,2.1-7.97,.83,.81,1.56,1.73,2.16,2.72-.92-2.74-1.47-5.28-1.37-8.17,0-.28,.38-.39,.53-.14,2.51,4.23,5.08,8.11,7.9,12.06-.89-8.79-1.75-17.76-2.3-24.33-.17-2.06-.23-4.17,.31-6.17,.93-3.43,3.7-6.18,4.4-9.66Z"/>
  <g>
    <path class="cls-2" d="M61.74,26.47c-1.89-3.11-5.91-2.86-7.23,.57-1.2,3.13-.91,9.05,3.21,10.07,1.61,.4,3.36-.42,4.35-1.75,.98-1.33,1.26-3.09,1.06-4.73-.16-1.29-.61-2.89-1.39-4.16Z"/>
    <path class="cls-2" d="M48.91,30c-.38-.63-.83-1.19-1.34-1.62-.68-.58-1.48-1.03-2.35-1.19-.87-.16-1.83,0-2.53,.55-.43,.33-.75,.79-1.02,1.26-2.05,3.6-1.59,9.71,2.97,11.13,1.8,.56,4.01-.11,4.89-1.78,1.22-2.32,.84-5.91-.62-8.35Z"/>
    <path class="cls-2" d="M75.29,38.58c-.26-.84-.71-1.56-1.37-2.07-1.02-.78-2.53-.57-3.59,.14-1.72,1.16-3.47,3.42-3.81,5.48-.56,3.34,2.77,6.23,5.96,4.72,.43-.21,.83-.49,1.18-.82,1.6-1.5,2.42-4.96,1.63-7.45Z"/>
    <path class="cls-2" d="M42.35,50.39c.17-.4,.29-.82,.35-1.24,.48-3.62-2.62-7.07-6.27-6.83-.26,.02-.53,.05-.76,.18-.29,.15-.49,.42-.67,.69-1.98,3.04-.93,10.67,4.02,9.95,1.5-.22,2.74-1.35,3.34-2.75Z"/>
    <path class="cls-2" d="M69.17,56.02c0-1.58-.55-3.17-1.78-4.49-1.23-1.31-2.82-2.29-3.86-3.75-.69-.97-1.11-2.11-1.83-3.04-1.82-2.36-5.59-2.89-8-1.13-1.89,1.39-2.76,3.75-4.2,5.61-.87,1.12-1.96,2.06-2.79,3.2-2.56,3.5-2.68,10.19,1.96,12.01,2.31,.91,5.53-.07,7.54-1.3,.44-.27,.89-.56,1.41-.66,.91-.16,1.79,.34,2.67,.63,4.85,1.6,8.91-2.72,8.89-7.09Z"/>
  </g>
</svg>