<?xml version="1.0" encoding="UTF-8"?>
<svg id="_" xmlns="http://www.w3.org/2000/svg" viewBox="0 0 112.5 112.5">
  <defs>
    <style>
      .cls-1 {
        fill: #ffbd59;
      }

      .cls-2 {
        fill: #e07743;
      }

      .cls-3 {
        fill: #c2907c;
      }

      .cls-4 {
        fill: #ffe8ca;
      }
    </style>
  </defs>
  <rect class="cls-3" width="112.5" height="112.5"/>
  <g>
    <path class="cls-1" d="M35.69,58.88c2.2,2.35,1.99,6.48,1.99,9.47,.01,14.73-.56,29.46-1.71,44.14h41.05c0-.06,0-.11,0-.17-.62-11.73-1.13-23.46-1.53-35.19-.2-5.98-.38-11.97-.53-17.95-.13-5.12,1.69-8.1,3.74-12.67,1.67-3.73,2.22-7.95,1.57-11.98-.22-1.35-.95-2.9-2.05-3.73-5.35-4.06-9.81,1.25-11.08,2.15,1.58-6.58,.29-15.69-7.79-15.6-2.71,.03-5.97,1.91-7.35,4.32-1.02,1.79-1.68,3.8-1.91,5.85-1.89-2.8-4.34-5.41-7.53-6.52-3.19-1.11-7.21-.34-9.09,2.48-1.37,2.06-1.37,4.8-.59,7.15,.78,2.35,2.25,4.4,3.7,6.41-3.63-.28-7.23-1.31-10.04,1.53-2.1,2.13-2.95,5.42-2.13,8.29,.72,2.53,2.57,4.58,4.41,6.46,2.05,2.1,4.96,3.55,6.85,5.56Z"/>
    <path class="cls-4" d="M76.41,99.65c-.35-7.51-.67-15.01-.92-22.53-.09-2.66-.15-5.31-.23-7.97-9.37,2.82-17.12,13.54-10.25,22.48,2.94,3.83,7.26,5.82,11.41,8.01Z"/>
    <path class="cls-4" d="M53.31,108.35c-2.9-6.62-5.02-14.37-8.86-20.48-1.82-2.89-4.22-4.65-6.95-5.82-.24,10.16-.74,20.3-1.53,30.43h19.4c-.76-1.32-1.44-2.71-2.07-4.13Z"/>
    <g>
      <path class="cls-2" d="M64.37,24.53c-.72-1.72-2.22-3.06-4.22-3.12-4.43-.13-6.01,5.74-5.8,9.24,.1,1.62,.42,3.28,1.35,4.61,.93,1.33,2.59,2.24,4.18,1.91,1.09-.22,2-.98,2.72-1.83,2.4-2.82,3.21-7.36,1.77-10.81Z"/>
      <path class="cls-2" d="M49.64,32.61c-.29-2.69-2.35-5.52-4.54-7.03-2.25-1.55-5.29-1.24-6.46,1.44-.92,2.11-.26,4.74,.53,6.78,1.14,2.92,3.69,5.24,6.98,4.24,1.62-.49,2.92-1.88,3.36-3.52,.17-.63,.2-1.27,.13-1.92Z"/>
      <path class="cls-2" d="M76.13,41.47c.57-1.86,.84-4.56-.32-6.26-1.7-2.49-5.4-.3-6.95,1.34-1.36,1.43-2.17,3.38-2.23,5.35-.08,2.51,2.03,4.63,4.57,4.19,2.13-.37,4.03-2.19,4.79-4.17,.05-.14,.1-.29,.15-.45Z"/>
      <path class="cls-2" d="M41.99,49.49c.58-1.42,.51-3.21-.07-4.74-1.24-3.26-5.74-5.22-8.82-2.99-1.51,1.09-2.12,3.14-1.76,4.92,.32,1.56,1.26,3.48,2.64,4.34,.77,.48,1.67,.74,2.56,.9,.71,.13,1.44,.2,2.15,.1,1.7-.24,2.76-1.24,3.29-2.53Z"/>
      <path class="cls-2" d="M65.48,49.79c-1.25-.72-2.64-1.29-3.16-2.72-.12-.34-.18-.7-.26-1.05-.79-3.24-4.29-5.35-7.53-4.73-4.32,.83-4,5.22-5.78,8.28-1.54,2.64-4.57,3.96-3.45,7.54,.61,1.96,2.37,3.47,4.36,3.99,1.99,.51,4.16,.09,5.94-.94,.34-.2,.69-.43,1.08-.46,.58-.05,1.11,.31,1.62,.6,2.42,1.36,5.71,.96,7.73-.94,2.12-1.99,3.01-6.28,.82-8.55-.39-.4-.87-.71-1.37-1Z"/>
    </g>
  </g>
</svg>