<?xml version="1.0" encoding="UTF-8"?>
<svg id="_" xmlns="http://www.w3.org/2000/svg" viewBox="0 0 112.5 112.5">
  <defs>
    <style>
      .cls-1 {
        fill: #ffbd59;
      }

      .cls-2 {
        fill: #ffbaab;
      }

      .cls-3 {
        fill: #ffe0b1;
      }

      .cls-4 {
        fill: #ea7563;
      }

      .cls-5 {
        fill: #cc8e77;
      }

      .cls-6 {
        fill: #57292a;
      }
    </style>
  </defs>
  <rect class="cls-3" width="112.5" height="112.5"/>
  <g>
    <path class="cls-5" d="M36.75,42.38c.6,2.27,1.36,4.51,1.75,6.83,.41,2.46,.39,4.96,.37,7.45-.16,18.61-.62,37.22-1.37,55.82h39.25c.52-19.81,1.04-39.61,1.56-59.42,.27-10.39,1.69-24.42-3.74-33.82-1.69-2.92-5.03-5.08-8.36-4.55-2.2-4.1-8.21-5.53-12.01-2.85-.83,.58-2.05,2.18-2.05,2.18,0,0-2.28-.62-4.47-.06-3.15,.81-5.14,3.82-6.22,6.89-.22,.61-.3,1.75-.3,1.75,0,0-1.93,.41-2.59,.62-3.01,.98-3.67,4.92-3.52,8.08,.18,3.74,.76,7.46,1.72,11.07Z"/>
    <path class="cls-6" d="M36.75,42.38c.6,2.27,1.36,4.51,1.75,6.83,.41,2.46,.39,4.96,.37,7.45-.02,1.79,.74,1.23,1.96,1.93,1.05,.61,1.84,1.99,2.6,2.92,.88,1.07,2.06,2.25,3.42,1.98,1.44-.29,2.03-2,2.35-3.44-.04,1,.26,2.05,.96,2.76,.71,.71,1.85,1.01,2.76,.57,.9-.43,1.38-1.66,.87-2.53,.39,1.22,1.87,1.96,3.07,1.53,.77-.27,1.35-.91,2.01-1.39,2.15-1.55,5.44-1.19,7.21,.78,.01-1.09,.52-2.24,1.5-2.72,.98-.49,2.25-.05,2.68,.96,.96-1.28,1.86-1.35,3.28-1.25,.59,.04,4.62-.23,4.64-.86,.04-1.61,.08-3.22,.13-4.84,.27-10.39,1.69-24.42-3.74-33.82-1.69-2.92-5.03-5.08-8.36-4.55-2.2-4.1-8.21-5.53-12.01-2.85-.83,.58-2.05,2.18-2.05,2.18,0,0-2.28-.62-4.47-.06-3.15,.81-5.14,3.82-6.22,6.89-.22,.61-.3,1.75-.3,1.75,0,0-1.93,.41-2.59,.62-3.01,.98-3.67,4.92-3.52,8.08,.18,3.74,.76,7.46,1.72,11.07Z"/>
    <g>
      <path class="cls-2" d="M69.24,50.79c-.78,.03-2.25,.13-3.73,.11-2.14-.03-4.06,.58-5.9,1.63-1.01,.57-2.06,1.14-3.15,1.52-1.71,.6-3.26,.13-4.44-1.23-1.79-2.05-2.52-4.42-1.86-7.13,.57-2.35,2.74-2.99,3.88-4.96,.74-1.27,1.06-2.77,1.76-4.04,.58-1.04,1.59-2.23,2.55-2.92,1.54-1.1,4.18-1.62,5.87-.62,.55,.33,1.01,.79,1.46,1.25,.79,.8,1.24,1.77,1.91,2.66,1.09,1.46,2.78,1.69,4.13,2.75,1.2,.94,1.82,2.35,2.12,3.81,.12,.6,.18,1.23,.18,1.84,.02,2.78-1.39,4.54-4.78,5.32Z"/>
      <path class="cls-2" d="M68.66,21.93c.02,.37,.02,.74,0,1.11-.14,2.01-1.18,4.91-3.15,5.76-1.83,.79-3.7,.39-5.05-1.09-2.36-2.58-2.48-7.22-.26-9.92,1.67-2.03,4.32-2.25,6.29-.51,1.36,1.19,2.05,2.87,2.17,4.65Z"/>
      <path class="cls-2" d="M46.53,25.68c-.41-2.22-.16-3.69,.53-5.08,1.11-2.24,3.56-3.05,5.81-1.96,3.5,1.69,5.12,6.84,3.22,10.22-1.27,2.26-3.73,2.97-6.04,1.67-2.15-1.21-3.16-3.2-3.53-4.85Z"/>
      <path class="cls-2" d="M68.45,29.91c.25-1.24,.51-2.48,.76-3.71,.19-.95,.41-1.95,1.07-2.66,1.64-1.79,4.41-.61,5.04,1.45,.79,2.58,.09,5.56-1.75,7.53-1.4,1.49-5,1.9-5.3-.84-.06-.55,.05-1.1,.16-1.65,0-.04,.02-.08,.02-.12Z"/>
      <path class="cls-2" d="M50.82,34.54c.03,.15,.06,.3,.08,.45,.14,.85,.27,1.73,.13,2.58-.13,.86-.56,1.71-1.31,2.15-.71,.42-1.6,.42-2.41,.26-2.26-.45-5.57-2.78-5.91-5.24-.41-3,1.39-5.85,4.67-5.32,2.74,.45,4.21,2.62,4.74,5.12Z"/>
    </g>
    <g>
      <path class="cls-4" d="M65.51,50.9c.92,.02,1.4-2.41,1.41-3.02,.02-2.9-1.92-4.85-4.26-6.3-.2-.13-.44-.31-.39-.55,.04-.16,.2-.25,.34-.34,.65-.44,.98-1.3,.78-2.06-.2-.76-.92-1.35-1.7-1.4-.7-.05-1.38,.29-1.92,.73-.88,.71-1.56,1.76-1.54,2.89,0,.35,.07,.71-.04,1.05-.09,.27-.28,.49-.46,.71-1.25,1.54-1.97,3.47-1.83,5.46,.03,.44,1.02,5.82,1.25,5.72,.85-.36,1.66-.8,2.46-1.25,1.84-1.04,3.76-1.66,5.91-1.63Z"/>
      <path class="cls-4" d="M64.48,27.14c.65-.2,1.22-.67,1.6-1.23,.52-.77,1.33-2.39,.85-3.32-.81-1.6-3.21-.14-3.75,.95-.29,.6-.39,1.27-.48,1.93-.08,.57-.11,1.25,.35,1.59,.22,.16,.5,.2,.77,.19,.22,0,.44-.05,.65-.11Z"/>
      <path class="cls-4" d="M69.25,30.43c-.63-1.18,.23-2.45,.55-3.57,.12-.43,.25-.86,.5-1.23,.25-.36,.66-.65,1.11-.64,.47,.02,.88,.36,1.15,.75,.88,1.27,.69,3.04-.06,4.38-.21,.37-.46,.72-.8,.97-.72,.53-1.82,.26-2.33-.48-.04-.06-.08-.12-.11-.19Z"/>
    </g>
    <path class="cls-1" d="M65,89.56c-.47,2.69-3.03,3.68-5.42,2.94-2.43-.75-3.94-3.64-5.04-6.16-.36,.38-.83,.65-1.35,.81-1.55,.95-3.49,.79-4.32-.87-.58-1.16-1.35-4.91-.31-6.01-.31,.33-.63,.67-1.05,.84-.42,.18-.95,.16-1.26-.18-.16-.17-.24-.4-.31-.63-.97-3.27-.1-6.82,1.35-9.9,1.76-3.74,6.08-5.78,9.81-3.18,6.84,4.75,9.25,14.51,7.9,22.33Zm-7.44,13.56c-.13-.94-.47-1.87-.76-2.78-.22-.69-.54-1.43-1.18-1.77-.64-.35-1.65,0-1.67,.73-.21-1.54-.76-3.03-1.61-4.33-.62-.96-1.55-1.89-2.69-1.87-.26,0-.53,.06-.73,.23-.14,.11-.24,.26-.33,.41-.29,.49-.49,1.04-.58,1.61,.07-.4-2.29,.76-2.51,1.08-.55,.79-.62,2.01-.63,2.95-.03,2.43,1.04,4.84,2.68,6.61,1.61,1.74,3.54,2.88,5.97,2.63,1.71-.17,3.1-1.46,3.77-3,.36-.82,.39-1.65,.27-2.48Z"/>
  </g>
</svg>