<?xml version="1.0" encoding="UTF-8"?>
<svg id="_" xmlns="http://www.w3.org/2000/svg" viewBox="0 0 112.5 112.5">
  <defs>
    <style>
      .cls-1 {
        fill: #a66c6b;
      }

      .cls-2 {
        fill: #ffd1a7;
      }

      .cls-3 {
        fill: #ffefd6;
      }

      .cls-4 {
        fill: #9d424f;
      }
    </style>
  </defs>
  <rect class="cls-1" width="112.5" height="112.5"/>
  <g>
    <path class="cls-2" d="M79.65,45.12c-.33-5.82-.12-10.54-2.28-15.95-1.41-3.52-5.07-7.21-8.43-5.47-.48-3.47-3.82-7.71-7.22-8.56-1.67-.41-7.3-.05-7.3,2.07,0-2.11-5.63-2.48-7.3-2.07-3.4,.84-7.34,5.09-7.82,8.56-3.36-1.74-7.02,1.95-8.43,5.47-2.17,5.41-1.36,10.13-1.68,15.95-1.26,22.43-.83,44.9-.94,67.36h52.34c-.11-22.47,.32-44.93-.94-67.36Z"/>
    <path class="cls-3" d="M61.21,78.66c-1.87-6.39-.73-11.8,6.11-14.12,5.01-1.7,10.49-.24,13.11,4.08,.05,3.27,.09,6.53,.11,9.8-2.22,3.26-5.6,5.9-9.54,5.59-1.5-.12-2.58,1.3-2.65,2.65-.3,5.59-7.27,8.93-10.96,3.87-2.23-3.05-.35-7.01,2.53-8.69,1.07-.63,1.64-1.97,1.29-3.17Zm-23.7,33.83c8.99-23.75-9-28.54-9.24-28.59-.02,9.53,.02,19.06-.02,28.59h9.26ZM49.44,30.73c-.39,5.81-.05,12.51,3.5,17.38,4.7,6.45,14.33,8.31,21.83,7,1.79-.31,3.54-.7,5.29-1.12-.11-2.95-.25-5.91-.41-8.86-.33-5.82-.12-10.54-2.28-15.95-1.41-3.52-5.07-7.21-8.43-5.47-.48-3.47-3.82-7.71-7.22-8.56-1.67-.41-7.3-.05-7.3,2.07,0-.47-4.43,5.32-4.98,13.51Z"/>
    <g>
      <path class="cls-4" d="M61.64,63.09c-.91-.2-2.66-.52-4.37-.99-2.48-.68-4.9-.54-7.35,.13-1.35,.37-2.73,.71-4.12,.83-2.17,.19-3.83-.82-4.8-2.76-1.47-2.92-1.61-5.89-.02-8.85,.83-1.56,2.07-2.65,3.82-2.96,1.55-.28,2.41-1.3,3.23-2.49,.71-1.03,1.49-2.02,2.29-2.99,2.07-2.51,6.06-2.38,8.24,.13,1.14,1.31,2.04,2.82,3.13,4.17,.39,.48,1,1,1.57,1.08,4.37,.66,6.11,3.63,5.9,7.76-.04,.74-.16,1.48-.34,2.19-.81,3.24-2.98,4.87-7.16,4.76Z"/>
      <path class="cls-4" d="M67.79,29.49c.03,3.48-2.35,6.69-5.53,7.47-2.33,.57-4.46-.28-5.77-2.3-2.28-3.53-1.5-9.05,1.67-11.8,2.39-2.07,5.56-1.8,7.56,.65,1.27,1.56,2.05,3.82,2.07,5.98Z"/>
      <path class="cls-4" d="M41.07,29.61c-.05-2.71,.55-4.4,1.64-5.91,1.76-2.43,4.83-2.9,7.28-1.16,3.81,2.7,4.71,9.12,1.79,12.75-1.95,2.43-5.01,2.77-7.49,.78-2.31-1.86-3.1-4.42-3.22-6.45Z"/>
      <path class="cls-4" d="M64.44,41.77c.27-2.91,1.24-5.54,4.08-7.08,2.33-1.26,4.81-.57,6.16,1.7,1.48,2.51,1.36,5.12,.13,7.66-.47,.97-1.19,1.9-2.01,2.6-3.6,3.07-7.33,.53-8.08-2.87-.14-.61-.17-1.25-.26-2Z"/>
      <path class="cls-4" d="M44.43,41.62c0,3.23-2.17,5.96-5,6.31-1.85,.23-3.29-.54-4.34-1.96-1.77-2.42-2.51-5.09-1.65-8.07,.84-2.92,3.37-4.25,6.24-3.28,2.79,.95,4.76,3.85,4.75,7Z"/>
    </g>
  </g>
</svg>