<?xml version="1.0" encoding="UTF-8"?>
<svg id="_" xmlns="http://www.w3.org/2000/svg" viewBox="0 0 112.5 112.5">
  <defs>
    <style>
      .cls-1 {
        fill: #a66c6b;
      }

      .cls-2 {
        fill: #bd6b47;
      }

      .cls-3 {
        fill: #febd86;
      }

      .cls-4 {
        fill: #6b2825;
      }
    </style>
  </defs>
  <rect class="cls-1" width="112.5" height="112.5"/>
  <g>
    <path class="cls-3" d="M82.03,112.49s-3.99-36.82-5.51-55.08c-.17-2.06-.23-4.17,.31-6.17,.93-3.43,3.7-6.18,4.4-9.66,.69-3.41-.94-7.17-3.9-9s-7.05-1.61-9.79,.54c.07-2.85-.35-5.76-1.68-8.28-1.34-2.51-3.68-4.58-6.48-5.13-3.9-.76-8.15,1.9-9.18,5.74-2.23-4-8.5-4.43-11.86-1.33-3.36,3.1-3.81,8.57-1.82,12.69-2.98-.39-6.12,.79-8.11,3.05-1.98,2.26-2.75,5.53-1.98,8.43,1.15,4.33,5.24,7.24,7.13,11.31,1.32,2.84,1.49,6.05,1.63,9.18,.68,14.59-.82,43.72-.82,43.72h47.66Z"/>
    <g>
      <path class="cls-4" d="M58.63,69.17c-.19,.8,.37,1.88,1.16,2.14,.76,.25,1.35,.26,2.07-.1,.27-.13,.53-.27,.78-.43,.07-.07,.12-.12,.18-.18,.02-.01,.05-.03,.1-.05,.72-.36,1.2-1.01,1.11-1.85-.09-.77-.71-1.46-1.49-1.56-.69-.09-1.42-.18-2.08,.07-.33,.12-.69,.27-.97,.48-.51,.38-.71,.88-.86,1.48Z"/>
      <path class="cls-4" d="M63.29,87.74c.57,.09,1.19,.04,1.86-.26,3.49-1.54,7.12-5.78,4.41-9.67-3.09-4.42-8.58-.09-10.52,3.18-.92,1.55-1.12,3.3-.55,5.01,.71,2.14,2.99,2.33,4.81,1.73Z"/>
      <path class="cls-4" d="M37.79,80.98c.92,2.7,4.71,5.85,7.61,4.23,1.51-.84,2.3-2.24,1.7-3.97-.25-.72-.62-1.17-1.15-1.71-.34-.35-.85-.54-1.15-.86-.4-.42-.6-.67-.44-1.16,.07-.03,.15-.07,.26-.11,.15-.06,.55-.13,.76-.07,1.26,.38,2.2,1.31,3.35,1.9,1.06,.54,2.77-.24,2.81-1.52,.21-6.31-8.34-9.09-12.41-4.62-1.99,2.19-2.26,5.18-1.34,7.9Z"/>
      <path class="cls-4" d="M41.14,67c1.02-.08,1.92-.65,2.56-1.44,.53-.65,.54-1.62,.04-2.29-.67-.9-1.73-.89-2.62-.39,.08-.04,.11-.07,.12-.08,.03,0,.05,0,.08-.01-.03,0-.05,0-.08,0,.02-.04-.14,0-.14,.02-.14,.01-.28,.02-.42,.02-1.14,.04-1.97,1.25-1.85,2.31,.13,1.16,1.18,1.94,2.31,1.85Z"/>
      <path class="cls-4" d="M48.32,103.04c-1.48,.62-1.34,2.47-.06,3.2,3.91,2.22,10.15,.89,12.12-3.46,1.04-2.28,.99-4.77-.34-6.92-1.23-2-3.91-3.08-5.87-1.4-.53,.45-.96,1.15-.82,1.88-.22-1.11,.23,1.23,.21,1.19,.15,.54,.43,.99,.76,1.44,.37,.51,.33,.74-.03,1.29-1.23,1.89-4.08,1.99-5.98,2.79Z"/>
      <path class="cls-4" d="M72.86,75.61c2.18,1.27,4.8-.16,4.92-2.68,0-.04,0-.08,0-.12,.04-.13,.07-.27,.11-.4-.31-3.17-.6-6.23-.86-9.07-.27-.05-.54-.08-.81-.04-2.76,.37-4.48,2.67-5.05,5.3-.51,2.38-.74,5.6,1.68,7.01Z"/>
      <path class="cls-4" d="M68.84,106.14c-4.28-1.3-8.38,.84-10.47,4.61-.31,.56-.43,1.15-.4,1.73h16.04c-.01-2.79-2.71-5.59-5.17-6.34Z"/>
      <path class="cls-4" d="M79.65,89.99c-4.38-2.83-11.58-.79-12.65,4.64-.52,2.64-.12,5.78,2.25,7.42,2.49,1.72,6.92,.28,6.32-3.25-.16-.9-.87-1.97-1.9-1.99-.15,0-.31-.04-.48-.09-.3-.91,.13-2.11,1.1-2.59,1.55-.77,3.45-.36,5.16-.65-.24,1.35-.02,2.72-.13,4.12-.12,1.61-.86,4.02-1.79,5.34-.91,1.29,.29,2.89,1.78,2.4,.68-.22,1.29-.48,1.85-.78-.42-3.94-.95-9.04-1.52-14.57Z"/>
      <path class="cls-4" d="M34.68,105.61c-.17,4.16-.31,6.87-.31,6.87h9.42c-1.06-4.18-4.96-6.92-9.1-6.87Z"/>
      <path class="cls-4" d="M49.19,93.39c.88-1.06-.1-2.36-1.3-2.35-1.15,0-2.25-.22-3.4,0-1.23,.24-2.33,.88-3.27,1.7-2.23,1.95-3.15,5.13-2.49,8,.41,1.77,1.72,3.17,3.68,2.95,2.09-.23,3.61-2.55,2.73-4.55-1.45-3.28,2.45-3.84,4.03-5.75Z"/>
    </g>
    <g>
      <path class="cls-2" d="M61.74,26.45c-1.89-3.11-5.91-2.86-7.23,.57-1.2,3.13-.91,9.05,3.21,10.07,1.61,.4,3.36-.42,4.35-1.75,.98-1.33,1.26-3.09,1.06-4.73-.16-1.29-.61-2.89-1.39-4.16Z"/>
      <path class="cls-2" d="M48.91,29.99c-.38-.63-.83-1.19-1.34-1.62-.68-.58-1.48-1.03-2.35-1.19-.87-.16-1.83,0-2.53,.55-.43,.33-.75,.79-1.02,1.26-2.05,3.6-1.59,9.71,2.97,11.13,1.8,.56,4.01-.11,4.89-1.78,1.22-2.32,.84-5.91-.62-8.35Z"/>
      <path class="cls-2" d="M75.29,38.57c-.26-.84-.71-1.56-1.37-2.07-1.02-.78-2.53-.57-3.59,.14-1.72,1.16-3.47,3.42-3.81,5.48-.56,3.34,2.77,6.24,5.96,4.72,.43-.21,.83-.49,1.18-.82,1.6-1.5,2.42-4.96,1.63-7.45Z"/>
      <path class="cls-2" d="M42.35,50.37c.17-.4,.29-.82,.35-1.24,.48-3.62-2.62-7.07-6.27-6.83-.26,.02-.53,.05-.76,.18-.29,.15-.49,.42-.67,.69-1.98,3.04-.93,10.67,4.02,9.95,1.5-.22,2.74-1.35,3.34-2.75Z"/>
      <path class="cls-2" d="M69.17,56c0-1.58-.55-3.17-1.78-4.49-1.23-1.31-2.82-2.29-3.86-3.75-.69-.97-1.11-2.11-1.83-3.04-1.82-2.36-5.59-2.89-8-1.13-1.89,1.39-2.76,3.75-4.2,5.61-.87,1.12-1.96,2.06-2.79,3.2-2.56,3.5-2.68,10.19,1.96,12.01,2.31,.91,5.53-.07,7.54-1.3,.44-.27,.89-.57,1.41-.66,.91-.16,1.79,.34,2.67,.63,4.85,1.6,8.91-2.72,8.89-7.09Z"/>
    </g>
  </g>
</svg>